<?xml version="1.0" encoding="UTF-8"?>
<svg id="trazado" xmlns="http://www.w3.org/2000/svg" viewBox="0 0 312.57 501.69">
  <defs>
    <style>
      .cls-1 {
        stroke-width: 3px;
      }

      .cls-1, .cls-2 {
        stroke: #1d1d1b;
        stroke-miterlimit: 10;
      }

      .cls-1, .cls-2, .cls-3 {
        fill: none;
      }

      .cls-4 {
        fill: #1d1d1b;
        stroke-width: 0px;
      }

      .cls-2 {
        stroke-width: 1.5px;
      }

      .cls-3 {
        stroke: #fff;
        stroke-width: 4px;
      }
    </style>
  </defs>
  <line class="cls-2" x1="148.22" y1="263.89" x2="148.22" y2="305.79"/>
  <g>
    <g>
      <path class="cls-3" d="M117.73,288.59h-.04c-.19.4-.59.7-1.12.7-.94,0-1.68-1.02-1.68-2.93,0-2.05.86-3.07,1.82-3.07.37,0,.8.17,1.08.77h.02s.05-.67.05-.67h.83c-.02.41-.05.92-.05,1.81v6.3h-.92v-2.9ZM117.73,285.55c0-.12,0-.28-.02-.38-.07-.61-.43-1.09-.84-1.09-.76,0-1.04,1.01-1.04,2.23s.31,2.21,1.02,2.21c.29,0,.65-.17.84-.97.05-.14.05-.34.05-.49v-1.5Z"/>
      <path class="cls-3" d="M123.42,287.6c0,.65.04,1.15.05,1.58h-.8l-.06-.61h-.03c-.18.29-.62.71-1.25.71-1.02,0-1.42-.79-1.42-2.23v-3.67h.92v3.54c0,.91.14,1.58.78,1.58.54,0,.78-.5.83-.77.04-.16.05-.34.05-.53v-3.83h.92v4.22Z"/>
      <path class="cls-3" d="M125.36,286.37c.01,1.78.71,2.16,1.38,2.16.4,0,.73-.1.96-.23l.14.68c-.32.18-.82.28-1.27.28-1.39,0-2.11-1.14-2.11-2.91,0-1.88.79-3.06,1.96-3.06s1.66,1.25,1.66,2.57c0,.22,0,.37-.01.52h-2.7ZM127.19,285.68c.03-1.16-.42-1.68-.86-1.68-.6,0-.91.89-.95,1.68h1.81Z"/>
      <path class="cls-3" d="M130.94,285.19c0-.89-.04-1.4-.05-1.81h.83l.05.74h.02c.31-.62.77-.84,1.22-.84,1.01,0,1.68,1.08,1.68,2.99,0,2.15-.89,3.01-1.8,3.01-.54,0-.85-.35-1.01-.67h-.02v2.88h-.92v-6.3ZM131.87,287.05c0,.18,0,.35.04.48.18.83.6.98.85.98.77,0,1.01-1.05,1.01-2.23s-.29-2.21-1.02-2.21c-.42,0-.79.53-.85,1.06-.02.14-.02.29-.02.44v1.47Z"/>
      <path class="cls-3" d="M139.22,287.6c0,.65.04,1.15.05,1.58h-.8l-.06-.61h-.02c-.18.29-.62.71-1.25.71-1.02,0-1.41-.79-1.41-2.23v-3.67h.92v3.54c0,.91.14,1.58.78,1.58.54,0,.78-.5.83-.77.04-.16.05-.34.05-.53v-3.83h.92v4.22Z"/>
      <path class="cls-3" d="M141.17,286.37c.01,1.78.71,2.16,1.38,2.16.39,0,.73-.1.96-.23l.14.68c-.32.18-.82.28-1.27.28-1.39,0-2.11-1.14-2.11-2.91,0-1.88.79-3.06,1.96-3.06s1.65,1.25,1.65,2.57c0,.22,0,.37-.01.52h-2.7ZM142.99,285.68c.02-1.16-.42-1.68-.86-1.68-.6,0-.91.89-.95,1.68h1.81Z"/>
      <path class="cls-3" d="M148.37,280.89v6.91c0,.4.04,1.05.05,1.39h-.79l-.06-.73h-.04c-.19.42-.6.83-1.21.83-.98,0-1.69-1.07-1.69-2.97,0-2.06.85-3.02,1.75-3.02.42,0,.83.2,1.05.7h.03v-3.09h.91ZM147.46,285.59c0-.12,0-.25-.01-.38-.06-.6-.42-1.13-.86-1.13-.77,0-1.03,1.07-1.03,2.23,0,1.22.31,2.21.98,2.21.29,0,.68-.16.89-1,.02-.11.04-.24.04-.38v-1.55Z"/>
      <path class="cls-3" d="M150.31,286.37c.01,1.78.71,2.16,1.38,2.16.4,0,.73-.1.96-.23l.14.68c-.32.18-.82.28-1.27.28-1.39,0-2.11-1.14-2.11-2.91,0-1.88.79-3.06,1.96-3.06s1.66,1.25,1.66,2.57c0,.22,0,.37-.01.52h-2.7ZM152.13,285.68c.03-1.16-.42-1.68-.86-1.68-.6,0-.91.89-.95,1.68h1.81Z"/>
      <path class="cls-3" d="M154.02,284.88c0-.68-.04-1.03-.05-1.5h.8l.05.7h.03c.25-.47.72-.79,1.33-.79.8,0,1.4.6,1.4,2v3.9h-.92v-3.74c0-.68-.13-1.38-.8-1.38-.38,0-.76.32-.88.95-.02.14-.04.32-.04.52v3.66h-.92v-4.31Z"/>
      <path class="cls-3" d="M160.61,288.23c.2.13.56.3.94.3.53,0,.85-.32.85-.84,0-.44-.16-.74-.74-1.14-.76-.49-1.16-.98-1.16-1.65,0-.94.7-1.61,1.59-1.61.46,0,.8.16,1.04.3l-.25.7c-.22-.14-.47-.25-.77-.25-.5,0-.76.36-.76.73,0,.4.14.61.72,1.01.67.43,1.2.96,1.2,1.76,0,1.16-.79,1.73-1.74,1.73-.43,0-.9-.13-1.15-.34l.23-.7Z"/>
      <path class="cls-3" d="M164.88,286.37c.01,1.78.71,2.16,1.38,2.16.4,0,.73-.1.96-.23l.14.68c-.32.18-.82.28-1.27.28-1.39,0-2.11-1.14-2.11-2.91,0-1.88.79-3.06,1.96-3.06s1.66,1.25,1.66,2.57c0,.22,0,.37-.01.52h-2.7ZM166.7,285.68c.03-1.16-.42-1.68-.86-1.68-.6,0-.91.89-.95,1.68h1.81Z"/>
      <path class="cls-3" d="M168.58,284.88c0-.49-.04-1.07-.05-1.5h.83l.05.91h.02c.19-.55.68-1.01,1.22-1.01.07,0,.13.01.19.01v.95c-.06-.01-.12-.01-.19-.01-.59,0-1.02.54-1.12,1.21-.02.16-.04.34-.04.53v3.21h-.92v-4.31Z"/>
      <path class="cls-3" d="M176.94,280.89v6.91c0,.4.04,1.05.05,1.39h-.79l-.06-.73h-.04c-.19.42-.6.83-1.21.83-.98,0-1.69-1.07-1.69-2.97,0-2.06.85-3.02,1.75-3.02.42,0,.83.2,1.06.7h.02v-3.09h.91ZM176.03,285.59c0-.12,0-.25-.01-.38-.06-.6-.42-1.13-.86-1.13-.77,0-1.03,1.07-1.03,2.23,0,1.22.31,2.21.98,2.21.29,0,.68-.16.89-1,.02-.11.04-.24.04-.38v-1.55Z"/>
      <path class="cls-3" d="M178.88,286.37c.01,1.78.71,2.16,1.38,2.16.39,0,.73-.1.96-.23l.14.68c-.32.18-.82.28-1.27.28-1.39,0-2.11-1.14-2.11-2.91,0-1.88.79-3.06,1.96-3.06s1.65,1.25,1.65,2.57c0,.22,0,.37-.01.52h-2.7ZM180.71,285.68c.02-1.16-.42-1.68-.86-1.68-.6,0-.91.89-.95,1.68h1.81Z"/>
    </g>
    <g>
      <path class="cls-4" d="M117.73,288.59h-.04c-.19.4-.59.7-1.12.7-.94,0-1.68-1.02-1.68-2.93,0-2.05.86-3.07,1.82-3.07.37,0,.8.17,1.08.77h.02s.05-.67.05-.67h.83c-.02.41-.05.92-.05,1.81v6.3h-.92v-2.9ZM117.73,285.55c0-.12,0-.28-.02-.38-.07-.61-.43-1.09-.84-1.09-.76,0-1.04,1.01-1.04,2.23s.31,2.21,1.02,2.21c.29,0,.65-.17.84-.97.05-.14.05-.34.05-.49v-1.5Z"/>
      <path class="cls-4" d="M123.42,287.6c0,.65.04,1.15.05,1.58h-.8l-.06-.61h-.03c-.18.29-.62.71-1.25.71-1.02,0-1.42-.79-1.42-2.23v-3.67h.92v3.54c0,.91.14,1.58.78,1.58.54,0,.78-.5.83-.77.04-.16.05-.34.05-.53v-3.83h.92v4.22Z"/>
      <path class="cls-4" d="M125.36,286.37c.01,1.78.71,2.16,1.38,2.16.4,0,.73-.1.96-.23l.14.68c-.32.18-.82.28-1.27.28-1.39,0-2.11-1.14-2.11-2.91,0-1.88.79-3.06,1.96-3.06s1.66,1.25,1.66,2.57c0,.22,0,.37-.01.52h-2.7ZM127.19,285.68c.03-1.16-.42-1.68-.86-1.68-.6,0-.91.89-.95,1.68h1.81Z"/>
      <path class="cls-4" d="M130.94,285.19c0-.89-.04-1.4-.05-1.81h.83l.05.74h.02c.31-.62.77-.84,1.22-.84,1.01,0,1.68,1.08,1.68,2.99,0,2.15-.89,3.01-1.8,3.01-.54,0-.85-.35-1.01-.67h-.02v2.88h-.92v-6.3ZM131.87,287.05c0,.18,0,.35.04.48.18.83.6.98.85.98.77,0,1.01-1.05,1.01-2.23s-.29-2.21-1.02-2.21c-.42,0-.79.53-.85,1.06-.02.14-.02.29-.02.44v1.47Z"/>
      <path class="cls-4" d="M139.22,287.6c0,.65.04,1.15.05,1.58h-.8l-.06-.61h-.02c-.18.29-.62.71-1.25.71-1.02,0-1.41-.79-1.41-2.23v-3.67h.92v3.54c0,.91.14,1.58.78,1.58.54,0,.78-.5.83-.77.04-.16.05-.34.05-.53v-3.83h.92v4.22Z"/>
      <path class="cls-4" d="M141.17,286.37c.01,1.78.71,2.16,1.38,2.16.39,0,.73-.1.96-.23l.14.68c-.32.18-.82.28-1.27.28-1.39,0-2.11-1.14-2.11-2.91,0-1.88.79-3.06,1.96-3.06s1.65,1.25,1.65,2.57c0,.22,0,.37-.01.52h-2.7ZM142.99,285.68c.02-1.16-.42-1.68-.86-1.68-.6,0-.91.89-.95,1.68h1.81Z"/>
      <path class="cls-4" d="M148.37,280.89v6.91c0,.4.04,1.05.05,1.39h-.79l-.06-.73h-.04c-.19.42-.6.83-1.21.83-.98,0-1.69-1.07-1.69-2.97,0-2.06.85-3.02,1.75-3.02.42,0,.83.2,1.05.7h.03v-3.09h.91ZM147.46,285.59c0-.12,0-.25-.01-.38-.06-.6-.42-1.13-.86-1.13-.77,0-1.03,1.07-1.03,2.23,0,1.22.31,2.21.98,2.21.29,0,.68-.16.89-1,.02-.11.04-.24.04-.38v-1.55Z"/>
      <path class="cls-4" d="M150.31,286.37c.01,1.78.71,2.16,1.38,2.16.4,0,.73-.1.96-.23l.14.68c-.32.18-.82.28-1.27.28-1.39,0-2.11-1.14-2.11-2.91,0-1.88.79-3.06,1.96-3.06s1.66,1.25,1.66,2.57c0,.22,0,.37-.01.52h-2.7ZM152.13,285.68c.03-1.16-.42-1.68-.86-1.68-.6,0-.91.89-.95,1.68h1.81Z"/>
      <path class="cls-4" d="M154.02,284.88c0-.68-.04-1.03-.05-1.5h.8l.05.7h.03c.25-.47.72-.79,1.33-.79.8,0,1.4.6,1.4,2v3.9h-.92v-3.74c0-.68-.13-1.38-.8-1.38-.38,0-.76.32-.88.95-.02.14-.04.32-.04.52v3.66h-.92v-4.31Z"/>
      <path class="cls-4" d="M160.61,288.23c.2.13.56.3.94.3.53,0,.85-.32.85-.84,0-.44-.16-.74-.74-1.14-.76-.49-1.16-.98-1.16-1.65,0-.94.7-1.61,1.59-1.61.46,0,.8.16,1.04.3l-.25.7c-.22-.14-.47-.25-.77-.25-.5,0-.76.36-.76.73,0,.4.14.61.72,1.01.67.43,1.2.96,1.2,1.76,0,1.16-.79,1.73-1.74,1.73-.43,0-.9-.13-1.15-.34l.23-.7Z"/>
      <path class="cls-4" d="M164.88,286.37c.01,1.78.71,2.16,1.38,2.16.4,0,.73-.1.96-.23l.14.68c-.32.18-.82.28-1.27.28-1.39,0-2.11-1.14-2.11-2.91,0-1.88.79-3.06,1.96-3.06s1.66,1.25,1.66,2.57c0,.22,0,.37-.01.52h-2.7ZM166.7,285.68c.03-1.16-.42-1.68-.86-1.68-.6,0-.91.89-.95,1.68h1.81Z"/>
      <path class="cls-4" d="M168.58,284.88c0-.49-.04-1.07-.05-1.5h.83l.05.91h.02c.19-.55.68-1.01,1.22-1.01.07,0,.13.01.19.01v.95c-.06-.01-.12-.01-.19-.01-.59,0-1.02.54-1.12,1.21-.02.16-.04.34-.04.53v3.21h-.92v-4.31Z"/>
      <path class="cls-4" d="M176.94,280.89v6.91c0,.4.04,1.05.05,1.39h-.79l-.06-.73h-.04c-.19.42-.6.83-1.21.83-.98,0-1.69-1.07-1.69-2.97,0-2.06.85-3.02,1.75-3.02.42,0,.83.2,1.06.7h.02v-3.09h.91ZM176.03,285.59c0-.12,0-.25-.01-.38-.06-.6-.42-1.13-.86-1.13-.77,0-1.03,1.07-1.03,2.23,0,1.22.31,2.21.98,2.21.29,0,.68-.16.89-1,.02-.11.04-.24.04-.38v-1.55Z"/>
      <path class="cls-4" d="M178.88,286.37c.01,1.78.71,2.16,1.38,2.16.39,0,.73-.1.96-.23l.14.68c-.32.18-.82.28-1.27.28-1.39,0-2.11-1.14-2.11-2.91,0-1.88.79-3.06,1.96-3.06s1.65,1.25,1.65,2.57c0,.22,0,.37-.01.52h-2.7ZM180.71,285.68c.02-1.16-.42-1.68-.86-1.68-.6,0-.91.89-.95,1.68h1.81Z"/>
    </g>
    <g>
      <path class="cls-4" d="M117.73,288.59h-.04c-.19.4-.59.7-1.12.7-.94,0-1.68-1.02-1.68-2.93,0-2.05.86-3.07,1.82-3.07.37,0,.8.17,1.08.77h.02s.05-.67.05-.67h.83c-.02.41-.05.92-.05,1.81v6.3h-.92v-2.9ZM117.73,285.55c0-.12,0-.28-.02-.38-.07-.61-.43-1.09-.84-1.09-.76,0-1.04,1.01-1.04,2.23s.31,2.21,1.02,2.21c.29,0,.65-.17.84-.97.05-.14.05-.34.05-.49v-1.5Z"/>
      <path class="cls-4" d="M123.42,287.6c0,.65.04,1.15.05,1.58h-.8l-.06-.61h-.03c-.18.29-.62.71-1.25.71-1.02,0-1.42-.79-1.42-2.23v-3.67h.92v3.54c0,.91.14,1.58.78,1.58.54,0,.78-.5.83-.77.04-.16.05-.34.05-.53v-3.83h.92v4.22Z"/>
      <path class="cls-4" d="M125.36,286.37c.01,1.78.71,2.16,1.38,2.16.4,0,.73-.1.96-.23l.14.68c-.32.18-.82.28-1.27.28-1.39,0-2.11-1.14-2.11-2.91,0-1.88.79-3.06,1.96-3.06s1.66,1.25,1.66,2.57c0,.22,0,.37-.01.52h-2.7ZM127.19,285.68c.03-1.16-.42-1.68-.86-1.68-.6,0-.91.89-.95,1.68h1.81Z"/>
      <path class="cls-4" d="M130.94,285.19c0-.89-.04-1.4-.05-1.81h.83l.05.74h.02c.31-.62.77-.84,1.22-.84,1.01,0,1.68,1.08,1.68,2.99,0,2.15-.89,3.01-1.8,3.01-.54,0-.85-.35-1.01-.67h-.02v2.88h-.92v-6.3ZM131.87,287.05c0,.18,0,.35.04.48.18.83.6.98.85.98.77,0,1.01-1.05,1.01-2.23s-.29-2.21-1.02-2.21c-.42,0-.79.53-.85,1.06-.02.14-.02.29-.02.44v1.47Z"/>
      <path class="cls-4" d="M139.22,287.6c0,.65.04,1.15.05,1.58h-.8l-.06-.61h-.02c-.18.29-.62.71-1.25.71-1.02,0-1.41-.79-1.41-2.23v-3.67h.92v3.54c0,.91.14,1.58.78,1.58.54,0,.78-.5.83-.77.04-.16.05-.34.05-.53v-3.83h.92v4.22Z"/>
      <path class="cls-4" d="M141.17,286.37c.01,1.78.71,2.16,1.38,2.16.39,0,.73-.1.96-.23l.14.68c-.32.18-.82.28-1.27.28-1.39,0-2.11-1.14-2.11-2.91,0-1.88.79-3.06,1.96-3.06s1.65,1.25,1.65,2.57c0,.22,0,.37-.01.52h-2.7ZM142.99,285.68c.02-1.16-.42-1.68-.86-1.68-.6,0-.91.89-.95,1.68h1.81Z"/>
      <path class="cls-4" d="M148.37,280.89v6.91c0,.4.04,1.05.05,1.39h-.79l-.06-.73h-.04c-.19.42-.6.83-1.21.83-.98,0-1.69-1.07-1.69-2.97,0-2.06.85-3.02,1.75-3.02.42,0,.83.2,1.05.7h.03v-3.09h.91ZM147.46,285.59c0-.12,0-.25-.01-.38-.06-.6-.42-1.13-.86-1.13-.77,0-1.03,1.07-1.03,2.23,0,1.22.31,2.21.98,2.21.29,0,.68-.16.89-1,.02-.11.04-.24.04-.38v-1.55Z"/>
      <path class="cls-4" d="M150.31,286.37c.01,1.78.71,2.16,1.38,2.16.4,0,.73-.1.96-.23l.14.68c-.32.18-.82.28-1.27.28-1.39,0-2.11-1.14-2.11-2.91,0-1.88.79-3.06,1.96-3.06s1.66,1.25,1.66,2.57c0,.22,0,.37-.01.52h-2.7ZM152.13,285.68c.03-1.16-.42-1.68-.86-1.68-.6,0-.91.89-.95,1.68h1.81Z"/>
      <path class="cls-4" d="M154.02,284.88c0-.68-.04-1.03-.05-1.5h.8l.05.7h.03c.25-.47.72-.79,1.33-.79.8,0,1.4.6,1.4,2v3.9h-.92v-3.74c0-.68-.13-1.38-.8-1.38-.38,0-.76.32-.88.95-.02.14-.04.32-.04.52v3.66h-.92v-4.31Z"/>
      <path class="cls-4" d="M160.61,288.23c.2.13.56.3.94.3.53,0,.85-.32.85-.84,0-.44-.16-.74-.74-1.14-.76-.49-1.16-.98-1.16-1.65,0-.94.7-1.61,1.59-1.61.46,0,.8.16,1.04.3l-.25.7c-.22-.14-.47-.25-.77-.25-.5,0-.76.36-.76.73,0,.4.14.61.72,1.01.67.43,1.2.96,1.2,1.76,0,1.16-.79,1.73-1.74,1.73-.43,0-.9-.13-1.15-.34l.23-.7Z"/>
      <path class="cls-4" d="M164.88,286.37c.01,1.78.71,2.16,1.38,2.16.4,0,.73-.1.96-.23l.14.68c-.32.18-.82.28-1.27.28-1.39,0-2.11-1.14-2.11-2.91,0-1.88.79-3.06,1.96-3.06s1.66,1.25,1.66,2.57c0,.22,0,.37-.01.52h-2.7ZM166.7,285.68c.03-1.16-.42-1.68-.86-1.68-.6,0-.91.89-.95,1.68h1.81Z"/>
      <path class="cls-4" d="M168.58,284.88c0-.49-.04-1.07-.05-1.5h.83l.05.91h.02c.19-.55.68-1.01,1.22-1.01.07,0,.13.01.19.01v.95c-.06-.01-.12-.01-.19-.01-.59,0-1.02.54-1.12,1.21-.02.16-.04.34-.04.53v3.21h-.92v-4.31Z"/>
      <path class="cls-4" d="M176.94,280.89v6.91c0,.4.04,1.05.05,1.39h-.79l-.06-.73h-.04c-.19.42-.6.83-1.21.83-.98,0-1.69-1.07-1.69-2.97,0-2.06.85-3.02,1.75-3.02.42,0,.83.2,1.06.7h.02v-3.09h.91ZM176.03,285.59c0-.12,0-.25-.01-.38-.06-.6-.42-1.13-.86-1.13-.77,0-1.03,1.07-1.03,2.23,0,1.22.31,2.21.98,2.21.29,0,.68-.16.89-1,.02-.11.04-.24.04-.38v-1.55Z"/>
      <path class="cls-4" d="M178.88,286.37c.01,1.78.71,2.16,1.38,2.16.39,0,.73-.1.96-.23l.14.68c-.32.18-.82.28-1.27.28-1.39,0-2.11-1.14-2.11-2.91,0-1.88.79-3.06,1.96-3.06s1.65,1.25,1.65,2.57c0,.22,0,.37-.01.52h-2.7ZM180.71,285.68c.02-1.16-.42-1.68-.86-1.68-.6,0-.91.89-.95,1.68h1.81Z"/>
    </g>
  </g>
  <g>
    <path class="cls-4" d="M81.19,415.64h1.23v9.75h3.04v1.04h-4.27v-10.79Z"/>
    <path class="cls-4" d="M88.03,423.2l-.72,3.23h-1.18l2.46-10.79h1.36l2.4,10.79h-1.22l-.72-3.23h-2.38ZM90.26,422.2l-.56-2.74c-.16-.77-.3-1.67-.43-2.46h-.06c-.13.82-.29,1.74-.43,2.46l-.56,2.74h2.05Z"/>
    <path class="cls-4" d="M93.46,425c.37.24,1.01.43,1.55.43,1.12,0,1.79-.74,1.79-1.83,0-.99-.58-1.6-1.43-2.24-.85-.59-2.03-1.6-2.03-2.99,0-1.63,1.14-2.83,2.85-2.83.67,0,1.27.21,1.52.4l-.3,1.06c-.27-.19-.72-.37-1.28-.37-1.06,0-1.55.8-1.55,1.54,0,1.07.56,1.49,1.58,2.22,1.3.91,1.87,1.91,1.87,3.11,0,1.86-1.31,3.03-3.03,3.03-.74,0-1.52-.24-1.82-.46l.27-1.06Z"/>
    <path class="cls-4" d="M101.99,415.8c.48-.14,1.04-.21,1.67-.21,1.14,0,1.94.29,2.53.82.83.72,1.46,2.11,1.46,4.37,0,2.46-.61,3.81-1.29,4.55-.71.8-1.73,1.17-2.98,1.17-.5,0-1.01-.03-1.38-.11v-10.58ZM103.22,425.42c.18.03.35.03.46.03,1.36,0,2.67-.98,2.67-4.64,0-2.72-.83-4.21-2.56-4.21-.19,0-.42.02-.58.06v8.76Z"/>
    <path class="cls-4" d="M113.04,421.31h-2.71v4.05h3.07v1.07h-4.31v-10.79h4.11v1.07h-2.88v3.55h2.71v1.04Z"/>
    <path class="cls-4" d="M114.77,426.43v-10.79h1.17l1.98,5.06c.45,1.15,1.01,2.59,1.38,3.76h.03c-.1-1.7-.14-3.09-.14-4.96v-3.86h1.11v10.79h-1.17l-2.05-5.19c-.43-1.09-.9-2.32-1.28-3.67h-.03c.1,1.44.13,2.82.13,5.12v3.73h-1.12Z"/>
    <path class="cls-4" d="M123.47,416.74h-1.97v-1.1h5.17v1.1h-1.97v9.68h-1.23v-9.68Z"/>
    <path class="cls-4" d="M128.45,423.2l-.72,3.23h-1.18l2.46-10.79h1.36l2.4,10.79h-1.22l-.72-3.23h-2.38ZM130.68,422.2l-.56-2.74c-.16-.77-.3-1.67-.43-2.46h-.06c-.13.82-.29,1.74-.43,2.46l-.56,2.74h2.05Z"/>
    <path class="cls-4" d="M134.11,415.8c.48-.14,1.04-.21,1.67-.21,1.14,0,1.94.29,2.53.82.83.72,1.46,2.11,1.46,4.37,0,2.46-.61,3.81-1.29,4.55-.71.8-1.73,1.17-2.98,1.17-.5,0-1.01-.03-1.38-.11v-10.58ZM135.35,425.42c.18.03.35.03.46.03,1.36,0,2.67-.98,2.67-4.64,0-2.72-.83-4.21-2.56-4.21-.19,0-.42.02-.58.06v8.76Z"/>
    <path class="cls-4" d="M142.45,415.64v7.24c0,1.94.64,2.59,1.47,2.59.91,0,1.49-.7,1.49-2.59v-7.24h1.23v7.04c0,2.8-1.15,3.87-2.75,3.87s-2.67-1.06-2.67-3.73v-7.19h1.23Z"/>
    <path class="cls-4" d="M148.54,415.8c.53-.14,1.17-.21,1.78-.21,1.07,0,1.87.22,2.43.77.53.54.75,1.26.75,2.11,0,1.38-.64,2.27-1.73,2.77v.03c.8.24,1.22,1.01,1.46,2.42.24,1.49.46,2.4.61,2.74h-1.25c-.16-.32-.37-1.34-.58-2.67-.24-1.47-.71-2.03-1.76-2.03h-.48v4.71h-1.23v-10.63ZM149.78,420.78h.51c1.18,0,1.97-.86,1.97-2.16s-.51-2.02-1.84-2.03c-.24,0-.48.02-.64.06v4.13Z"/>
    <path class="cls-4" d="M156.48,423.2l-.72,3.23h-1.18l2.46-10.79h1.36l2.4,10.79h-1.22l-.72-3.23h-2.38ZM158.71,422.2l-.56-2.74c-.16-.77-.3-1.67-.43-2.46h-.06c-.13.82-.29,1.74-.43,2.46l-.56,2.74h2.05Z"/>
    <path class="cls-4" d="M161.91,425c.37.24,1.01.43,1.55.43,1.12,0,1.79-.74,1.79-1.83,0-.99-.58-1.6-1.43-2.24-.85-.59-2.03-1.6-2.03-2.99,0-1.63,1.14-2.83,2.85-2.83.67,0,1.27.21,1.52.4l-.3,1.06c-.27-.19-.72-.37-1.28-.37-1.06,0-1.55.8-1.55,1.54,0,1.07.56,1.49,1.58,2.22,1.3.91,1.87,1.91,1.87,3.11,0,1.86-1.31,3.03-3.03,3.03-.74,0-1.52-.24-1.82-.46l.27-1.06Z"/>
    <path class="cls-4" d="M170.43,415.8c.5-.13,1.09-.21,1.79-.21.99,0,1.82.24,2.38.8.53.51.8,1.3.8,2.22,0,.99-.24,1.67-.66,2.21-.59.8-1.59,1.2-2.54,1.2-.21,0-.37,0-.54-.02v4.42h-1.23v-10.63ZM171.67,420.97c.14.03.27.05.48.05,1.22,0,2.03-.8,2.03-2.32,0-1.1-.46-2.1-1.83-2.1-.29,0-.53.03-.69.08v4.29Z"/>
    <path class="cls-4" d="M182.48,420.95c0,4.05-1.39,5.6-3.12,5.6s-2.99-1.91-2.99-5.54,1.28-5.51,3.17-5.51,2.95,2,2.95,5.44ZM177.65,421.03c0,2.22.43,4.43,1.79,4.43s1.76-2.35,1.76-4.47-.37-4.4-1.78-4.4-1.78,2.24-1.78,4.43Z"/>
    <path class="cls-4" d="M183.71,425c.37.24,1.01.43,1.55.43,1.12,0,1.79-.74,1.79-1.83,0-.99-.58-1.6-1.43-2.24-.85-.59-2.03-1.6-2.03-2.99,0-1.63,1.14-2.83,2.85-2.83.67,0,1.27.21,1.52.4l-.3,1.06c-.27-.19-.72-.37-1.28-.37-1.06,0-1.55.8-1.55,1.54,0,1.07.56,1.49,1.58,2.22,1.3.91,1.87,1.91,1.87,3.11,0,1.86-1.31,3.03-3.03,3.03-.74,0-1.52-.24-1.82-.46l.27-1.06Z"/>
    <path class="cls-4" d="M190.99,416.74h-1.97v-1.1h5.17v1.1h-1.97v9.68h-1.23v-9.68Z"/>
    <path class="cls-4" d="M196.63,415.64v10.79h-1.23v-10.79h1.23Z"/>
    <path class="cls-4" d="M197.94,425.69l3.7-8.95v-.05h-3.39v-1.06h4.77v.83l-3.63,8.85v.05h3.62v1.06h-5.06v-.74Z"/>
    <path class="cls-4" d="M205.75,423.2l-.72,3.23h-1.18l2.46-10.79h1.36l2.4,10.79h-1.22l-.72-3.23h-2.38ZM207.97,422.2l-.56-2.74c-.16-.77-.3-1.67-.43-2.46h-.06c-.13.82-.29,1.74-.43,2.46l-.56,2.74h2.05Z"/>
    <path class="cls-4" d="M211.17,425c.37.24,1.01.43,1.55.43,1.12,0,1.79-.74,1.79-1.83,0-.99-.58-1.6-1.43-2.24-.85-.59-2.03-1.6-2.03-2.99,0-1.63,1.14-2.83,2.85-2.83.67,0,1.27.21,1.52.4l-.3,1.06c-.27-.19-.72-.37-1.28-.37-1.06,0-1.55.8-1.55,1.54,0,1.07.56,1.49,1.58,2.22,1.3.91,1.87,1.91,1.87,3.11,0,1.86-1.31,3.03-3.03,3.03-.74,0-1.52-.24-1.82-.46l.27-1.06Z"/>
  </g>
  <rect class="cls-2" x="73.44" y="408.37" width="149.57" height="25.34" rx="7.06" ry="7.06"/>
  <line class="cls-2" x1="148.22" y1="433.71" x2="148.22" y2="475.6"/>
  <g>
    <g>
      <path class="cls-3" d="M99.03,454.7c0-.68-.04-1.03-.05-1.5h.8l.05.7h.02c.25-.47.72-.79,1.33-.79.8,0,1.4.6,1.4,2v3.9h-.92v-3.74c0-.68-.13-1.38-.8-1.38-.38,0-.76.32-.88.95-.03.14-.04.32-.04.52v3.66h-.92v-4.31Z"/>
      <path class="cls-3" d="M104.54,456.18c.01,1.77.71,2.16,1.38,2.16.39,0,.73-.1.96-.23l.14.68c-.32.18-.82.28-1.27.28-1.39,0-2.11-1.14-2.11-2.91,0-1.88.79-3.06,1.96-3.06s1.65,1.25,1.65,2.57c0,.22,0,.37-.01.52h-2.7ZM106.36,455.5c.02-1.16-.42-1.68-.86-1.68-.6,0-.91.89-.95,1.68h1.81Z"/>
      <path class="cls-3" d="M111.08,458.86c-.2.12-.55.22-.96.22-1.27,0-2.12-1.02-2.12-2.94,0-1.67.84-3.02,2.29-3.02.31,0,.65.08.81.18l-.18.76c-.12-.06-.36-.16-.66-.16-.92,0-1.34,1.1-1.34,2.24,0,1.35.52,2.17,1.37,2.17.25,0,.46-.06.67-.16l.12.71Z"/>
      <path class="cls-3" d="M112.45,456.18c.01,1.77.71,2.16,1.38,2.16.4,0,.73-.1.96-.23l.14.68c-.32.18-.82.28-1.27.28-1.39,0-2.11-1.14-2.11-2.91,0-1.88.79-3.06,1.96-3.06s1.66,1.25,1.66,2.57c0,.22,0,.37-.01.52h-2.7ZM114.27,455.5c.03-1.16-.42-1.68-.86-1.68-.6,0-.91.89-.95,1.68h1.81Z"/>
      <path class="cls-3" d="M116,458.04c.2.13.56.3.94.3.53,0,.85-.32.85-.84,0-.44-.16-.74-.74-1.14-.76-.49-1.16-.98-1.16-1.66,0-.94.7-1.61,1.59-1.61.46,0,.8.16,1.04.3l-.25.7c-.22-.14-.47-.25-.77-.25-.5,0-.76.36-.76.73,0,.4.14.61.72,1.01.67.43,1.2.96,1.2,1.76,0,1.16-.79,1.73-1.74,1.73-.43,0-.9-.13-1.15-.33l.23-.7Z"/>
      <path class="cls-3" d="M121.91,459l-.06-.61h-.04c-.25.44-.66.71-1.15.71-.78,0-1.38-.66-1.38-1.66,0-1.45,1.16-2.1,2.47-2.11v-.18c0-.78-.19-1.32-.92-1.32-.36,0-.68.12-.96.3l-.2-.65c.24-.18.78-.38,1.36-.38,1.16,0,1.67.77,1.67,2.08v2.51c0,.44,0,.95.06,1.32h-.84ZM121.78,456c-.48,0-1.6.08-1.6,1.34,0,.76.38,1.03.71,1.03.41,0,.76-.3.86-.88.03-.11.03-.23.03-.32v-1.18Z"/>
      <path class="cls-3" d="M123.98,454.7c0-.49-.04-1.07-.05-1.5h.83l.05.91h.03c.19-.55.68-1.01,1.22-1.01.07,0,.13.01.19.01v.95c-.06-.01-.12-.01-.19-.01-.59,0-1.02.54-1.12,1.21-.02.16-.04.34-.04.53v3.21h-.92v-4.31Z"/>
      <path class="cls-3" d="M127.96,451.7c.01.36-.22.6-.56.6-.3,0-.53-.24-.53-.6s.24-.6.54-.6c.33,0,.55.24.55.6ZM126.97,459v-5.8h.92v5.8h-.92Z"/>
      <path class="cls-3" d="M131.47,459l-.06-.61h-.04c-.25.44-.66.71-1.15.71-.78,0-1.38-.66-1.38-1.66,0-1.45,1.16-2.1,2.47-2.11v-.18c0-.78-.19-1.32-.92-1.32-.36,0-.68.12-.96.3l-.21-.65c.24-.18.78-.38,1.36-.38,1.16,0,1.67.77,1.67,2.08v2.51c0,.44,0,.95.06,1.32h-.84ZM131.33,456c-.48,0-1.6.08-1.6,1.34,0,.76.38,1.03.71,1.03.41,0,.76-.3.86-.88.02-.11.02-.23.02-.32v-1.18Z"/>
      <path class="cls-3" d="M133.39,458.04c.2.13.56.3.94.3.53,0,.85-.32.85-.84,0-.44-.16-.74-.74-1.14-.76-.49-1.16-.98-1.16-1.66,0-.94.7-1.61,1.59-1.61.46,0,.8.16,1.04.3l-.25.7c-.22-.14-.47-.25-.77-.25-.5,0-.76.36-.76.73,0,.4.14.61.72,1.01.67.43,1.2.96,1.2,1.76,0,1.16-.79,1.73-1.74,1.73-.43,0-.9-.13-1.15-.33l.23-.7Z"/>
      <path class="cls-3" d="M138.88,455.01c0-.89-.04-1.4-.05-1.81h.83l.05.74h.02c.31-.62.77-.84,1.22-.84,1.01,0,1.68,1.08,1.68,2.99,0,2.15-.89,3.01-1.8,3.01-.54,0-.85-.35-1.01-.67h-.02v2.88h-.92v-6.3ZM139.81,456.87c0,.18,0,.35.04.48.18.83.6.98.85.98.77,0,1.01-1.06,1.01-2.23s-.29-2.21-1.02-2.21c-.42,0-.79.53-.85,1.06-.02.14-.02.29-.02.44v1.48Z"/>
      <path class="cls-3" d="M145.97,459l-.06-.61h-.04c-.25.44-.66.71-1.15.71-.78,0-1.38-.66-1.38-1.66,0-1.45,1.16-2.1,2.47-2.11v-.18c0-.78-.19-1.32-.92-1.32-.36,0-.68.12-.96.3l-.2-.65c.24-.18.78-.38,1.36-.38,1.16,0,1.67.77,1.67,2.08v2.51c0,.44,0,.95.06,1.32h-.84ZM145.84,456c-.48,0-1.6.08-1.6,1.34,0,.76.38,1.03.71,1.03.41,0,.76-.3.86-.88.03-.11.03-.23.03-.32v-1.18Z"/>
      <path class="cls-3" d="M148.04,454.7c0-.49-.04-1.07-.05-1.5h.83l.05.91h.03c.19-.55.68-1.01,1.22-1.01.07,0,.13.01.19.01v.95c-.06-.01-.12-.01-.19-.01-.59,0-1.02.54-1.12,1.21-.02.16-.04.34-.04.53v3.21h-.92v-4.31Z"/>
      <path class="cls-3" d="M153.25,459l-.06-.61h-.04c-.25.44-.66.71-1.15.71-.78,0-1.38-.66-1.38-1.66,0-1.45,1.16-2.1,2.47-2.11v-.18c0-.78-.19-1.32-.92-1.32-.36,0-.68.12-.96.3l-.21-.65c.24-.18.78-.38,1.36-.38,1.16,0,1.67.77,1.67,2.08v2.51c0,.44,0,.95.06,1.32h-.84ZM153.11,456c-.48,0-1.6.08-1.6,1.34,0,.76.38,1.03.71,1.03.41,0,.76-.3.86-.88.02-.11.02-.23.02-.32v-1.18Z"/>
      <path class="cls-3" d="M157.19,454.7c0-.49-.04-1.07-.05-1.5h.83l.05.91h.03c.19-.55.68-1.01,1.22-1.01.07,0,.13.01.19.01v.95c-.06-.01-.12-.01-.19-.01-.59,0-1.02.54-1.12,1.21-.02.16-.04.34-.04.53v3.21h-.92v-4.31Z"/>
      <path class="cls-3" d="M160.66,456.18c.01,1.77.71,2.16,1.38,2.16.4,0,.73-.1.96-.23l.14.68c-.32.18-.82.28-1.27.28-1.39,0-2.11-1.14-2.11-2.91,0-1.88.79-3.06,1.96-3.06s1.66,1.25,1.66,2.57c0,.22,0,.37-.01.52h-2.7ZM162.48,455.5c.03-1.16-.42-1.68-.86-1.68-.6,0-.91.89-.95,1.68h1.81Z"/>
      <path class="cls-3" d="M165.02,456.18c.01,1.77.71,2.16,1.38,2.16.39,0,.73-.1.96-.23l.14.68c-.32.18-.82.28-1.27.28-1.39,0-2.11-1.14-2.11-2.91,0-1.88.79-3.06,1.96-3.06s1.65,1.25,1.65,2.57c0,.22,0,.37-.01.52h-2.7ZM166.84,455.5c.02-1.16-.42-1.68-.86-1.68-.6,0-.91.89-.95,1.68h1.81Z"/>
      <path class="cls-3" d="M168.73,454.7c0-.68-.04-1.03-.05-1.5h.8l.05.72h.03c.25-.47.7-.82,1.31-.82.54,0,1,.26,1.21.89h.02c.16-.29.36-.52.58-.66.23-.16.5-.23.8-.23.78,0,1.39.58,1.39,2.05v3.85h-.91v-3.63c0-.76-.11-1.49-.81-1.49-.38,0-.72.32-.85.86-.03.16-.04.34-.04.53v3.73h-.91v-3.8c0-.65-.12-1.32-.8-1.32-.37,0-.76.32-.86.94-.02.16-.04.32-.04.5v3.68h-.91v-4.31Z"/>
      <path class="cls-3" d="M176.15,455.01c0-.89-.04-1.4-.05-1.81h.83l.05.74h.03c.31-.62.77-.84,1.22-.84,1.01,0,1.68,1.08,1.68,2.99,0,2.15-.89,3.01-1.8,3.01-.54,0-.85-.35-1.01-.67h-.02v2.88h-.92v-6.3ZM177.08,456.87c0,.18,0,.35.04.48.18.83.6.98.85.98.77,0,1.01-1.06,1.01-2.23s-.29-2.21-1.02-2.21c-.42,0-.79.53-.85,1.06-.02.14-.02.29-.02.44v1.48Z"/>
      <path class="cls-3" d="M180.95,450.7h.92v8.3h-.92v-8.3Z"/>
      <path class="cls-3" d="M185.54,459l-.06-.61h-.04c-.25.44-.66.71-1.15.71-.78,0-1.38-.66-1.38-1.66,0-1.45,1.16-2.1,2.47-2.11v-.18c0-.78-.19-1.32-.92-1.32-.36,0-.68.12-.96.3l-.21-.65c.24-.18.78-.38,1.36-.38,1.16,0,1.67.77,1.67,2.08v2.51c0,.44,0,.95.06,1.32h-.84ZM185.4,456c-.48,0-1.6.08-1.6,1.34,0,.76.38,1.03.71,1.03.41,0,.76-.3.86-.88.02-.11.02-.23.02-.32v-1.18Z"/>
      <path class="cls-3" d="M187.16,458.44l1.84-3.59c.15-.3.33-.6.47-.86v-.02h-2.07v-.77h3.09v.61l-1.81,3.54c-.16.3-.34.6-.47.86v.02h2.28v.77h-3.32v-.56Z"/>
      <path class="cls-3" d="M193.66,459l-.06-.61h-.04c-.25.44-.66.71-1.15.71-.78,0-1.38-.66-1.38-1.66,0-1.45,1.16-2.1,2.47-2.11v-.18c0-.78-.19-1.32-.92-1.32-.36,0-.68.12-.96.3l-.2-.65c.24-.18.78-.38,1.36-.38,1.16,0,1.67.77,1.67,2.08v2.51c0,.44,0,.95.06,1.32h-.84ZM193.53,456c-.48,0-1.6.08-1.6,1.34,0,.76.38,1.03.71,1.03.41,0,.76-.3.86-.88.03-.11.03-.23.03-.32v-1.18Z"/>
      <path class="cls-3" d="M195.73,454.7c0-.49-.04-1.07-.05-1.5h.83l.05.91h.03c.19-.55.68-1.01,1.22-1.01.07,0,.13.01.19.01v.95c-.06-.01-.12-.01-.19-.01-.59,0-1.02.54-1.12,1.21-.02.16-.04.34-.04.53v3.21h-.92v-4.31Z"/>
    </g>
    <g>
      <path class="cls-4" d="M99.03,454.7c0-.68-.04-1.03-.05-1.5h.8l.05.7h.02c.25-.47.72-.79,1.33-.79.8,0,1.4.6,1.4,2v3.9h-.92v-3.74c0-.68-.13-1.38-.8-1.38-.38,0-.76.32-.88.95-.03.14-.04.32-.04.52v3.66h-.92v-4.31Z"/>
      <path class="cls-4" d="M104.54,456.18c.01,1.77.71,2.16,1.38,2.16.39,0,.73-.1.96-.23l.14.68c-.32.18-.82.28-1.27.28-1.39,0-2.11-1.14-2.11-2.91,0-1.88.79-3.06,1.96-3.06s1.65,1.25,1.65,2.57c0,.22,0,.37-.01.52h-2.7ZM106.36,455.5c.02-1.16-.42-1.68-.86-1.68-.6,0-.91.89-.95,1.68h1.81Z"/>
      <path class="cls-4" d="M111.08,458.86c-.2.12-.55.22-.96.22-1.27,0-2.12-1.02-2.12-2.94,0-1.67.84-3.02,2.29-3.02.31,0,.65.08.81.18l-.18.76c-.12-.06-.36-.16-.66-.16-.92,0-1.34,1.1-1.34,2.24,0,1.35.52,2.17,1.37,2.17.25,0,.46-.06.67-.16l.12.71Z"/>
      <path class="cls-4" d="M112.45,456.18c.01,1.77.71,2.16,1.38,2.16.4,0,.73-.1.96-.23l.14.68c-.32.18-.82.28-1.27.28-1.39,0-2.11-1.14-2.11-2.91,0-1.88.79-3.06,1.96-3.06s1.66,1.25,1.66,2.57c0,.22,0,.37-.01.52h-2.7ZM114.27,455.5c.03-1.16-.42-1.68-.86-1.68-.6,0-.91.89-.95,1.68h1.81Z"/>
      <path class="cls-4" d="M116,458.04c.2.13.56.3.94.3.53,0,.85-.32.85-.84,0-.44-.16-.74-.74-1.14-.76-.49-1.16-.98-1.16-1.66,0-.94.7-1.61,1.59-1.61.46,0,.8.16,1.04.3l-.25.7c-.22-.14-.47-.25-.77-.25-.5,0-.76.36-.76.73,0,.4.14.61.72,1.01.67.43,1.2.96,1.2,1.76,0,1.16-.79,1.73-1.74,1.73-.43,0-.9-.13-1.15-.33l.23-.7Z"/>
      <path class="cls-4" d="M121.91,459l-.06-.61h-.04c-.25.44-.66.71-1.15.71-.78,0-1.38-.66-1.38-1.66,0-1.45,1.16-2.1,2.47-2.11v-.18c0-.78-.19-1.32-.92-1.32-.36,0-.68.12-.96.3l-.2-.65c.24-.18.78-.38,1.36-.38,1.16,0,1.67.77,1.67,2.08v2.51c0,.44,0,.95.06,1.32h-.84ZM121.78,456c-.48,0-1.6.08-1.6,1.34,0,.76.38,1.03.71,1.03.41,0,.76-.3.86-.88.03-.11.03-.23.03-.32v-1.18Z"/>
      <path class="cls-4" d="M123.98,454.7c0-.49-.04-1.07-.05-1.5h.83l.05.91h.03c.19-.55.68-1.01,1.22-1.01.07,0,.13.01.19.01v.95c-.06-.01-.12-.01-.19-.01-.59,0-1.02.54-1.12,1.21-.02.16-.04.34-.04.53v3.21h-.92v-4.31Z"/>
      <path class="cls-4" d="M127.96,451.7c.01.36-.22.6-.56.6-.3,0-.53-.24-.53-.6s.24-.6.54-.6c.33,0,.55.24.55.6ZM126.97,459v-5.8h.92v5.8h-.92Z"/>
      <path class="cls-4" d="M131.47,459l-.06-.61h-.04c-.25.44-.66.71-1.15.71-.78,0-1.38-.66-1.38-1.66,0-1.45,1.16-2.1,2.47-2.11v-.18c0-.78-.19-1.32-.92-1.32-.36,0-.68.12-.96.3l-.21-.65c.24-.18.78-.38,1.36-.38,1.16,0,1.67.77,1.67,2.08v2.51c0,.44,0,.95.06,1.32h-.84ZM131.33,456c-.48,0-1.6.08-1.6,1.34,0,.76.38,1.03.71,1.03.41,0,.76-.3.86-.88.02-.11.02-.23.02-.32v-1.18Z"/>
      <path class="cls-4" d="M133.39,458.04c.2.13.56.3.94.3.53,0,.85-.32.85-.84,0-.44-.16-.74-.74-1.14-.76-.49-1.16-.98-1.16-1.66,0-.94.7-1.61,1.59-1.61.46,0,.8.16,1.04.3l-.25.7c-.22-.14-.47-.25-.77-.25-.5,0-.76.36-.76.73,0,.4.14.61.72,1.01.67.43,1.2.96,1.2,1.76,0,1.16-.79,1.73-1.74,1.73-.43,0-.9-.13-1.15-.33l.23-.7Z"/>
      <path class="cls-4" d="M138.88,455.01c0-.89-.04-1.4-.05-1.81h.83l.05.74h.02c.31-.62.77-.84,1.22-.84,1.01,0,1.68,1.08,1.68,2.99,0,2.15-.89,3.01-1.8,3.01-.54,0-.85-.35-1.01-.67h-.02v2.88h-.92v-6.3ZM139.81,456.87c0,.18,0,.35.04.48.18.83.6.98.85.98.77,0,1.01-1.06,1.01-2.23s-.29-2.21-1.02-2.21c-.42,0-.79.53-.85,1.06-.02.14-.02.29-.02.44v1.48Z"/>
      <path class="cls-4" d="M145.97,459l-.06-.61h-.04c-.25.44-.66.71-1.15.71-.78,0-1.38-.66-1.38-1.66,0-1.45,1.16-2.1,2.47-2.11v-.18c0-.78-.19-1.32-.92-1.32-.36,0-.68.12-.96.3l-.2-.65c.24-.18.78-.38,1.36-.38,1.16,0,1.67.77,1.67,2.08v2.51c0,.44,0,.95.06,1.32h-.84ZM145.84,456c-.48,0-1.6.08-1.6,1.34,0,.76.38,1.03.71,1.03.41,0,.76-.3.86-.88.03-.11.03-.23.03-.32v-1.18Z"/>
      <path class="cls-4" d="M148.04,454.7c0-.49-.04-1.07-.05-1.5h.83l.05.91h.03c.19-.55.68-1.01,1.22-1.01.07,0,.13.01.19.01v.95c-.06-.01-.12-.01-.19-.01-.59,0-1.02.54-1.12,1.21-.02.16-.04.34-.04.53v3.21h-.92v-4.31Z"/>
      <path class="cls-4" d="M153.25,459l-.06-.61h-.04c-.25.44-.66.71-1.15.71-.78,0-1.38-.66-1.38-1.66,0-1.45,1.16-2.1,2.47-2.11v-.18c0-.78-.19-1.32-.92-1.32-.36,0-.68.12-.96.3l-.21-.65c.24-.18.78-.38,1.36-.38,1.16,0,1.67.77,1.67,2.08v2.51c0,.44,0,.95.06,1.32h-.84ZM153.11,456c-.48,0-1.6.08-1.6,1.34,0,.76.38,1.03.71,1.03.41,0,.76-.3.86-.88.02-.11.02-.23.02-.32v-1.18Z"/>
      <path class="cls-4" d="M157.19,454.7c0-.49-.04-1.07-.05-1.5h.83l.05.91h.03c.19-.55.68-1.01,1.22-1.01.07,0,.13.01.19.01v.95c-.06-.01-.12-.01-.19-.01-.59,0-1.02.54-1.12,1.21-.02.16-.04.34-.04.53v3.21h-.92v-4.31Z"/>
      <path class="cls-4" d="M160.66,456.18c.01,1.77.71,2.16,1.38,2.16.4,0,.73-.1.96-.23l.14.68c-.32.18-.82.28-1.27.28-1.39,0-2.11-1.14-2.11-2.91,0-1.88.79-3.06,1.96-3.06s1.66,1.25,1.66,2.57c0,.22,0,.37-.01.52h-2.7ZM162.48,455.5c.03-1.16-.42-1.68-.86-1.68-.6,0-.91.89-.95,1.68h1.81Z"/>
      <path class="cls-4" d="M165.02,456.18c.01,1.77.71,2.16,1.38,2.16.39,0,.73-.1.96-.23l.14.68c-.32.18-.82.28-1.27.28-1.39,0-2.11-1.14-2.11-2.91,0-1.88.79-3.06,1.96-3.06s1.65,1.25,1.65,2.57c0,.22,0,.37-.01.52h-2.7ZM166.84,455.5c.02-1.16-.42-1.68-.86-1.68-.6,0-.91.89-.95,1.68h1.81Z"/>
      <path class="cls-4" d="M168.73,454.7c0-.68-.04-1.03-.05-1.5h.8l.05.72h.03c.25-.47.7-.82,1.31-.82.54,0,1,.26,1.21.89h.02c.16-.29.36-.52.58-.66.23-.16.5-.23.8-.23.78,0,1.39.58,1.39,2.05v3.85h-.91v-3.63c0-.76-.11-1.49-.81-1.49-.38,0-.72.32-.85.86-.03.16-.04.34-.04.53v3.73h-.91v-3.8c0-.65-.12-1.32-.8-1.32-.37,0-.76.32-.86.94-.02.16-.04.32-.04.5v3.68h-.91v-4.31Z"/>
      <path class="cls-4" d="M176.15,455.01c0-.89-.04-1.4-.05-1.81h.83l.05.74h.03c.31-.62.77-.84,1.22-.84,1.01,0,1.68,1.08,1.68,2.99,0,2.15-.89,3.01-1.8,3.01-.54,0-.85-.35-1.01-.67h-.02v2.88h-.92v-6.3ZM177.08,456.87c0,.18,0,.35.04.48.18.83.6.98.85.98.77,0,1.01-1.06,1.01-2.23s-.29-2.21-1.02-2.21c-.42,0-.79.53-.85,1.06-.02.14-.02.29-.02.44v1.48Z"/>
      <path class="cls-4" d="M180.95,450.7h.92v8.3h-.92v-8.3Z"/>
      <path class="cls-4" d="M185.54,459l-.06-.61h-.04c-.25.44-.66.71-1.15.71-.78,0-1.38-.66-1.38-1.66,0-1.45,1.16-2.1,2.47-2.11v-.18c0-.78-.19-1.32-.92-1.32-.36,0-.68.12-.96.3l-.21-.65c.24-.18.78-.38,1.36-.38,1.16,0,1.67.77,1.67,2.08v2.51c0,.44,0,.95.06,1.32h-.84ZM185.4,456c-.48,0-1.6.08-1.6,1.34,0,.76.38,1.03.71,1.03.41,0,.76-.3.86-.88.02-.11.02-.23.02-.32v-1.18Z"/>
      <path class="cls-4" d="M187.16,458.44l1.84-3.59c.15-.3.33-.6.47-.86v-.02h-2.07v-.77h3.09v.61l-1.81,3.54c-.16.3-.34.6-.47.86v.02h2.28v.77h-3.32v-.56Z"/>
      <path class="cls-4" d="M193.66,459l-.06-.61h-.04c-.25.44-.66.71-1.15.71-.78,0-1.38-.66-1.38-1.66,0-1.45,1.16-2.1,2.47-2.11v-.18c0-.78-.19-1.32-.92-1.32-.36,0-.68.12-.96.3l-.2-.65c.24-.18.78-.38,1.36-.38,1.16,0,1.67.77,1.67,2.08v2.51c0,.44,0,.95.06,1.32h-.84ZM193.53,456c-.48,0-1.6.08-1.6,1.34,0,.76.38,1.03.71,1.03.41,0,.76-.3.86-.88.03-.11.03-.23.03-.32v-1.18Z"/>
      <path class="cls-4" d="M195.73,454.7c0-.49-.04-1.07-.05-1.5h.83l.05.91h.03c.19-.55.68-1.01,1.22-1.01.07,0,.13.01.19.01v.95c-.06-.01-.12-.01-.19-.01-.59,0-1.02.54-1.12,1.21-.02.16-.04.34-.04.53v3.21h-.92v-4.31Z"/>
    </g>
    <g>
      <path class="cls-4" d="M99.03,454.7c0-.68-.04-1.03-.05-1.5h.8l.05.7h.02c.25-.47.72-.79,1.33-.79.8,0,1.4.6,1.4,2v3.9h-.92v-3.74c0-.68-.13-1.38-.8-1.38-.38,0-.76.32-.88.95-.03.14-.04.32-.04.52v3.66h-.92v-4.31Z"/>
      <path class="cls-4" d="M104.54,456.18c.01,1.77.71,2.16,1.38,2.16.39,0,.73-.1.96-.23l.14.68c-.32.18-.82.28-1.27.28-1.39,0-2.11-1.14-2.11-2.91,0-1.88.79-3.06,1.96-3.06s1.65,1.25,1.65,2.57c0,.22,0,.37-.01.52h-2.7ZM106.36,455.5c.02-1.16-.42-1.68-.86-1.68-.6,0-.91.89-.95,1.68h1.81Z"/>
      <path class="cls-4" d="M111.08,458.86c-.2.12-.55.22-.96.22-1.27,0-2.12-1.02-2.12-2.94,0-1.67.84-3.02,2.29-3.02.31,0,.65.08.81.18l-.18.76c-.12-.06-.36-.16-.66-.16-.92,0-1.34,1.1-1.34,2.24,0,1.35.52,2.17,1.37,2.17.25,0,.46-.06.67-.16l.12.71Z"/>
      <path class="cls-4" d="M112.45,456.18c.01,1.77.71,2.16,1.38,2.16.4,0,.73-.1.96-.23l.14.68c-.32.18-.82.28-1.27.28-1.39,0-2.11-1.14-2.11-2.91,0-1.88.79-3.06,1.96-3.06s1.66,1.25,1.66,2.57c0,.22,0,.37-.01.52h-2.7ZM114.27,455.5c.03-1.16-.42-1.68-.86-1.68-.6,0-.91.89-.95,1.68h1.81Z"/>
      <path class="cls-4" d="M116,458.04c.2.13.56.3.94.3.53,0,.85-.32.85-.84,0-.44-.16-.74-.74-1.14-.76-.49-1.16-.98-1.16-1.66,0-.94.7-1.61,1.59-1.61.46,0,.8.16,1.04.3l-.25.7c-.22-.14-.47-.25-.77-.25-.5,0-.76.36-.76.73,0,.4.14.61.72,1.01.67.43,1.2.96,1.2,1.76,0,1.16-.79,1.73-1.74,1.73-.43,0-.9-.13-1.15-.33l.23-.7Z"/>
      <path class="cls-4" d="M121.91,459l-.06-.61h-.04c-.25.44-.66.71-1.15.71-.78,0-1.38-.66-1.38-1.66,0-1.45,1.16-2.1,2.47-2.11v-.18c0-.78-.19-1.32-.92-1.32-.36,0-.68.12-.96.3l-.2-.65c.24-.18.78-.38,1.36-.38,1.16,0,1.67.77,1.67,2.08v2.51c0,.44,0,.95.06,1.32h-.84ZM121.78,456c-.48,0-1.6.08-1.6,1.34,0,.76.38,1.03.71,1.03.41,0,.76-.3.86-.88.03-.11.03-.23.03-.32v-1.18Z"/>
      <path class="cls-4" d="M123.98,454.7c0-.49-.04-1.07-.05-1.5h.83l.05.91h.03c.19-.55.68-1.01,1.22-1.01.07,0,.13.01.19.01v.95c-.06-.01-.12-.01-.19-.01-.59,0-1.02.54-1.12,1.21-.02.16-.04.34-.04.53v3.21h-.92v-4.31Z"/>
      <path class="cls-4" d="M127.96,451.7c.01.36-.22.6-.56.6-.3,0-.53-.24-.53-.6s.24-.6.54-.6c.33,0,.55.24.55.6ZM126.97,459v-5.8h.92v5.8h-.92Z"/>
      <path class="cls-4" d="M131.47,459l-.06-.61h-.04c-.25.44-.66.71-1.15.71-.78,0-1.38-.66-1.38-1.66,0-1.45,1.16-2.1,2.47-2.11v-.18c0-.78-.19-1.32-.92-1.32-.36,0-.68.12-.96.3l-.21-.65c.24-.18.78-.38,1.36-.38,1.16,0,1.67.77,1.67,2.08v2.51c0,.44,0,.95.06,1.32h-.84ZM131.33,456c-.48,0-1.6.08-1.6,1.34,0,.76.38,1.03.71,1.03.41,0,.76-.3.86-.88.02-.11.02-.23.02-.32v-1.18Z"/>
      <path class="cls-4" d="M133.39,458.04c.2.13.56.3.94.3.53,0,.85-.32.85-.84,0-.44-.16-.74-.74-1.14-.76-.49-1.16-.98-1.16-1.66,0-.94.7-1.61,1.59-1.61.46,0,.8.16,1.04.3l-.25.7c-.22-.14-.47-.25-.77-.25-.5,0-.76.36-.76.73,0,.4.14.61.72,1.01.67.43,1.2.96,1.2,1.76,0,1.16-.79,1.73-1.74,1.73-.43,0-.9-.13-1.15-.33l.23-.7Z"/>
      <path class="cls-4" d="M138.88,455.01c0-.89-.04-1.4-.05-1.81h.83l.05.74h.02c.31-.62.77-.84,1.22-.84,1.01,0,1.68,1.08,1.68,2.99,0,2.15-.89,3.01-1.8,3.01-.54,0-.85-.35-1.01-.67h-.02v2.88h-.92v-6.3ZM139.81,456.87c0,.18,0,.35.04.48.18.83.6.98.85.98.77,0,1.01-1.06,1.01-2.23s-.29-2.21-1.02-2.21c-.42,0-.79.53-.85,1.06-.02.14-.02.29-.02.44v1.48Z"/>
      <path class="cls-4" d="M145.97,459l-.06-.61h-.04c-.25.44-.66.71-1.15.71-.78,0-1.38-.66-1.38-1.66,0-1.45,1.16-2.1,2.47-2.11v-.18c0-.78-.19-1.32-.92-1.32-.36,0-.68.12-.96.3l-.2-.65c.24-.18.78-.38,1.36-.38,1.16,0,1.67.77,1.67,2.08v2.51c0,.44,0,.95.06,1.32h-.84ZM145.84,456c-.48,0-1.6.08-1.6,1.34,0,.76.38,1.03.71,1.03.41,0,.76-.3.86-.88.03-.11.03-.23.03-.32v-1.18Z"/>
      <path class="cls-4" d="M148.04,454.7c0-.49-.04-1.07-.05-1.5h.83l.05.91h.03c.19-.55.68-1.01,1.22-1.01.07,0,.13.01.19.01v.95c-.06-.01-.12-.01-.19-.01-.59,0-1.02.54-1.12,1.21-.02.16-.04.34-.04.53v3.21h-.92v-4.31Z"/>
      <path class="cls-4" d="M153.25,459l-.06-.61h-.04c-.25.44-.66.71-1.15.71-.78,0-1.38-.66-1.38-1.66,0-1.45,1.16-2.1,2.47-2.11v-.18c0-.78-.19-1.32-.92-1.32-.36,0-.68.12-.96.3l-.21-.65c.24-.18.78-.38,1.36-.38,1.16,0,1.67.77,1.67,2.08v2.51c0,.44,0,.95.06,1.32h-.84ZM153.11,456c-.48,0-1.6.08-1.6,1.34,0,.76.38,1.03.71,1.03.41,0,.76-.3.86-.88.02-.11.02-.23.02-.32v-1.18Z"/>
      <path class="cls-4" d="M157.19,454.7c0-.49-.04-1.07-.05-1.5h.83l.05.91h.03c.19-.55.68-1.01,1.22-1.01.07,0,.13.01.19.01v.95c-.06-.01-.12-.01-.19-.01-.59,0-1.02.54-1.12,1.21-.02.16-.04.34-.04.53v3.21h-.92v-4.31Z"/>
      <path class="cls-4" d="M160.66,456.18c.01,1.77.71,2.16,1.38,2.16.4,0,.73-.1.96-.23l.14.68c-.32.18-.82.28-1.27.28-1.39,0-2.11-1.14-2.11-2.91,0-1.88.79-3.06,1.96-3.06s1.66,1.25,1.66,2.57c0,.22,0,.37-.01.52h-2.7ZM162.48,455.5c.03-1.16-.42-1.68-.86-1.68-.6,0-.91.89-.95,1.68h1.81Z"/>
      <path class="cls-4" d="M165.02,456.18c.01,1.77.71,2.16,1.38,2.16.39,0,.73-.1.96-.23l.14.68c-.32.18-.82.28-1.27.28-1.39,0-2.11-1.14-2.11-2.91,0-1.88.79-3.06,1.96-3.06s1.65,1.25,1.65,2.57c0,.22,0,.37-.01.52h-2.7ZM166.84,455.5c.02-1.16-.42-1.68-.86-1.68-.6,0-.91.89-.95,1.68h1.81Z"/>
      <path class="cls-4" d="M168.73,454.7c0-.68-.04-1.03-.05-1.5h.8l.05.72h.03c.25-.47.7-.82,1.31-.82.54,0,1,.26,1.21.89h.02c.16-.29.36-.52.58-.66.23-.16.5-.23.8-.23.78,0,1.39.58,1.39,2.05v3.85h-.91v-3.63c0-.76-.11-1.49-.81-1.49-.38,0-.72.32-.85.86-.03.16-.04.34-.04.53v3.73h-.91v-3.8c0-.65-.12-1.32-.8-1.32-.37,0-.76.32-.86.94-.02.16-.04.32-.04.5v3.68h-.91v-4.31Z"/>
      <path class="cls-4" d="M176.15,455.01c0-.89-.04-1.4-.05-1.81h.83l.05.74h.03c.31-.62.77-.84,1.22-.84,1.01,0,1.68,1.08,1.68,2.99,0,2.15-.89,3.01-1.8,3.01-.54,0-.85-.35-1.01-.67h-.02v2.88h-.92v-6.3ZM177.08,456.87c0,.18,0,.35.04.48.18.83.6.98.85.98.77,0,1.01-1.06,1.01-2.23s-.29-2.21-1.02-2.21c-.42,0-.79.53-.85,1.06-.02.14-.02.29-.02.44v1.48Z"/>
      <path class="cls-4" d="M180.95,450.7h.92v8.3h-.92v-8.3Z"/>
      <path class="cls-4" d="M185.54,459l-.06-.61h-.04c-.25.44-.66.71-1.15.71-.78,0-1.38-.66-1.38-1.66,0-1.45,1.16-2.1,2.47-2.11v-.18c0-.78-.19-1.32-.92-1.32-.36,0-.68.12-.96.3l-.21-.65c.24-.18.78-.38,1.36-.38,1.16,0,1.67.77,1.67,2.08v2.51c0,.44,0,.95.06,1.32h-.84ZM185.4,456c-.48,0-1.6.08-1.6,1.34,0,.76.38,1.03.71,1.03.41,0,.76-.3.86-.88.02-.11.02-.23.02-.32v-1.18Z"/>
      <path class="cls-4" d="M187.16,458.44l1.84-3.59c.15-.3.33-.6.47-.86v-.02h-2.07v-.77h3.09v.61l-1.81,3.54c-.16.3-.34.6-.47.86v.02h2.28v.77h-3.32v-.56Z"/>
      <path class="cls-4" d="M193.66,459l-.06-.61h-.04c-.25.44-.66.71-1.15.71-.78,0-1.38-.66-1.38-1.66,0-1.45,1.16-2.1,2.47-2.11v-.18c0-.78-.19-1.32-.92-1.32-.36,0-.68.12-.96.3l-.2-.65c.24-.18.78-.38,1.36-.38,1.16,0,1.67.77,1.67,2.08v2.51c0,.44,0,.95.06,1.32h-.84ZM193.53,456c-.48,0-1.6.08-1.6,1.34,0,.76.38,1.03.71,1.03.41,0,.76-.3.86-.88.03-.11.03-.23.03-.32v-1.18Z"/>
      <path class="cls-4" d="M195.73,454.7c0-.49-.04-1.07-.05-1.5h.83l.05.91h.03c.19-.55.68-1.01,1.22-1.01.07,0,.13.01.19.01v.95c-.06-.01-.12-.01-.19-.01-.59,0-1.02.54-1.12,1.21-.02.16-.04.34-.04.53v3.21h-.92v-4.31Z"/>
    </g>
  </g>
  <g>
    <path class="cls-4" d="M103.71,483.04c.5-.13,1.09-.21,1.79-.21.99,0,1.83.24,2.38.8.53.51.8,1.3.8,2.23,0,.99-.24,1.66-.66,2.21-.59.8-1.58,1.2-2.54,1.2-.21,0-.37,0-.54-.02v4.42h-1.23v-10.63ZM104.95,488.21c.14.03.27.05.48.05,1.22,0,2.03-.8,2.03-2.32,0-1.1-.46-2.1-1.83-2.1-.29,0-.53.03-.69.08v4.29Z"/>
    <path class="cls-4" d="M111.33,482.88v10.79h-1.23v-10.79h1.23Z"/>
    <path class="cls-4" d="M117.22,488.54h-2.71v4.05h3.07v1.07h-4.31v-10.79h4.11v1.07h-2.88v3.55h2.71v1.04Z"/>
    <path class="cls-4" d="M118.31,492.93l3.7-8.95v-.05h-3.39v-1.06h4.77v.83l-3.63,8.85v.05h3.62v1.06h-5.06v-.74Z"/>
    <path class="cls-4" d="M126.11,490.43l-.72,3.23h-1.18l2.46-10.79h1.36l2.4,10.79h-1.22l-.72-3.23h-2.38ZM128.34,489.44l-.56-2.74c-.16-.77-.3-1.66-.43-2.46h-.06c-.13.82-.29,1.75-.43,2.46l-.56,2.74h2.05Z"/>
    <path class="cls-4" d="M131.54,492.24c.37.24,1.01.43,1.55.43,1.12,0,1.79-.74,1.79-1.83,0-.99-.58-1.6-1.42-2.24-.85-.59-2.03-1.6-2.03-2.99,0-1.63,1.14-2.83,2.85-2.83.67,0,1.26.21,1.52.4l-.3,1.06c-.27-.19-.72-.37-1.28-.37-1.06,0-1.55.8-1.55,1.54,0,1.07.56,1.49,1.58,2.22,1.3.91,1.87,1.9,1.87,3.11,0,1.86-1.31,3.03-3.03,3.03-.74,0-1.52-.24-1.82-.46l.27-1.06Z"/>
    <path class="cls-4" d="M140.06,483.04c.48-.14,1.04-.21,1.67-.21,1.14,0,1.94.29,2.53.82.83.72,1.46,2.11,1.46,4.37,0,2.47-.61,3.81-1.3,4.55-.7.8-1.73,1.17-2.98,1.17-.5,0-1.01-.03-1.38-.11v-10.58ZM141.3,492.66c.18.03.35.03.46.03,1.36,0,2.67-.98,2.67-4.64,0-2.72-.83-4.21-2.56-4.21-.19,0-.42.02-.58.06v8.76Z"/>
    <path class="cls-4" d="M151.12,488.54h-2.71v4.05h3.07v1.07h-4.31v-10.79h4.11v1.07h-2.88v3.55h2.71v1.04Z"/>
    <path class="cls-4" d="M152.85,493.66v-10.79h1.17l1.98,5.06c.45,1.15,1.01,2.59,1.38,3.76h.03c-.1-1.7-.14-3.09-.14-4.96v-3.86h1.1v10.79h-1.17l-2.05-5.19c-.43-1.09-.9-2.32-1.28-3.67h-.03c.1,1.44.13,2.82.13,5.12v3.73h-1.12Z"/>
    <path class="cls-4" d="M161.55,483.98h-1.97v-1.1h5.17v1.1h-1.97v9.68h-1.23v-9.68Z"/>
    <path class="cls-4" d="M166.53,490.43l-.72,3.23h-1.18l2.46-10.79h1.36l2.4,10.79h-1.22l-.72-3.23h-2.38ZM168.75,489.44l-.56-2.74c-.16-.77-.3-1.66-.43-2.46h-.06c-.13.82-.29,1.75-.43,2.46l-.56,2.74h2.05Z"/>
    <path class="cls-4" d="M172.19,483.04c.53-.14,1.17-.21,1.78-.21,1.07,0,1.87.22,2.43.77.53.54.75,1.26.75,2.11,0,1.38-.64,2.27-1.73,2.77v.03c.8.24,1.22,1.01,1.46,2.42.24,1.49.46,2.4.61,2.74h-1.25c-.16-.32-.37-1.34-.58-2.67-.24-1.47-.7-2.03-1.76-2.03h-.48v4.71h-1.23v-10.63ZM173.43,488.01h.51c1.18,0,1.97-.86,1.97-2.16s-.51-2.02-1.84-2.03c-.24,0-.48.02-.64.06v4.13Z"/>
    <path class="cls-4" d="M179.97,482.88v10.79h-1.23v-10.79h1.23Z"/>
    <path class="cls-4" d="M183.22,490.43l-.72,3.23h-1.18l2.46-10.79h1.36l2.4,10.79h-1.22l-.72-3.23h-2.38ZM185.44,489.44l-.56-2.74c-.16-.77-.3-1.66-.43-2.46h-.06c-.13.82-.29,1.75-.43,2.46l-.56,2.74h2.05Z"/>
    <path class="cls-4" d="M188.64,492.24c.37.24,1.01.43,1.55.43,1.12,0,1.79-.74,1.79-1.83,0-.99-.58-1.6-1.42-2.24-.85-.59-2.03-1.6-2.03-2.99,0-1.63,1.14-2.83,2.85-2.83.67,0,1.26.21,1.52.4l-.3,1.06c-.27-.19-.72-.37-1.28-.37-1.06,0-1.55.8-1.55,1.54,0,1.07.56,1.49,1.58,2.22,1.3.91,1.87,1.9,1.87,3.11,0,1.86-1.31,3.03-3.03,3.03-.74,0-1.52-.24-1.82-.46l.27-1.06Z"/>
  </g>
  <rect class="cls-2" x="97.27" y="475.6" width="101.91" height="25.34" rx="7.06" ry="7.06"/>
  <g>
    <path class="cls-4" d="M115.68,14.82h-2.46v2.91h2.79v1.82h-4.88v-10.79h4.69v1.82h-2.59v2.48h2.46v1.74Z"/>
    <path class="cls-4" d="M117.43,8.77h2.1v9.01h2.77v1.78h-4.87v-10.79Z"/>
    <path class="cls-4" d="M132.64,15.78c-.05-1.02-.13-2.42-.1-3.57h-.05c-.19,1.15-.48,2.48-.69,3.31l-.93,3.86h-1.49l-.9-3.79c-.21-.86-.5-2.21-.66-3.38h-.05c-.03,1.17-.1,2.53-.16,3.6l-.18,3.75h-1.81l.78-10.79h2.21l.87,3.91c.3,1.36.58,2.56.77,3.78h.03c.16-1.2.4-2.42.69-3.78l.85-3.91h2.21l.66,10.79h-1.87l-.19-3.78Z"/>
    <path class="cls-4" d="M142.61,13.98c0,4.07-1.44,5.71-3.49,5.71-2.45,0-3.41-2.59-3.41-5.55s1.17-5.49,3.55-5.49c2.61,0,3.35,2.87,3.35,5.33ZM137.89,14.17c0,2.45.46,3.7,1.31,3.7s1.22-1.6,1.22-3.79c0-1.89-.29-3.6-1.23-3.6-.83,0-1.3,1.38-1.3,3.7Z"/>
    <path class="cls-4" d="M143.94,8.93c.53-.13,1.3-.21,2.13-.21,1.36,0,2.3.32,2.99.96.93.83,1.41,2.26,1.41,4.35s-.56,3.73-1.51,4.56c-.72.7-1.79,1.04-3.3,1.04-.66,0-1.31-.06-1.73-.11v-10.6ZM146.03,17.9c.1.03.26.03.37.03,1.01,0,1.89-.99,1.89-3.97,0-2.21-.58-3.55-1.84-3.55-.14,0-.29,0-.42.05v7.44Z"/>
    <path class="cls-4" d="M156.35,14.82h-2.46v2.91h2.79v1.82h-4.88v-10.79h4.69v1.82h-2.59v2.48h2.46v1.74Z"/>
    <path class="cls-4" d="M158.1,8.77h2.1v9.01h2.77v1.78h-4.87v-10.79Z"/>
    <path class="cls-4" d="M166.02,17.1l-.48,2.46h-2.03l2.34-10.79h2.51l2.1,10.79h-2.03l-.46-2.46h-1.94ZM167.76,15.46l-.35-2.26c-.11-.66-.26-1.73-.35-2.45h-.05c-.11.72-.27,1.84-.38,2.47l-.4,2.24h1.54Z"/>
    <path class="cls-4" d="M171.63,8.93c.53-.13,1.3-.21,2.13-.21,1.36,0,2.3.32,2.99.96.93.83,1.41,2.26,1.41,4.35s-.56,3.73-1.51,4.56c-.72.7-1.79,1.04-3.3,1.04-.66,0-1.31-.06-1.73-.11v-10.6ZM173.73,17.9c.1.03.26.03.37.03,1.01,0,1.89-.99,1.89-3.97,0-2.21-.58-3.55-1.84-3.55-.14,0-.29,0-.42.05v7.44Z"/>
    <path class="cls-4" d="M185.86,13.98c0,4.07-1.44,5.71-3.49,5.71-2.45,0-3.41-2.59-3.41-5.55s1.17-5.49,3.55-5.49c2.61,0,3.35,2.87,3.35,5.33ZM181.14,14.17c0,2.45.46,3.7,1.31,3.7s1.22-1.6,1.22-3.79c0-1.89-.29-3.6-1.23-3.6-.83,0-1.3,1.38-1.3,3.7Z"/>
  </g>
  <rect class="cls-1" x="104.28" y="1.5" width="87.89" height="25.34" rx="7.06" ry="7.06"/>
  <line class="cls-2" x1="148.23" y1="26.84" x2="148.23" y2="68.73"/>
  <g>
    <g>
      <path class="cls-3" d="M144.91,49.32c.01,1.77.71,2.16,1.38,2.16.39,0,.73-.1.96-.23l.14.68c-.32.18-.82.28-1.27.28-1.39,0-2.11-1.14-2.11-2.91,0-1.88.79-3.06,1.96-3.06s1.65,1.25,1.65,2.57c0,.22,0,.37-.01.52h-2.7ZM146.74,48.63c.02-1.16-.42-1.68-.86-1.68-.6,0-.91.89-.95,1.68h1.81Z"/>
      <path class="cls-3" d="M148.62,47.83c0-.68-.04-1.03-.05-1.5h.8l.05.7h.03c.25-.47.72-.79,1.33-.79.8,0,1.4.6,1.4,2v3.9h-.92v-3.74c0-.68-.13-1.38-.8-1.38-.38,0-.75.32-.88.95-.02.14-.04.32-.04.52v3.66h-.92v-4.31Z"/>
    </g>
    <g>
      <path class="cls-4" d="M144.91,49.32c.01,1.77.71,2.16,1.38,2.16.39,0,.73-.1.96-.23l.14.68c-.32.18-.82.28-1.27.28-1.39,0-2.11-1.14-2.11-2.91,0-1.88.79-3.06,1.96-3.06s1.65,1.25,1.65,2.57c0,.22,0,.37-.01.52h-2.7ZM146.74,48.63c.02-1.16-.42-1.68-.86-1.68-.6,0-.91.89-.95,1.68h1.81Z"/>
      <path class="cls-4" d="M148.62,47.83c0-.68-.04-1.03-.05-1.5h.8l.05.7h.03c.25-.47.72-.79,1.33-.79.8,0,1.4.6,1.4,2v3.9h-.92v-3.74c0-.68-.13-1.38-.8-1.38-.38,0-.75.32-.88.95-.02.14-.04.32-.04.52v3.66h-.92v-4.31Z"/>
    </g>
    <g>
      <path class="cls-4" d="M144.91,49.32c.01,1.77.71,2.16,1.38,2.16.39,0,.73-.1.96-.23l.14.68c-.32.18-.82.28-1.27.28-1.39,0-2.11-1.14-2.11-2.91,0-1.88.79-3.06,1.96-3.06s1.65,1.25,1.65,2.57c0,.22,0,.37-.01.52h-2.7ZM146.74,48.63c.02-1.16-.42-1.68-.86-1.68-.6,0-.91.89-.95,1.68h1.81Z"/>
      <path class="cls-4" d="M148.62,47.83c0-.68-.04-1.03-.05-1.5h.8l.05.7h.03c.25-.47.72-.79,1.33-.79.8,0,1.4.6,1.4,2v3.9h-.92v-3.74c0-.68-.13-1.38-.8-1.38-.38,0-.75.32-.88.95-.02.14-.04.32-.04.52v3.66h-.92v-4.31Z"/>
    </g>
  </g>
  <g>
    <path class="cls-3" d="M153.51,97.94c0,3.03-1.04,4.2-2.34,4.2s-2.24-1.43-2.24-4.15.96-4.13,2.38-4.13,2.21,1.5,2.21,4.08ZM149.89,98c0,1.67.32,3.32,1.34,3.32s1.32-1.76,1.32-3.35-.28-3.3-1.33-3.3-1.33,1.68-1.33,3.32Z"/>
    <path class="cls-4" d="M153.51,97.94c0,3.03-1.04,4.2-2.34,4.2s-2.24-1.43-2.24-4.15.96-4.13,2.38-4.13,2.21,1.5,2.21,4.08ZM149.89,98c0,1.67.32,3.32,1.34,3.32s1.32-1.76,1.32-3.35-.28-3.3-1.33-3.3-1.33,1.68-1.33,3.32Z"/>
    <path class="cls-4" d="M153.51,97.94c0,3.03-1.04,4.2-2.34,4.2s-2.24-1.43-2.24-4.15.96-4.13,2.38-4.13,2.21,1.5,2.21,4.08ZM149.89,98c0,1.67.32,3.32,1.34,3.32s1.32-1.76,1.32-3.35-.28-3.3-1.33-3.3-1.33,1.68-1.33,3.32Z"/>
  </g>
  <g>
    <path class="cls-4" d="M180.47,104.28c-.34.18-.87.29-1.54.29-2.11,0-3.62-1.7-3.62-5.36,0-4.26,2.11-5.62,3.81-5.62.66,0,1.12.13,1.35.27l-.27,1.04c-.26-.11-.53-.22-1.09-.22-1.15,0-2.5,1.12-2.5,4.42s1.22,4.39,2.53,4.39c.46,0,.88-.11,1.14-.24l.19,1.04Z"/>
    <path class="cls-4" d="M185.67,99.35h-2.71v4.05h3.07v1.07h-4.31v-10.79h4.11v1.07h-2.88v3.55h2.71v1.04Z"/>
    <path class="cls-4" d="M187.39,93.84c.53-.14,1.17-.21,1.78-.21,1.07,0,1.87.22,2.43.77.53.54.75,1.26.75,2.11,0,1.38-.64,2.27-1.73,2.77v.03c.8.24,1.22,1.01,1.46,2.42.24,1.49.46,2.4.61,2.74h-1.25c-.16-.32-.37-1.34-.58-2.67-.24-1.47-.7-2.03-1.76-2.03h-.48v4.71h-1.23v-10.63ZM188.63,98.82h.51c1.19,0,1.97-.86,1.97-2.16s-.51-2.02-1.84-2.03c-.24,0-.48.02-.64.06v4.13Z"/>
    <path class="cls-4" d="M195.33,101.24l-.72,3.23h-1.19l2.46-10.79h1.36l2.4,10.79h-1.22l-.72-3.23h-2.38ZM197.55,100.24l-.56-2.74c-.16-.77-.3-1.66-.43-2.46h-.06c-.13.82-.29,1.74-.43,2.46l-.56,2.74h2.05Z"/>
  </g>
  <rect class="cls-2" x="169.5" y="86.41" width="35.83" height="25.34" rx="7.06" ry="7.06"/>
  <g>
    <path class="cls-4" d="M90.59,101.24l-.72,3.23h-1.18l2.46-10.79h1.36l2.4,10.79h-1.22l-.72-3.23h-2.38ZM92.82,100.24l-.56-2.74c-.16-.77-.3-1.66-.43-2.46h-.06c-.13.82-.29,1.74-.43,2.46l-.56,2.74h2.05Z"/>
    <path class="cls-4" d="M96.26,93.84c.53-.14,1.17-.21,1.78-.21,1.07,0,1.87.22,2.43.77.53.54.75,1.26.75,2.11,0,1.38-.64,2.27-1.73,2.77v.03c.8.24,1.22,1.01,1.46,2.42.24,1.49.46,2.4.61,2.74h-1.25c-.16-.32-.37-1.34-.58-2.67-.24-1.47-.7-2.03-1.76-2.03h-.48v4.71h-1.23v-10.63ZM97.49,98.82h.51c1.18,0,1.97-.86,1.97-2.16s-.51-2.02-1.84-2.03c-.24,0-.48.02-.64.06v4.13Z"/>
    <path class="cls-4" d="M107.51,104.28c-.34.18-.86.29-1.54.29-2.11,0-3.62-1.7-3.62-5.36,0-4.26,2.11-5.62,3.81-5.62.66,0,1.12.13,1.34.27l-.27,1.04c-.26-.11-.53-.22-1.09-.22-1.15,0-2.5,1.12-2.5,4.42s1.22,4.39,2.53,4.39c.46,0,.88-.11,1.14-.24l.19,1.04Z"/>
    <path class="cls-4" d="M110,93.68v10.79h-1.23v-10.79h1.23Z"/>
    <path class="cls-4" d="M111.95,93.68h1.23v9.75h3.04v1.04h-4.27v-10.79Z"/>
    <path class="cls-4" d="M117.46,93.68h1.23v9.75h3.04v1.04h-4.27v-10.79Z"/>
    <path class="cls-4" d="M124.31,101.24l-.72,3.23h-1.18l2.46-10.79h1.36l2.4,10.79h-1.22l-.72-3.23h-2.38ZM126.53,100.24l-.56-2.74c-.16-.77-.3-1.66-.43-2.46h-.06c-.13.82-.29,1.74-.43,2.46l-.56,2.74h2.05Z"/>
  </g>
  <rect class="cls-2" x="82.51" y="86.41" width="52.34" height="25.34" rx="7.06" ry="7.06"/>
  <path class="cls-2" d="M108.67,85.91v-8.24c0-4.93,4-8.93,8.93-8.93h60.88c4.93,0,8.93,4,8.93,8.93v8.24"/>
  <path class="cls-2" d="M108.67,112.24v8.24c0,4.93,4,8.93,8.93,8.93h60.88c4.93,0,8.93-4,8.93-8.93v-8.24"/>
  <line class="cls-2" x1="148.22" y1="366.47" x2="148.22" y2="408.37"/>
  <g>
    <g>
      <path class="cls-3" d="M129.98,391.62c-.21.12-.55.22-.96.22-1.27,0-2.12-1.02-2.12-2.94,0-1.67.84-3.02,2.29-3.02.31,0,.65.08.82.18l-.18.76c-.12-.06-.36-.16-.66-.16-.92,0-1.34,1.1-1.34,2.24,0,1.35.52,2.17,1.37,2.17.25,0,.46-.06.67-.16l.12.71Z"/>
      <path class="cls-3" d="M134.26,388.86c0,2.24-1.04,3-1.93,3-1.04,0-1.88-.95-1.88-2.99s.95-3.01,1.94-3.01,1.87.97,1.87,3ZM131.37,388.86c0,.96.17,2.27,1.01,2.27.79,0,.95-1.37.95-2.27s-.16-2.25-.97-2.25-.98,1.37-.98,2.25Z"/>
      <path class="cls-3" d="M135.29,387.46c0-.68-.04-1.03-.05-1.5h.8l.05.72h.03c.25-.47.7-.82,1.31-.82.54,0,1,.26,1.21.89h.02c.16-.29.36-.52.58-.66.23-.16.5-.23.8-.23.78,0,1.39.58,1.39,2.05v3.85h-.91v-3.63c0-.76-.11-1.49-.81-1.49-.38,0-.72.32-.85.86-.03.16-.04.34-.04.53v3.73h-.91v-3.8c0-.65-.12-1.32-.8-1.32-.37,0-.76.32-.86.94-.02.16-.04.32-.04.5v3.68h-.91v-4.31Z"/>
      <path class="cls-3" d="M146.3,388.86c0,2.24-1.04,3-1.93,3-1.04,0-1.88-.95-1.88-2.99s.95-3.01,1.94-3.01,1.87.97,1.87,3ZM143.41,388.86c0,.96.17,2.27,1.01,2.27.79,0,.95-1.37.95-2.27s-.16-2.25-.97-2.25-.98,1.37-.98,2.25Z"/>
      <path class="cls-3" d="M149.21,383.47h.92v8.3h-.92v-8.3Z"/>
      <path class="cls-3" d="M155.07,388.86c0,2.24-1.04,3-1.93,3-1.04,0-1.88-.95-1.88-2.99s.95-3.01,1.94-3.01,1.87.97,1.87,3ZM152.18,388.86c0,.96.17,2.27,1.01,2.27.79,0,.95-1.37.95-2.27s-.16-2.25-.97-2.25-.98,1.37-.98,2.25Z"/>
      <path class="cls-3" d="M155.95,390.81c.2.13.56.3.94.3.53,0,.85-.32.85-.84,0-.44-.16-.74-.74-1.14-.76-.49-1.16-.98-1.16-1.66,0-.94.7-1.61,1.59-1.61.46,0,.8.16,1.04.3l-.25.7c-.22-.14-.47-.25-.77-.25-.5,0-.76.36-.76.73,0,.4.14.61.72,1.01.67.43,1.2.96,1.2,1.76,0,1.16-.79,1.73-1.74,1.73-.43,0-.9-.13-1.15-.33l.23-.7Z"/>
      <path class="cls-3" d="M164.94,383.47v6.91c0,.4.04,1.06.05,1.39h-.79l-.06-.73h-.04c-.19.42-.6.83-1.21.83-.98,0-1.69-1.07-1.69-2.97,0-2.06.85-3.02,1.75-3.02.42,0,.83.2,1.06.7h.02v-3.09h.91ZM164.03,388.17c0-.12,0-.25-.01-.38-.06-.6-.42-1.13-.86-1.13-.77,0-1.03,1.07-1.03,2.23,0,1.22.31,2.21.98,2.21.29,0,.68-.16.89-1,.02-.11.04-.24.04-.38v-1.55Z"/>
      <path class="cls-3" d="M166.89,388.95c.01,1.77.71,2.16,1.38,2.16.39,0,.73-.1.96-.23l.14.68c-.32.18-.82.28-1.27.28-1.39,0-2.11-1.14-2.11-2.91,0-1.88.79-3.06,1.96-3.06s1.65,1.25,1.65,2.57c0,.22,0,.37-.01.52h-2.7ZM168.71,388.27c.02-1.16-.42-1.68-.86-1.68-.6,0-.91.89-.95,1.68h1.81Z"/>
    </g>
    <g>
      <path class="cls-4" d="M129.98,391.62c-.21.12-.55.22-.96.22-1.27,0-2.12-1.02-2.12-2.94,0-1.67.84-3.02,2.29-3.02.31,0,.65.08.82.18l-.18.76c-.12-.06-.36-.16-.66-.16-.92,0-1.34,1.1-1.34,2.24,0,1.35.52,2.17,1.37,2.17.25,0,.46-.06.67-.16l.12.71Z"/>
      <path class="cls-4" d="M134.26,388.86c0,2.24-1.04,3-1.93,3-1.04,0-1.88-.95-1.88-2.99s.95-3.01,1.94-3.01,1.87.97,1.87,3ZM131.37,388.86c0,.96.17,2.27,1.01,2.27.79,0,.95-1.37.95-2.27s-.16-2.25-.97-2.25-.98,1.37-.98,2.25Z"/>
      <path class="cls-4" d="M135.29,387.46c0-.68-.04-1.03-.05-1.5h.8l.05.72h.03c.25-.47.7-.82,1.31-.82.54,0,1,.26,1.21.89h.02c.16-.29.36-.52.58-.66.23-.16.5-.23.8-.23.78,0,1.39.58,1.39,2.05v3.85h-.91v-3.63c0-.76-.11-1.49-.81-1.49-.38,0-.72.32-.85.86-.03.16-.04.34-.04.53v3.73h-.91v-3.8c0-.65-.12-1.32-.8-1.32-.37,0-.76.32-.86.94-.02.16-.04.32-.04.5v3.68h-.91v-4.31Z"/>
      <path class="cls-4" d="M146.3,388.86c0,2.24-1.04,3-1.93,3-1.04,0-1.88-.95-1.88-2.99s.95-3.01,1.94-3.01,1.87.97,1.87,3ZM143.41,388.86c0,.96.17,2.27,1.01,2.27.79,0,.95-1.37.95-2.27s-.16-2.25-.97-2.25-.98,1.37-.98,2.25Z"/>
      <path class="cls-4" d="M149.21,383.47h.92v8.3h-.92v-8.3Z"/>
      <path class="cls-4" d="M155.07,388.86c0,2.24-1.04,3-1.93,3-1.04,0-1.88-.95-1.88-2.99s.95-3.01,1.94-3.01,1.87.97,1.87,3ZM152.18,388.86c0,.96.17,2.27,1.01,2.27.79,0,.95-1.37.95-2.27s-.16-2.25-.97-2.25-.98,1.37-.98,2.25Z"/>
      <path class="cls-4" d="M155.95,390.81c.2.13.56.3.94.3.53,0,.85-.32.85-.84,0-.44-.16-.74-.74-1.14-.76-.49-1.16-.98-1.16-1.66,0-.94.7-1.61,1.59-1.61.46,0,.8.16,1.04.3l-.25.7c-.22-.14-.47-.25-.77-.25-.5,0-.76.36-.76.73,0,.4.14.61.72,1.01.67.43,1.2.96,1.2,1.76,0,1.16-.79,1.73-1.74,1.73-.43,0-.9-.13-1.15-.33l.23-.7Z"/>
      <path class="cls-4" d="M164.94,383.47v6.91c0,.4.04,1.06.05,1.39h-.79l-.06-.73h-.04c-.19.42-.6.83-1.21.83-.98,0-1.69-1.07-1.69-2.97,0-2.06.85-3.02,1.75-3.02.42,0,.83.2,1.06.7h.02v-3.09h.91ZM164.03,388.17c0-.12,0-.25-.01-.38-.06-.6-.42-1.13-.86-1.13-.77,0-1.03,1.07-1.03,2.23,0,1.22.31,2.21.98,2.21.29,0,.68-.16.89-1,.02-.11.04-.24.04-.38v-1.55Z"/>
      <path class="cls-4" d="M166.89,388.95c.01,1.77.71,2.16,1.38,2.16.39,0,.73-.1.96-.23l.14.68c-.32.18-.82.28-1.27.28-1.39,0-2.11-1.14-2.11-2.91,0-1.88.79-3.06,1.96-3.06s1.65,1.25,1.65,2.57c0,.22,0,.37-.01.52h-2.7ZM168.71,388.27c.02-1.16-.42-1.68-.86-1.68-.6,0-.91.89-.95,1.68h1.81Z"/>
    </g>
    <g>
      <path class="cls-4" d="M129.98,391.62c-.21.12-.55.22-.96.22-1.27,0-2.12-1.02-2.12-2.94,0-1.67.84-3.02,2.29-3.02.31,0,.65.08.82.18l-.18.76c-.12-.06-.36-.16-.66-.16-.92,0-1.34,1.1-1.34,2.24,0,1.35.52,2.17,1.37,2.17.25,0,.46-.06.67-.16l.12.71Z"/>
      <path class="cls-4" d="M134.26,388.86c0,2.24-1.04,3-1.93,3-1.04,0-1.88-.95-1.88-2.99s.95-3.01,1.94-3.01,1.87.97,1.87,3ZM131.37,388.86c0,.96.17,2.27,1.01,2.27.79,0,.95-1.37.95-2.27s-.16-2.25-.97-2.25-.98,1.37-.98,2.25Z"/>
      <path class="cls-4" d="M135.29,387.46c0-.68-.04-1.03-.05-1.5h.8l.05.72h.03c.25-.47.7-.82,1.31-.82.54,0,1,.26,1.21.89h.02c.16-.29.36-.52.58-.66.23-.16.5-.23.8-.23.78,0,1.39.58,1.39,2.05v3.85h-.91v-3.63c0-.76-.11-1.49-.81-1.49-.38,0-.72.32-.85.86-.03.16-.04.34-.04.53v3.73h-.91v-3.8c0-.65-.12-1.32-.8-1.32-.37,0-.76.32-.86.94-.02.16-.04.32-.04.5v3.68h-.91v-4.31Z"/>
      <path class="cls-4" d="M146.3,388.86c0,2.24-1.04,3-1.93,3-1.04,0-1.88-.95-1.88-2.99s.95-3.01,1.94-3.01,1.87.97,1.87,3ZM143.41,388.86c0,.96.17,2.27,1.01,2.27.79,0,.95-1.37.95-2.27s-.16-2.25-.97-2.25-.98,1.37-.98,2.25Z"/>
      <path class="cls-4" d="M149.21,383.47h.92v8.3h-.92v-8.3Z"/>
      <path class="cls-4" d="M155.07,388.86c0,2.24-1.04,3-1.93,3-1.04,0-1.88-.95-1.88-2.99s.95-3.01,1.94-3.01,1.87.97,1.87,3ZM152.18,388.86c0,.96.17,2.27,1.01,2.27.79,0,.95-1.37.95-2.27s-.16-2.25-.97-2.25-.98,1.37-.98,2.25Z"/>
      <path class="cls-4" d="M155.95,390.81c.2.13.56.3.94.3.53,0,.85-.32.85-.84,0-.44-.16-.74-.74-1.14-.76-.49-1.16-.98-1.16-1.66,0-.94.7-1.61,1.59-1.61.46,0,.8.16,1.04.3l-.25.7c-.22-.14-.47-.25-.77-.25-.5,0-.76.36-.76.73,0,.4.14.61.72,1.01.67.43,1.2.96,1.2,1.76,0,1.16-.79,1.73-1.74,1.73-.43,0-.9-.13-1.15-.33l.23-.7Z"/>
      <path class="cls-4" d="M164.94,383.47v6.91c0,.4.04,1.06.05,1.39h-.79l-.06-.73h-.04c-.19.42-.6.83-1.21.83-.98,0-1.69-1.07-1.69-2.97,0-2.06.85-3.02,1.75-3.02.42,0,.83.2,1.06.7h.02v-3.09h.91ZM164.03,388.17c0-.12,0-.25-.01-.38-.06-.6-.42-1.13-.86-1.13-.77,0-1.03,1.07-1.03,2.23,0,1.22.31,2.21.98,2.21.29,0,.68-.16.89-1,.02-.11.04-.24.04-.38v-1.55Z"/>
      <path class="cls-4" d="M166.89,388.95c.01,1.77.71,2.16,1.38,2.16.39,0,.73-.1.96-.23l.14.68c-.32.18-.82.28-1.27.28-1.39,0-2.11-1.14-2.11-2.91,0-1.88.79-3.06,1.96-3.06s1.65,1.25,1.65,2.57c0,.22,0,.37-.01.52h-2.7ZM168.71,388.27c.02-1.16-.42-1.68-.86-1.68-.6,0-.91.89-.95,1.68h1.81Z"/>
    </g>
  </g>
  <g>
    <path class="cls-4" d="M96.63,179.69h-1.97v-1.1h5.17v1.1h-1.97v9.68h-1.23v-9.68Z"/>
    <path class="cls-4" d="M104.96,184.26h-2.71v4.05h3.07v1.07h-4.31v-10.79h4.11v1.07h-2.88v3.55h2.71v1.04ZM105.46,176.29l-2,1.73h-.98l1.52-1.73h1.46Z"/>
    <path class="cls-4" d="M111.4,189.19c-.34.18-.86.29-1.54.29-2.11,0-3.62-1.7-3.62-5.36,0-4.26,2.11-5.62,3.81-5.62.66,0,1.12.13,1.34.27l-.27,1.04c-.26-.11-.53-.22-1.09-.22-1.15,0-2.5,1.12-2.5,4.42s1.22,4.39,2.53,4.39c.46,0,.88-.11,1.14-.24l.19,1.04Z"/>
    <path class="cls-4" d="M112.66,189.38v-10.79h1.17l1.98,5.06c.45,1.15,1.01,2.59,1.38,3.76h.03c-.1-1.7-.14-3.09-.14-4.96v-3.86h1.1v10.79h-1.17l-2.05-5.19c-.43-1.09-.9-2.32-1.28-3.67h-.03c.1,1.44.13,2.82.13,5.12v3.73h-1.12Z"/>
    <path class="cls-4" d="M121.33,178.59v10.79h-1.23v-10.79h1.23Z"/>
    <path class="cls-4" d="M127.99,189.19c-.34.18-.87.29-1.54.29-2.11,0-3.62-1.7-3.62-5.36,0-4.26,2.11-5.62,3.81-5.62.66,0,1.12.13,1.35.27l-.27,1.04c-.26-.11-.53-.22-1.09-.22-1.15,0-2.5,1.12-2.5,4.42s1.22,4.39,2.53,4.39c.46,0,.88-.11,1.14-.24l.19,1.04Z"/>
    <path class="cls-4" d="M130.64,186.15l-.72,3.23h-1.18l2.46-10.79h1.36l2.4,10.79h-1.22l-.72-3.23h-2.38ZM132.87,185.15l-.56-2.74c-.16-.77-.3-1.66-.43-2.46h-.06c-.13.82-.29,1.74-.43,2.46l-.56,2.74h2.05Z"/>
    <path class="cls-4" d="M142.76,184.26h-2.71v4.05h3.07v1.07h-4.31v-10.79h4.11v1.07h-2.88v3.55h2.71v1.04Z"/>
    <path class="cls-4" d="M144.24,187.95c.37.24,1.01.43,1.55.43,1.12,0,1.79-.74,1.79-1.83,0-.99-.58-1.6-1.43-2.24-.85-.59-2.03-1.6-2.03-2.99,0-1.63,1.14-2.83,2.85-2.83.67,0,1.27.21,1.52.4l-.3,1.06c-.27-.19-.72-.37-1.28-.37-1.06,0-1.55.8-1.55,1.54,0,1.07.56,1.49,1.58,2.22,1.3.91,1.87,1.9,1.87,3.11,0,1.86-1.31,3.03-3.03,3.03-.74,0-1.52-.24-1.82-.46l.27-1.06Z"/>
    <path class="cls-4" d="M154.96,189.19c-.34.18-.86.29-1.54.29-2.11,0-3.62-1.7-3.62-5.36,0-4.26,2.11-5.62,3.81-5.62.66,0,1.12.13,1.34.27l-.27,1.04c-.26-.11-.53-.22-1.09-.22-1.15,0-2.5,1.12-2.5,4.42s1.22,4.39,2.53,4.39c.46,0,.88-.11,1.14-.24l.19,1.04Z"/>
    <path class="cls-4" d="M157.44,178.59v7.24c0,1.94.64,2.59,1.47,2.59.91,0,1.49-.7,1.49-2.59v-7.24h1.23v7.04c0,2.8-1.15,3.87-2.75,3.87s-2.67-1.06-2.67-3.73v-7.19h1.23Z"/>
    <path class="cls-4" d="M163.54,178.59h1.23v9.75h3.04v1.04h-4.27v-10.79Z"/>
    <path class="cls-4" d="M169.23,179.69h-1.97v-1.1h5.17v1.1h-1.97v9.68h-1.23v-9.68Z"/>
    <path class="cls-4" d="M178.79,183.9c0,4.05-1.39,5.6-3.12,5.6s-2.99-1.9-2.99-5.54,1.28-5.51,3.17-5.51,2.95,2,2.95,5.44ZM173.95,183.98c0,2.22.43,4.43,1.79,4.43s1.76-2.35,1.76-4.47-.37-4.4-1.78-4.4-1.78,2.24-1.78,4.43ZM177.92,176.29l-1.99,1.73h-.98l1.51-1.73h1.46Z"/>
    <path class="cls-4" d="M180.26,178.75c.53-.14,1.17-.21,1.78-.21,1.07,0,1.87.22,2.43.77.53.54.75,1.26.75,2.11,0,1.38-.64,2.27-1.73,2.77v.03c.8.24,1.22,1.01,1.46,2.42.24,1.49.46,2.4.61,2.74h-1.25c-.16-.32-.37-1.34-.58-2.67-.24-1.47-.7-2.03-1.76-2.03h-.48v4.71h-1.23v-10.63ZM181.49,183.73h.51c1.19,0,1.97-.86,1.97-2.16s-.51-2.02-1.84-2.03c-.24,0-.48.02-.64.06v4.13Z"/>
    <path class="cls-4" d="M188.03,178.59v10.79h-1.23v-10.79h1.23Z"/>
    <path class="cls-4" d="M194.69,189.19c-.34.18-.87.29-1.54.29-2.11,0-3.62-1.7-3.62-5.36,0-4.26,2.11-5.62,3.81-5.62.66,0,1.12.13,1.35.27l-.27,1.04c-.26-.11-.53-.22-1.09-.22-1.15,0-2.5,1.12-2.5,4.42s1.22,4.39,2.53,4.39c.46,0,.88-.11,1.14-.24l.19,1.04Z"/>
    <path class="cls-4" d="M197.35,186.15l-.72,3.23h-1.18l2.46-10.79h1.36l2.4,10.79h-1.22l-.72-3.23h-2.38ZM199.57,185.15l-.56-2.74c-.16-.77-.3-1.66-.43-2.46h-.06c-.13.82-.29,1.74-.43,2.46l-.56,2.74h2.05Z"/>
  </g>
  <rect class="cls-2" x="89.85" y="171.32" width="116.75" height="25.34" rx="7.06" ry="7.06"/>
  <line class="cls-2" x1="148.22" y1="196.66" x2="148.22" y2="238.55"/>
  <g>
    <g>
      <path class="cls-3" d="M107.21,221.35h-.04c-.19.4-.59.7-1.12.7-.94,0-1.68-1.02-1.68-2.93,0-2.05.87-3.07,1.82-3.07.37,0,.8.17,1.08.77h.03s.05-.67.05-.67h.83c-.02.41-.05.92-.05,1.81v6.3h-.92v-2.9ZM107.21,218.32c0-.12,0-.28-.03-.38-.07-.61-.43-1.09-.84-1.09-.75,0-1.04,1.01-1.04,2.23s.31,2.21,1.02,2.21c.29,0,.65-.17.84-.97.05-.14.05-.34.05-.49v-1.5Z"/>
      <path class="cls-3" d="M112.9,220.37c0,.65.04,1.15.05,1.58h-.8l-.06-.61h-.02c-.18.29-.62.71-1.25.71-1.02,0-1.41-.79-1.41-2.23v-3.67h.92v3.54c0,.91.14,1.58.78,1.58.54,0,.78-.5.83-.77.04-.16.05-.34.05-.53v-3.83h.92v4.22Z"/>
      <path class="cls-3" d="M114.84,219.13c.01,1.77.71,2.16,1.38,2.16.39,0,.73-.1.96-.23l.14.68c-.32.18-.82.28-1.27.28-1.39,0-2.11-1.14-2.11-2.91,0-1.88.79-3.06,1.96-3.06s1.65,1.25,1.65,2.57c0,.22,0,.37-.01.52h-2.7ZM116.66,218.45c.02-1.16-.42-1.68-.86-1.68-.6,0-.91.89-.95,1.68h1.81Z"/>
      <path class="cls-3" d="M120.28,220.99c.2.13.56.3.94.3.53,0,.85-.32.85-.84,0-.44-.16-.74-.74-1.14-.76-.49-1.16-.98-1.16-1.65,0-.94.7-1.61,1.59-1.61.46,0,.8.16,1.04.3l-.25.7c-.22-.14-.47-.25-.77-.25-.5,0-.76.36-.76.73,0,.4.14.61.72,1.01.67.43,1.2.96,1.2,1.76,0,1.16-.79,1.73-1.74,1.73-.43,0-.9-.13-1.15-.34l.23-.7Z"/>
      <path class="cls-3" d="M124.55,219.13c.01,1.77.71,2.16,1.38,2.16.4,0,.73-.1.96-.23l.14.68c-.32.18-.82.28-1.27.28-1.39,0-2.11-1.14-2.11-2.91,0-1.88.79-3.06,1.96-3.06s1.66,1.25,1.66,2.57c0,.22,0,.37-.01.52h-2.7ZM126.37,218.45c.03-1.16-.42-1.68-.86-1.68-.6,0-.91.89-.95,1.68h1.81Z"/>
      <path class="cls-3" d="M133.62,220.37c0,.65.04,1.15.05,1.58h-.8l-.06-.61h-.03c-.18.29-.62.71-1.25.71-1.02,0-1.42-.79-1.42-2.23v-3.67h.92v3.54c0,.91.14,1.58.78,1.58.54,0,.78-.5.83-.77.04-.16.05-.34.05-.53v-3.83h.92v4.22Z"/>
      <path class="cls-3" d="M136.04,214.61v1.54h1.12v.71h-1.12v3.44c0,.76.28.96.61.96.14,0,.26-.01.37-.04l.04.71c-.17.06-.38.1-.69.1-.36,0-.68-.1-.91-.35-.23-.26-.35-.66-.35-1.46v-3.36h-.71v-.71h.71v-1.27l.92-.26Z"/>
      <path class="cls-3" d="M138.97,214.65c.01.36-.22.6-.56.6-.3,0-.53-.24-.53-.6s.24-.6.54-.6c.34,0,.55.24.55.6ZM137.98,221.95v-5.8h.92v5.8h-.92Z"/>
      <path class="cls-3" d="M140.18,213.65h.92v8.3h-.92v-8.3Z"/>
      <path class="cls-3" d="M143.47,214.65c.01.36-.22.6-.56.6-.3,0-.53-.24-.53-.6s.24-.6.54-.6c.34,0,.55.24.55.6ZM142.48,221.95v-5.8h.92v5.8h-.92Z"/>
      <path class="cls-3" d="M144.23,221.39l1.84-3.59c.15-.3.33-.6.47-.86v-.02h-2.07v-.77h3.09v.61l-1.81,3.54c-.16.3-.34.6-.47.86v.02h2.28v.77h-3.32v-.56Z"/>
      <path class="cls-3" d="M150.73,221.95l-.06-.61h-.04c-.25.44-.66.71-1.15.71-.78,0-1.38-.66-1.38-1.65,0-1.45,1.16-2.1,2.47-2.11v-.18c0-.78-.19-1.32-.92-1.32-.36,0-.68.12-.96.3l-.2-.65c.24-.18.78-.38,1.36-.38,1.16,0,1.67.77,1.67,2.08v2.51c0,.44,0,.95.06,1.32h-.84ZM150.6,218.95c-.48,0-1.6.08-1.6,1.34,0,.76.38,1.03.71,1.03.41,0,.76-.3.86-.88.03-.11.03-.23.03-.32v-1.18Z"/>
      <path class="cls-3" d="M154.68,217.96c0-.89-.04-1.4-.05-1.81h.83l.05.74h.02c.31-.62.77-.84,1.22-.84,1.01,0,1.68,1.08,1.68,2.99,0,2.15-.89,3.01-1.8,3.01-.54,0-.85-.35-1.01-.67h-.02v2.88h-.92v-6.3ZM155.6,219.82c0,.18,0,.35.04.48.18.83.6.98.85.98.77,0,1.01-1.06,1.01-2.23s-.29-2.21-1.02-2.21c-.42,0-.79.53-.85,1.06-.02.14-.02.29-.02.44v1.48Z"/>
      <path class="cls-3" d="M161.77,221.95l-.06-.61h-.04c-.25.44-.66.71-1.15.71-.78,0-1.38-.66-1.38-1.65,0-1.45,1.16-2.1,2.47-2.11v-.18c0-.78-.19-1.32-.92-1.32-.36,0-.68.12-.96.3l-.21-.65c.24-.18.78-.38,1.36-.38,1.16,0,1.67.77,1.67,2.08v2.51c0,.44,0,.95.06,1.32h-.84ZM161.64,218.95c-.48,0-1.6.08-1.6,1.34,0,.76.38,1.03.71,1.03.41,0,.76-.3.86-.88.02-.11.02-.23.02-.32v-1.18Z"/>
      <path class="cls-3" d="M163.84,217.65c0-.49-.04-1.07-.05-1.5h.83l.05.91h.02c.19-.55.68-1.01,1.22-1.01.07,0,.13.01.19.01v.95c-.06-.01-.12-.01-.19-.01-.59,0-1.02.54-1.12,1.21-.02.16-.04.34-.04.53v3.21h-.92v-4.31Z"/>
      <path class="cls-3" d="M169.04,221.95l-.06-.61h-.04c-.25.44-.66.71-1.15.71-.78,0-1.38-.66-1.38-1.65,0-1.45,1.16-2.1,2.47-2.11v-.18c0-.78-.19-1.32-.92-1.32-.36,0-.68.12-.96.3l-.21-.65c.24-.18.78-.38,1.36-.38,1.16,0,1.67.77,1.67,2.08v2.51c0,.44,0,.95.06,1.32h-.84ZM168.91,218.95c-.48,0-1.6.08-1.6,1.34,0,.76.38,1.03.71,1.03.41,0,.76-.3.86-.88.02-.11.02-.23.02-.32v-1.18Z"/>
      <path class="cls-3" d="M173,213.65h.92v3.12h.02c.12-.2.3-.38.48-.5.21-.13.44-.22.78-.22.73,0,1.36.59,1.36,2.05v3.85h-.92v-3.74c0-.71-.16-1.38-.78-1.38-.43,0-.76.31-.9.92-.02.13-.04.3-.04.44v3.75h-.92v-8.3Z"/>
      <path class="cls-3" d="M180.15,221.95l-.06-.61h-.04c-.25.44-.66.71-1.15.71-.78,0-1.38-.66-1.38-1.65,0-1.45,1.16-2.1,2.47-2.11v-.18c0-.78-.19-1.32-.92-1.32-.36,0-.68.12-.96.3l-.2-.65c.24-.18.78-.38,1.36-.38,1.16,0,1.67.77,1.67,2.08v2.51c0,.44,0,.95.06,1.32h-.84ZM180.02,218.95c-.48,0-1.6.08-1.6,1.34,0,.76.38,1.03.71,1.03.41,0,.76-.3.86-.88.03-.11.03-.23.03-.32v-1.18Z"/>
      <path class="cls-3" d="M185.06,221.81c-.2.12-.55.22-.96.22-1.27,0-2.12-1.02-2.12-2.94,0-1.67.84-3.02,2.29-3.02.31,0,.65.08.81.18l-.18.76c-.12-.06-.36-.16-.66-.16-.92,0-1.34,1.1-1.34,2.24,0,1.35.52,2.17,1.37,2.17.25,0,.46-.06.67-.16l.12.71Z"/>
      <path class="cls-3" d="M186.43,219.13c.01,1.77.71,2.16,1.38,2.16.4,0,.73-.1.96-.23l.14.68c-.32.18-.82.28-1.27.28-1.39,0-2.11-1.14-2.11-2.91,0-1.88.79-3.06,1.96-3.06s1.66,1.25,1.66,2.57c0,.22,0,.37-.01.52h-2.7ZM188.25,218.45c.03-1.16-.42-1.68-.86-1.68-.6,0-.91.89-.95,1.68h1.81Z"/>
      <path class="cls-3" d="M190.13,217.65c0-.49-.04-1.07-.05-1.5h.83l.05.91h.02c.19-.55.68-1.01,1.22-1.01.07,0,.13.01.19.01v.95c-.06-.01-.12-.01-.19-.01-.59,0-1.02.54-1.12,1.21-.02.16-.04.34-.04.53v3.21h-.92v-4.31Z"/>
    </g>
    <g>
      <path class="cls-4" d="M107.21,221.35h-.04c-.19.4-.59.7-1.12.7-.94,0-1.68-1.02-1.68-2.93,0-2.05.87-3.07,1.82-3.07.37,0,.8.17,1.08.77h.03s.05-.67.05-.67h.83c-.02.41-.05.92-.05,1.81v6.3h-.92v-2.9ZM107.21,218.32c0-.12,0-.28-.03-.38-.07-.61-.43-1.09-.84-1.09-.75,0-1.04,1.01-1.04,2.23s.31,2.21,1.02,2.21c.29,0,.65-.17.84-.97.05-.14.05-.34.05-.49v-1.5Z"/>
      <path class="cls-4" d="M112.9,220.37c0,.65.04,1.15.05,1.58h-.8l-.06-.61h-.02c-.18.29-.62.71-1.25.71-1.02,0-1.41-.79-1.41-2.23v-3.67h.92v3.54c0,.91.14,1.58.78,1.58.54,0,.78-.5.83-.77.04-.16.05-.34.05-.53v-3.83h.92v4.22Z"/>
      <path class="cls-4" d="M114.84,219.13c.01,1.77.71,2.16,1.38,2.16.39,0,.73-.1.96-.23l.14.68c-.32.18-.82.28-1.27.28-1.39,0-2.11-1.14-2.11-2.91,0-1.88.79-3.06,1.96-3.06s1.65,1.25,1.65,2.57c0,.22,0,.37-.01.52h-2.7ZM116.66,218.45c.02-1.16-.42-1.68-.86-1.68-.6,0-.91.89-.95,1.68h1.81Z"/>
      <path class="cls-4" d="M120.28,220.99c.2.13.56.3.94.3.53,0,.85-.32.85-.84,0-.44-.16-.74-.74-1.14-.76-.49-1.16-.98-1.16-1.65,0-.94.7-1.61,1.59-1.61.46,0,.8.16,1.04.3l-.25.7c-.22-.14-.47-.25-.77-.25-.5,0-.76.36-.76.73,0,.4.14.61.72,1.01.67.43,1.2.96,1.2,1.76,0,1.16-.79,1.73-1.74,1.73-.43,0-.9-.13-1.15-.34l.23-.7Z"/>
      <path class="cls-4" d="M124.55,219.13c.01,1.77.71,2.16,1.38,2.16.4,0,.73-.1.96-.23l.14.68c-.32.18-.82.28-1.27.28-1.39,0-2.11-1.14-2.11-2.91,0-1.88.79-3.06,1.96-3.06s1.66,1.25,1.66,2.57c0,.22,0,.37-.01.52h-2.7ZM126.37,218.45c.03-1.16-.42-1.68-.86-1.68-.6,0-.91.89-.95,1.68h1.81Z"/>
      <path class="cls-4" d="M133.62,220.37c0,.65.04,1.15.05,1.58h-.8l-.06-.61h-.03c-.18.29-.62.71-1.25.71-1.02,0-1.42-.79-1.42-2.23v-3.67h.92v3.54c0,.91.14,1.58.78,1.58.54,0,.78-.5.83-.77.04-.16.05-.34.05-.53v-3.83h.92v4.22Z"/>
      <path class="cls-4" d="M136.04,214.61v1.54h1.12v.71h-1.12v3.44c0,.76.28.96.61.96.14,0,.26-.01.37-.04l.04.71c-.17.06-.38.1-.69.1-.36,0-.68-.1-.91-.35-.23-.26-.35-.66-.35-1.46v-3.36h-.71v-.71h.71v-1.27l.92-.26Z"/>
      <path class="cls-4" d="M138.97,214.65c.01.36-.22.6-.56.6-.3,0-.53-.24-.53-.6s.24-.6.54-.6c.34,0,.55.24.55.6ZM137.98,221.95v-5.8h.92v5.8h-.92Z"/>
      <path class="cls-4" d="M140.18,213.65h.92v8.3h-.92v-8.3Z"/>
      <path class="cls-4" d="M143.47,214.65c.01.36-.22.6-.56.6-.3,0-.53-.24-.53-.6s.24-.6.54-.6c.34,0,.55.24.55.6ZM142.48,221.95v-5.8h.92v5.8h-.92Z"/>
      <path class="cls-4" d="M144.23,221.39l1.84-3.59c.15-.3.33-.6.47-.86v-.02h-2.07v-.77h3.09v.61l-1.81,3.54c-.16.3-.34.6-.47.86v.02h2.28v.77h-3.32v-.56Z"/>
      <path class="cls-4" d="M150.73,221.95l-.06-.61h-.04c-.25.44-.66.71-1.15.71-.78,0-1.38-.66-1.38-1.65,0-1.45,1.16-2.1,2.47-2.11v-.18c0-.78-.19-1.32-.92-1.32-.36,0-.68.12-.96.3l-.2-.65c.24-.18.78-.38,1.36-.38,1.16,0,1.67.77,1.67,2.08v2.51c0,.44,0,.95.06,1.32h-.84ZM150.6,218.95c-.48,0-1.6.08-1.6,1.34,0,.76.38,1.03.71,1.03.41,0,.76-.3.86-.88.03-.11.03-.23.03-.32v-1.18Z"/>
      <path class="cls-4" d="M154.68,217.96c0-.89-.04-1.4-.05-1.81h.83l.05.74h.02c.31-.62.77-.84,1.22-.84,1.01,0,1.68,1.08,1.68,2.99,0,2.15-.89,3.01-1.8,3.01-.54,0-.85-.35-1.01-.67h-.02v2.88h-.92v-6.3ZM155.6,219.82c0,.18,0,.35.04.48.18.83.6.98.85.98.77,0,1.01-1.06,1.01-2.23s-.29-2.21-1.02-2.21c-.42,0-.79.53-.85,1.06-.02.14-.02.29-.02.44v1.48Z"/>
      <path class="cls-4" d="M161.77,221.95l-.06-.61h-.04c-.25.44-.66.71-1.15.71-.78,0-1.38-.66-1.38-1.65,0-1.45,1.16-2.1,2.47-2.11v-.18c0-.78-.19-1.32-.92-1.32-.36,0-.68.12-.96.3l-.21-.65c.24-.18.78-.38,1.36-.38,1.16,0,1.67.77,1.67,2.08v2.51c0,.44,0,.95.06,1.32h-.84ZM161.64,218.95c-.48,0-1.6.08-1.6,1.34,0,.76.38,1.03.71,1.03.41,0,.76-.3.86-.88.02-.11.02-.23.02-.32v-1.18Z"/>
      <path class="cls-4" d="M163.84,217.65c0-.49-.04-1.07-.05-1.5h.83l.05.91h.02c.19-.55.68-1.01,1.22-1.01.07,0,.13.01.19.01v.95c-.06-.01-.12-.01-.19-.01-.59,0-1.02.54-1.12,1.21-.02.16-.04.34-.04.53v3.21h-.92v-4.31Z"/>
      <path class="cls-4" d="M169.04,221.95l-.06-.61h-.04c-.25.44-.66.71-1.15.71-.78,0-1.38-.66-1.38-1.65,0-1.45,1.16-2.1,2.47-2.11v-.18c0-.78-.19-1.32-.92-1.32-.36,0-.68.12-.96.3l-.21-.65c.24-.18.78-.38,1.36-.38,1.16,0,1.67.77,1.67,2.08v2.51c0,.44,0,.95.06,1.32h-.84ZM168.91,218.95c-.48,0-1.6.08-1.6,1.34,0,.76.38,1.03.71,1.03.41,0,.76-.3.86-.88.02-.11.02-.23.02-.32v-1.18Z"/>
      <path class="cls-4" d="M173,213.65h.92v3.12h.02c.12-.2.3-.38.48-.5.21-.13.44-.22.78-.22.73,0,1.36.59,1.36,2.05v3.85h-.92v-3.74c0-.71-.16-1.38-.78-1.38-.43,0-.76.31-.9.92-.02.13-.04.3-.04.44v3.75h-.92v-8.3Z"/>
      <path class="cls-4" d="M180.15,221.95l-.06-.61h-.04c-.25.44-.66.71-1.15.71-.78,0-1.38-.66-1.38-1.65,0-1.45,1.16-2.1,2.47-2.11v-.18c0-.78-.19-1.32-.92-1.32-.36,0-.68.12-.96.3l-.2-.65c.24-.18.78-.38,1.36-.38,1.16,0,1.67.77,1.67,2.08v2.51c0,.44,0,.95.06,1.32h-.84ZM180.02,218.95c-.48,0-1.6.08-1.6,1.34,0,.76.38,1.03.71,1.03.41,0,.76-.3.86-.88.03-.11.03-.23.03-.32v-1.18Z"/>
      <path class="cls-4" d="M185.06,221.81c-.2.12-.55.22-.96.22-1.27,0-2.12-1.02-2.12-2.94,0-1.67.84-3.02,2.29-3.02.31,0,.65.08.81.18l-.18.76c-.12-.06-.36-.16-.66-.16-.92,0-1.34,1.1-1.34,2.24,0,1.35.52,2.17,1.37,2.17.25,0,.46-.06.67-.16l.12.71Z"/>
      <path class="cls-4" d="M186.43,219.13c.01,1.77.71,2.16,1.38,2.16.4,0,.73-.1.96-.23l.14.68c-.32.18-.82.28-1.27.28-1.39,0-2.11-1.14-2.11-2.91,0-1.88.79-3.06,1.96-3.06s1.66,1.25,1.66,2.57c0,.22,0,.37-.01.52h-2.7ZM188.25,218.45c.03-1.16-.42-1.68-.86-1.68-.6,0-.91.89-.95,1.68h1.81Z"/>
      <path class="cls-4" d="M190.13,217.65c0-.49-.04-1.07-.05-1.5h.83l.05.91h.02c.19-.55.68-1.01,1.22-1.01.07,0,.13.01.19.01v.95c-.06-.01-.12-.01-.19-.01-.59,0-1.02.54-1.12,1.21-.02.16-.04.34-.04.53v3.21h-.92v-4.31Z"/>
    </g>
    <g>
      <path class="cls-4" d="M107.21,221.35h-.04c-.19.4-.59.7-1.12.7-.94,0-1.68-1.02-1.68-2.93,0-2.05.87-3.07,1.82-3.07.37,0,.8.17,1.08.77h.03s.05-.67.05-.67h.83c-.02.41-.05.92-.05,1.81v6.3h-.92v-2.9ZM107.21,218.32c0-.12,0-.28-.03-.38-.07-.61-.43-1.09-.84-1.09-.75,0-1.04,1.01-1.04,2.23s.31,2.21,1.02,2.21c.29,0,.65-.17.84-.97.05-.14.05-.34.05-.49v-1.5Z"/>
      <path class="cls-4" d="M112.9,220.37c0,.65.04,1.15.05,1.58h-.8l-.06-.61h-.02c-.18.29-.62.71-1.25.71-1.02,0-1.41-.79-1.41-2.23v-3.67h.92v3.54c0,.91.14,1.58.78,1.58.54,0,.78-.5.83-.77.04-.16.05-.34.05-.53v-3.83h.92v4.22Z"/>
      <path class="cls-4" d="M114.84,219.13c.01,1.77.71,2.16,1.38,2.16.39,0,.73-.1.96-.23l.14.68c-.32.18-.82.28-1.27.28-1.39,0-2.11-1.14-2.11-2.91,0-1.88.79-3.06,1.96-3.06s1.65,1.25,1.65,2.57c0,.22,0,.37-.01.52h-2.7ZM116.66,218.45c.02-1.16-.42-1.68-.86-1.68-.6,0-.91.89-.95,1.68h1.81Z"/>
      <path class="cls-4" d="M120.28,220.99c.2.13.56.3.94.3.53,0,.85-.32.85-.84,0-.44-.16-.74-.74-1.14-.76-.49-1.16-.98-1.16-1.65,0-.94.7-1.61,1.59-1.61.46,0,.8.16,1.04.3l-.25.7c-.22-.14-.47-.25-.77-.25-.5,0-.76.36-.76.73,0,.4.14.61.72,1.01.67.43,1.2.96,1.2,1.76,0,1.16-.79,1.73-1.74,1.73-.43,0-.9-.13-1.15-.34l.23-.7Z"/>
      <path class="cls-4" d="M124.55,219.13c.01,1.77.71,2.16,1.38,2.16.4,0,.73-.1.96-.23l.14.68c-.32.18-.82.28-1.27.28-1.39,0-2.11-1.14-2.11-2.91,0-1.88.79-3.06,1.96-3.06s1.66,1.25,1.66,2.57c0,.22,0,.37-.01.52h-2.7ZM126.37,218.45c.03-1.16-.42-1.68-.86-1.68-.6,0-.91.89-.95,1.68h1.81Z"/>
      <path class="cls-4" d="M133.62,220.37c0,.65.04,1.15.05,1.58h-.8l-.06-.61h-.03c-.18.29-.62.71-1.25.71-1.02,0-1.42-.79-1.42-2.23v-3.67h.92v3.54c0,.91.14,1.58.78,1.58.54,0,.78-.5.83-.77.04-.16.05-.34.05-.53v-3.83h.92v4.22Z"/>
      <path class="cls-4" d="M136.04,214.61v1.54h1.12v.71h-1.12v3.44c0,.76.28.96.61.96.14,0,.26-.01.37-.04l.04.71c-.17.06-.38.1-.69.1-.36,0-.68-.1-.91-.35-.23-.26-.35-.66-.35-1.46v-3.36h-.71v-.71h.71v-1.27l.92-.26Z"/>
      <path class="cls-4" d="M138.97,214.65c.01.36-.22.6-.56.6-.3,0-.53-.24-.53-.6s.24-.6.54-.6c.34,0,.55.24.55.6ZM137.98,221.95v-5.8h.92v5.8h-.92Z"/>
      <path class="cls-4" d="M140.18,213.65h.92v8.3h-.92v-8.3Z"/>
      <path class="cls-4" d="M143.47,214.65c.01.36-.22.6-.56.6-.3,0-.53-.24-.53-.6s.24-.6.54-.6c.34,0,.55.24.55.6ZM142.48,221.95v-5.8h.92v5.8h-.92Z"/>
      <path class="cls-4" d="M144.23,221.39l1.84-3.59c.15-.3.33-.6.47-.86v-.02h-2.07v-.77h3.09v.61l-1.81,3.54c-.16.3-.34.6-.47.86v.02h2.28v.77h-3.32v-.56Z"/>
      <path class="cls-4" d="M150.73,221.95l-.06-.61h-.04c-.25.44-.66.71-1.15.71-.78,0-1.38-.66-1.38-1.65,0-1.45,1.16-2.1,2.47-2.11v-.18c0-.78-.19-1.32-.92-1.32-.36,0-.68.12-.96.3l-.2-.65c.24-.18.78-.38,1.36-.38,1.16,0,1.67.77,1.67,2.08v2.51c0,.44,0,.95.06,1.32h-.84ZM150.6,218.95c-.48,0-1.6.08-1.6,1.34,0,.76.38,1.03.71,1.03.41,0,.76-.3.86-.88.03-.11.03-.23.03-.32v-1.18Z"/>
      <path class="cls-4" d="M154.68,217.96c0-.89-.04-1.4-.05-1.81h.83l.05.74h.02c.31-.62.77-.84,1.22-.84,1.01,0,1.68,1.08,1.68,2.99,0,2.15-.89,3.01-1.8,3.01-.54,0-.85-.35-1.01-.67h-.02v2.88h-.92v-6.3ZM155.6,219.82c0,.18,0,.35.04.48.18.83.6.98.85.98.77,0,1.01-1.06,1.01-2.23s-.29-2.21-1.02-2.21c-.42,0-.79.53-.85,1.06-.02.14-.02.29-.02.44v1.48Z"/>
      <path class="cls-4" d="M161.77,221.95l-.06-.61h-.04c-.25.44-.66.71-1.15.71-.78,0-1.38-.66-1.38-1.65,0-1.45,1.16-2.1,2.47-2.11v-.18c0-.78-.19-1.32-.92-1.32-.36,0-.68.12-.96.3l-.21-.65c.24-.18.78-.38,1.36-.38,1.16,0,1.67.77,1.67,2.08v2.51c0,.44,0,.95.06,1.32h-.84ZM161.64,218.95c-.48,0-1.6.08-1.6,1.34,0,.76.38,1.03.71,1.03.41,0,.76-.3.86-.88.02-.11.02-.23.02-.32v-1.18Z"/>
      <path class="cls-4" d="M163.84,217.65c0-.49-.04-1.07-.05-1.5h.83l.05.91h.02c.19-.55.68-1.01,1.22-1.01.07,0,.13.01.19.01v.95c-.06-.01-.12-.01-.19-.01-.59,0-1.02.54-1.12,1.21-.02.16-.04.34-.04.53v3.21h-.92v-4.31Z"/>
      <path class="cls-4" d="M169.04,221.95l-.06-.61h-.04c-.25.44-.66.71-1.15.71-.78,0-1.38-.66-1.38-1.65,0-1.45,1.16-2.1,2.47-2.11v-.18c0-.78-.19-1.32-.92-1.32-.36,0-.68.12-.96.3l-.21-.65c.24-.18.78-.38,1.36-.38,1.16,0,1.67.77,1.67,2.08v2.51c0,.44,0,.95.06,1.32h-.84ZM168.91,218.95c-.48,0-1.6.08-1.6,1.34,0,.76.38,1.03.71,1.03.41,0,.76-.3.86-.88.02-.11.02-.23.02-.32v-1.18Z"/>
      <path class="cls-4" d="M173,213.65h.92v3.12h.02c.12-.2.3-.38.48-.5.21-.13.44-.22.78-.22.73,0,1.36.59,1.36,2.05v3.85h-.92v-3.74c0-.71-.16-1.38-.78-1.38-.43,0-.76.31-.9.92-.02.13-.04.3-.04.44v3.75h-.92v-8.3Z"/>
      <path class="cls-4" d="M180.15,221.95l-.06-.61h-.04c-.25.44-.66.71-1.15.71-.78,0-1.38-.66-1.38-1.65,0-1.45,1.16-2.1,2.47-2.11v-.18c0-.78-.19-1.32-.92-1.32-.36,0-.68.12-.96.3l-.2-.65c.24-.18.78-.38,1.36-.38,1.16,0,1.67.77,1.67,2.08v2.51c0,.44,0,.95.06,1.32h-.84ZM180.02,218.95c-.48,0-1.6.08-1.6,1.34,0,.76.38,1.03.71,1.03.41,0,.76-.3.86-.88.03-.11.03-.23.03-.32v-1.18Z"/>
      <path class="cls-4" d="M185.06,221.81c-.2.12-.55.22-.96.22-1.27,0-2.12-1.02-2.12-2.94,0-1.67.84-3.02,2.29-3.02.31,0,.65.08.81.18l-.18.76c-.12-.06-.36-.16-.66-.16-.92,0-1.34,1.1-1.34,2.24,0,1.35.52,2.17,1.37,2.17.25,0,.46-.06.67-.16l.12.71Z"/>
      <path class="cls-4" d="M186.43,219.13c.01,1.77.71,2.16,1.38,2.16.4,0,.73-.1.96-.23l.14.68c-.32.18-.82.28-1.27.28-1.39,0-2.11-1.14-2.11-2.91,0-1.88.79-3.06,1.96-3.06s1.66,1.25,1.66,2.57c0,.22,0,.37-.01.52h-2.7ZM188.25,218.45c.03-1.16-.42-1.68-.86-1.68-.6,0-.91.89-.95,1.68h1.81Z"/>
      <path class="cls-4" d="M190.13,217.65c0-.49-.04-1.07-.05-1.5h.83l.05.91h.02c.19-.55.68-1.01,1.22-1.01.07,0,.13.01.19.01v.95c-.06-.01-.12-.01-.19-.01-.59,0-1.02.54-1.12,1.21-.02.16-.04.34-.04.53v3.21h-.92v-4.31Z"/>
    </g>
  </g>
  <g>
    <path class="cls-4" d="M135.32,251.97c-.08-1.42-.16-3.01-.11-4.23h-.06c-.24,1.2-.53,2.48-.87,3.75l-1.33,5.06h-.78l-1.26-4.85c-.35-1.38-.67-2.71-.88-3.95h-.05c0,1.26-.06,2.77-.13,4.31l-.21,4.56h-1.1l.64-10.79h1.33l1.26,4.93c.37,1.42.64,2.48.86,3.71h.05c.21-1.23.45-2.26.8-3.71l1.22-4.93h1.38l.62,10.79h-1.15l-.22-4.64Z"/>
    <path class="cls-4" d="M144.04,251.14c0,4.05-1.39,5.6-3.12,5.6s-2.99-1.9-2.99-5.54,1.28-5.51,3.17-5.51,2.95,2,2.95,5.44ZM139.21,251.22c0,2.22.43,4.43,1.79,4.43s1.76-2.35,1.76-4.47-.37-4.4-1.78-4.4-1.78,2.24-1.78,4.43Z"/>
    <path class="cls-4" d="M145.51,245.82h1.23v9.75h3.04v1.04h-4.27v-10.79Z"/>
    <path class="cls-4" d="M151.02,245.98c.48-.14,1.04-.21,1.67-.21,1.14,0,1.94.29,2.53.82.83.72,1.46,2.11,1.46,4.37,0,2.47-.61,3.81-1.3,4.55-.71.8-1.73,1.17-2.98,1.17-.5,0-1.01-.03-1.38-.11v-10.58ZM152.25,255.6c.18.03.35.03.46.03,1.36,0,2.67-.98,2.67-4.64,0-2.72-.83-4.21-2.56-4.21-.19,0-.42.02-.58.06v8.76Z"/>
    <path class="cls-4" d="M162.08,251.49h-2.71v4.05h3.07v1.07h-4.31v-10.79h4.11v1.07h-2.88v3.55h2.71v1.04Z"/>
    <path class="cls-4" d="M163.56,255.19c.37.24,1.01.43,1.55.43,1.12,0,1.79-.74,1.79-1.83,0-.99-.58-1.6-1.42-2.24-.85-.59-2.03-1.6-2.03-2.99,0-1.63,1.14-2.83,2.85-2.83.67,0,1.26.21,1.52.4l-.3,1.06c-.27-.19-.72-.37-1.28-.37-1.06,0-1.55.8-1.55,1.54,0,1.07.56,1.49,1.58,2.22,1.3.91,1.87,1.9,1.87,3.11,0,1.86-1.31,3.03-3.03,3.03-.74,0-1.52-.24-1.82-.46l.27-1.06Z"/>
  </g>
  <rect class="cls-2" x="122.42" y="238.55" width="51.61" height="25.34" rx="7.06" ry="7.06"/>
  <line class="cls-2" x1="148.22" y1="129.42" x2="148.22" y2="171.32"/>
  <g>
    <g>
      <path class="cls-3" d="M137.66,151.9c.01,1.77.71,2.16,1.38,2.16.39,0,.73-.1.96-.23l.14.68c-.32.18-.82.28-1.27.28-1.39,0-2.11-1.14-2.11-2.91,0-1.88.79-3.06,1.96-3.06s1.65,1.25,1.65,2.57c0,.22,0,.37-.01.52h-2.7ZM139.49,151.21c.02-1.16-.42-1.68-.86-1.68-.6,0-.91.89-.95,1.68h1.81Z"/>
      <path class="cls-3" d="M141.22,153.76c.2.13.56.3.94.3.53,0,.85-.32.85-.84,0-.44-.16-.74-.74-1.14-.76-.49-1.16-.98-1.16-1.65,0-.94.7-1.61,1.59-1.61.46,0,.8.16,1.04.3l-.25.7c-.22-.14-.47-.25-.77-.25-.5,0-.76.36-.76.73,0,.4.14.61.72,1.01.67.43,1.2.96,1.2,1.76,0,1.16-.79,1.73-1.74,1.73-.43,0-.9-.13-1.15-.34l.23-.7Z"/>
      <path class="cls-3" d="M150.2,153.13c0,.65.04,1.15.05,1.58h-.8l-.06-.61h-.03c-.18.29-.62.71-1.25.71-1.02,0-1.42-.79-1.42-2.23v-3.67h.92v3.54c0,.91.14,1.58.78,1.58.54,0,.78-.5.83-.77.04-.16.05-.34.05-.53v-3.83h.92v4.22Z"/>
      <path class="cls-3" d="M151.5,150.41c0-.68-.04-1.03-.05-1.5h.8l.05.7h.02c.25-.47.72-.79,1.33-.79.8,0,1.4.6,1.4,2v3.9h-.92v-3.74c0-.68-.13-1.38-.8-1.38-.38,0-.76.32-.88.95-.03.14-.04.32-.04.52v3.66h-.92v-4.31Z"/>
      <path class="cls-3" d="M158.65,154.72l-.06-.61h-.04c-.25.44-.66.71-1.15.71-.78,0-1.38-.66-1.38-1.65,0-1.45,1.16-2.1,2.47-2.11v-.18c0-.78-.19-1.32-.92-1.32-.36,0-.68.12-.96.3l-.21-.65c.24-.18.78-.38,1.36-.38,1.16,0,1.67.77,1.67,2.08v2.51c0,.44,0,.95.06,1.32h-.84ZM158.52,151.72c-.48,0-1.6.08-1.6,1.34,0,.76.38,1.03.71,1.03.41,0,.76-.3.86-.88.02-.11.02-.23.02-.32v-1.18Z"/>
    </g>
    <g>
      <path class="cls-4" d="M137.66,151.9c.01,1.77.71,2.16,1.38,2.16.39,0,.73-.1.96-.23l.14.68c-.32.18-.82.28-1.27.28-1.39,0-2.11-1.14-2.11-2.91,0-1.88.79-3.06,1.96-3.06s1.65,1.25,1.65,2.57c0,.22,0,.37-.01.52h-2.7ZM139.49,151.21c.02-1.16-.42-1.68-.86-1.68-.6,0-.91.89-.95,1.68h1.81Z"/>
      <path class="cls-4" d="M141.22,153.76c.2.13.56.3.94.3.53,0,.85-.32.85-.84,0-.44-.16-.74-.74-1.14-.76-.49-1.16-.98-1.16-1.65,0-.94.7-1.61,1.59-1.61.46,0,.8.16,1.04.3l-.25.7c-.22-.14-.47-.25-.77-.25-.5,0-.76.36-.76.73,0,.4.14.61.72,1.01.67.43,1.2.96,1.2,1.76,0,1.16-.79,1.73-1.74,1.73-.43,0-.9-.13-1.15-.34l.23-.7Z"/>
      <path class="cls-4" d="M150.2,153.13c0,.65.04,1.15.05,1.58h-.8l-.06-.61h-.03c-.18.29-.62.71-1.25.71-1.02,0-1.42-.79-1.42-2.23v-3.67h.92v3.54c0,.91.14,1.58.78,1.58.54,0,.78-.5.83-.77.04-.16.05-.34.05-.53v-3.83h.92v4.22Z"/>
      <path class="cls-4" d="M151.5,150.41c0-.68-.04-1.03-.05-1.5h.8l.05.7h.02c.25-.47.72-.79,1.33-.79.8,0,1.4.6,1.4,2v3.9h-.92v-3.74c0-.68-.13-1.38-.8-1.38-.38,0-.76.32-.88.95-.03.14-.04.32-.04.52v3.66h-.92v-4.31Z"/>
      <path class="cls-4" d="M158.65,154.72l-.06-.61h-.04c-.25.44-.66.71-1.15.71-.78,0-1.38-.66-1.38-1.65,0-1.45,1.16-2.1,2.47-2.11v-.18c0-.78-.19-1.32-.92-1.32-.36,0-.68.12-.96.3l-.21-.65c.24-.18.78-.38,1.36-.38,1.16,0,1.67.77,1.67,2.08v2.51c0,.44,0,.95.06,1.32h-.84ZM158.52,151.72c-.48,0-1.6.08-1.6,1.34,0,.76.38,1.03.71,1.03.41,0,.76-.3.86-.88.02-.11.02-.23.02-.32v-1.18Z"/>
    </g>
    <g>
      <path class="cls-4" d="M137.66,151.9c.01,1.77.71,2.16,1.38,2.16.39,0,.73-.1.96-.23l.14.68c-.32.18-.82.28-1.27.28-1.39,0-2.11-1.14-2.11-2.91,0-1.88.79-3.06,1.96-3.06s1.65,1.25,1.65,2.57c0,.22,0,.37-.01.52h-2.7ZM139.49,151.21c.02-1.16-.42-1.68-.86-1.68-.6,0-.91.89-.95,1.68h1.81Z"/>
      <path class="cls-4" d="M141.22,153.76c.2.13.56.3.94.3.53,0,.85-.32.85-.84,0-.44-.16-.74-.74-1.14-.76-.49-1.16-.98-1.16-1.65,0-.94.7-1.61,1.59-1.61.46,0,.8.16,1.04.3l-.25.7c-.22-.14-.47-.25-.77-.25-.5,0-.76.36-.76.73,0,.4.14.61.72,1.01.67.43,1.2.96,1.2,1.76,0,1.16-.79,1.73-1.74,1.73-.43,0-.9-.13-1.15-.34l.23-.7Z"/>
      <path class="cls-4" d="M150.2,153.13c0,.65.04,1.15.05,1.58h-.8l-.06-.61h-.03c-.18.29-.62.71-1.25.71-1.02,0-1.42-.79-1.42-2.23v-3.67h.92v3.54c0,.91.14,1.58.78,1.58.54,0,.78-.5.83-.77.04-.16.05-.34.05-.53v-3.83h.92v4.22Z"/>
      <path class="cls-4" d="M151.5,150.41c0-.68-.04-1.03-.05-1.5h.8l.05.7h.02c.25-.47.72-.79,1.33-.79.8,0,1.4.6,1.4,2v3.9h-.92v-3.74c0-.68-.13-1.38-.8-1.38-.38,0-.76.32-.88.95-.03.14-.04.32-.04.52v3.66h-.92v-4.31Z"/>
      <path class="cls-4" d="M158.65,154.72l-.06-.61h-.04c-.25.44-.66.71-1.15.71-.78,0-1.38-.66-1.38-1.65,0-1.45,1.16-2.1,2.47-2.11v-.18c0-.78-.19-1.32-.92-1.32-.36,0-.68.12-.96.3l-.21-.65c.24-.18.78-.38,1.36-.38,1.16,0,1.67.77,1.67,2.08v2.51c0,.44,0,.95.06,1.32h-.84ZM158.52,151.72c-.48,0-1.6.08-1.6,1.34,0,.76.38,1.03.71,1.03.41,0,.76-.3.86-.88.02-.11.02-.23.02-.32v-1.18Z"/>
    </g>
  </g>
  <line class="cls-2" x1="148.22" y1="305.79" x2="148.22" y2="323.46"/>
  <line class="cls-2" x1="148.22" y1="348.8" x2="148.22" y2="366.47"/>
  <g>
    <path class="cls-4" d="M272.48,341.33c-.34.18-.86.29-1.54.29-2.11,0-3.62-1.7-3.62-5.36,0-4.26,2.11-5.62,3.81-5.62.66,0,1.12.13,1.34.27l-.27,1.04c-.26-.11-.53-.22-1.09-.22-1.15,0-2.5,1.12-2.5,4.42s1.22,4.39,2.53,4.39c.46,0,.88-.11,1.14-.24l.19,1.04Z"/>
    <path class="cls-4" d="M275.13,338.29l-.72,3.23h-1.18l2.46-10.79h1.36l2.4,10.79h-1.22l-.72-3.23h-2.38ZM277.36,337.29l-.56-2.74c-.16-.77-.3-1.66-.43-2.46h-.06c-.13.82-.29,1.75-.43,2.46l-.56,2.74h2.05Z"/>
    <path class="cls-4" d="M281.74,330.73v7.24c0,1.94.64,2.59,1.47,2.59.91,0,1.49-.7,1.49-2.59v-7.24h1.23v7.04c0,2.8-1.15,3.87-2.75,3.87s-2.67-1.06-2.67-3.73v-7.19h1.23Z"/>
    <path class="cls-4" d="M292.54,341.33c-.34.18-.86.29-1.54.29-2.11,0-3.62-1.7-3.62-5.36,0-4.26,2.11-5.62,3.81-5.62.66,0,1.12.13,1.34.27l-.27,1.04c-.26-.11-.53-.22-1.09-.22-1.15,0-2.5,1.12-2.5,4.42s1.22,4.39,2.53,4.39c.46,0,.88-.11,1.14-.24l.19,1.04Z"/>
    <path class="cls-4" d="M295.04,330.73v4.63h3.02v-4.63h1.23v10.79h-1.23v-5.04h-3.02v5.04h-1.23v-10.79h1.23Z"/>
    <path class="cls-4" d="M306.88,336.05c0,4.05-1.39,5.6-3.12,5.6s-2.99-1.9-2.99-5.54,1.28-5.51,3.17-5.51,2.95,2,2.95,5.44ZM302.04,336.13c0,2.22.43,4.43,1.79,4.43s1.76-2.35,1.76-4.47-.37-4.4-1.78-4.4-1.78,2.24-1.78,4.43Z"/>
  </g>
  <rect class="cls-2" x="262.38" y="323.46" width="49.44" height="25.34" rx="7.06" ry="7.06"/>
  <g>
    <path class="cls-4" d="M5.39,340.1c.37.24,1.01.43,1.55.43,1.12,0,1.79-.74,1.79-1.83,0-.99-.58-1.6-1.42-2.24-.85-.59-2.03-1.6-2.03-2.99,0-1.63,1.14-2.83,2.85-2.83.67,0,1.26.21,1.52.4l-.3,1.06c-.27-.19-.72-.37-1.28-.37-1.06,0-1.55.8-1.55,1.54,0,1.07.56,1.49,1.59,2.22,1.29.91,1.87,1.9,1.87,3.11,0,1.86-1.31,3.03-3.03,3.03-.73,0-1.52-.24-1.82-.46l.27-1.06Z"/>
    <path class="cls-4" d="M12.63,330.73v10.79h-1.23v-10.79h1.23Z"/>
    <path class="cls-4" d="M14.59,330.73h1.23v9.75h3.04v1.04h-4.27v-10.79Z"/>
    <path class="cls-4" d="M21.32,330.73v10.79h-1.23v-10.79h1.23Z"/>
    <path class="cls-4" d="M27.98,341.33c-.34.18-.86.29-1.54.29-2.11,0-3.62-1.7-3.62-5.36,0-4.26,2.11-5.62,3.81-5.62.66,0,1.12.13,1.34.27l-.27,1.04c-.26-.11-.53-.22-1.09-.22-1.15,0-2.5,1.12-2.5,4.42s1.22,4.39,2.53,4.39c.46,0,.88-.11,1.14-.24l.19,1.04Z"/>
    <path class="cls-4" d="M34.64,336.05c0,4.05-1.39,5.6-3.12,5.6s-2.99-1.9-2.99-5.54,1.28-5.51,3.17-5.51,2.95,2,2.95,5.44ZM29.8,336.13c0,2.22.43,4.43,1.79,4.43s1.76-2.35,1.76-4.47-.37-4.4-1.78-4.4-1.78,2.24-1.78,4.43Z"/>
    <path class="cls-4" d="M36.1,341.52v-10.79h1.17l1.98,5.06c.45,1.15,1.01,2.59,1.38,3.76h.03c-.1-1.7-.14-3.09-.14-4.96v-3.86h1.1v10.79h-1.17l-2.05-5.19c-.43-1.09-.9-2.32-1.28-3.67h-.03c.1,1.44.13,2.82.13,5.12v3.73h-1.12Z"/>
    <path class="cls-4" d="M44.84,338.29l-.72,3.23h-1.18l2.46-10.79h1.36l2.4,10.79h-1.22l-.72-3.23h-2.38ZM47.07,337.29l-.56-2.74c-.16-.77-.3-1.66-.43-2.46h-.06c-.13.82-.29,1.75-.43,2.46l-.56,2.74h2.05Z"/>
  </g>
  <rect class="cls-2" x=".75" y="323.46" width="52.71" height="25.34" rx="7.06" ry="7.06"/>
  <g>
    <path class="cls-4" d="M138.32,341.52v-4.56l-2.37-6.23h1.3l.96,2.71c.27.75.56,1.6.8,2.43h.03c.22-.83.5-1.65.79-2.48l.91-2.66h1.3l-2.48,6.18v4.61h-1.23Z"/>
    <path class="cls-4" d="M146.99,336.4h-2.71v4.05h3.07v1.07h-4.31v-10.79h4.11v1.07h-2.88v3.55h2.71v1.04Z"/>
    <path class="cls-4" d="M148.47,340.1c.37.24,1.01.43,1.55.43,1.12,0,1.79-.74,1.79-1.83,0-.99-.58-1.6-1.43-2.24-.85-.59-2.03-1.6-2.03-2.99,0-1.63,1.14-2.83,2.85-2.83.67,0,1.27.21,1.52.4l-.3,1.06c-.27-.19-.72-.37-1.28-.37-1.06,0-1.55.8-1.55,1.54,0,1.07.56,1.49,1.58,2.22,1.3.91,1.87,1.9,1.87,3.11,0,1.86-1.31,3.03-3.03,3.03-.74,0-1.52-.24-1.82-.46l.27-1.06Z"/>
    <path class="cls-4" d="M160.16,336.05c0,4.05-1.39,5.6-3.12,5.6s-2.99-1.9-2.99-5.54,1.28-5.51,3.17-5.51,2.95,2,2.95,5.44ZM155.32,336.13c0,2.22.43,4.43,1.79,4.43s1.76-2.35,1.76-4.47-.37-4.4-1.78-4.4-1.78,2.24-1.78,4.43Z"/>
  </g>
  <rect class="cls-2" x="130.52" y="323.46" width="35.41" height="25.34" rx="7.06" ry="7.06"/>
  <line class="cls-2" x1="215.2" y1="305.79" x2="215.2" y2="323.46"/>
  <line class="cls-2" x1="215.2" y1="348.8" x2="215.2" y2="366.47"/>
  <g>
    <path class="cls-4" d="M197.56,341.33c-.34.18-.86.29-1.54.29-2.11,0-3.62-1.7-3.62-5.36,0-4.26,2.11-5.62,3.81-5.62.66,0,1.12.13,1.34.27l-.27,1.04c-.26-.11-.53-.22-1.09-.22-1.15,0-2.5,1.12-2.5,4.42s1.22,4.39,2.53,4.39c.46,0,.88-.11,1.14-.24l.19,1.04Z"/>
    <path class="cls-4" d="M202.76,336.4h-2.71v4.05h3.07v1.07h-4.31v-10.79h4.12v1.07h-2.88v3.55h2.71v1.04Z"/>
    <path class="cls-4" d="M211.02,336.88c-.08-1.42-.16-3.01-.11-4.23h-.06c-.24,1.2-.53,2.48-.87,3.75l-1.33,5.06h-.78l-1.27-4.85c-.35-1.38-.67-2.71-.88-3.95h-.05c0,1.26-.06,2.77-.13,4.31l-.21,4.56h-1.11l.64-10.79h1.33l1.27,4.93c.37,1.42.64,2.48.86,3.71h.05c.21-1.23.45-2.26.8-3.71l1.22-4.93h1.38l.62,10.79h-1.15l-.22-4.64Z"/>
    <path class="cls-4" d="M218.01,336.4h-2.71v4.05h3.07v1.07h-4.31v-10.79h4.12v1.07h-2.88v3.55h2.71v1.04Z"/>
    <path class="cls-4" d="M219.74,341.52v-10.79h1.17l1.98,5.06c.45,1.15,1.01,2.59,1.38,3.76h.03c-.1-1.7-.14-3.09-.14-4.96v-3.86h1.11v10.79h-1.17l-2.05-5.19c-.43-1.09-.9-2.32-1.28-3.67h-.03c.1,1.44.13,2.82.13,5.12v3.73h-1.12Z"/>
    <path class="cls-4" d="M228.44,331.84h-1.97v-1.1h5.17v1.1h-1.97v9.68h-1.23v-9.68Z"/>
    <path class="cls-4" d="M238,336.05c0,4.05-1.39,5.6-3.12,5.6s-2.99-1.9-2.99-5.54,1.28-5.51,3.17-5.51,2.95,2,2.95,5.44ZM233.16,336.13c0,2.22.43,4.43,1.79,4.43s1.76-2.35,1.76-4.47-.37-4.4-1.78-4.4-1.78,2.24-1.78,4.43Z"/>
  </g>
  <rect class="cls-2" x="187.71" y="323.46" width="54.98" height="25.34" rx="7.06" ry="7.06"/>
  <line class="cls-2" x1="90.92" y1="305.79" x2="90.92" y2="323.46"/>
  <line class="cls-2" x1="90.92" y1="348.8" x2="90.92" y2="366.47"/>
  <g>
    <path class="cls-4" d="M83.98,341.33c-.34.18-.87.29-1.54.29-2.11,0-3.62-1.7-3.62-5.36,0-4.26,2.11-5.62,3.81-5.62.66,0,1.12.13,1.35.27l-.27,1.04c-.26-.11-.53-.22-1.09-.22-1.15,0-2.5,1.12-2.5,4.42s1.22,4.39,2.53,4.39c.46,0,.88-.11,1.14-.24l.19,1.04Z"/>
    <path class="cls-4" d="M89.18,336.4h-2.71v4.05h3.07v1.07h-4.31v-10.79h4.11v1.07h-2.88v3.55h2.71v1.04Z"/>
    <path class="cls-4" d="M90.9,330.89c.53-.14,1.17-.21,1.78-.21,1.07,0,1.87.22,2.43.77.53.54.75,1.26.75,2.11,0,1.38-.64,2.27-1.73,2.77v.03c.8.24,1.22,1.01,1.46,2.42.24,1.49.46,2.4.61,2.74h-1.25c-.16-.32-.37-1.34-.58-2.67-.24-1.47-.7-2.03-1.76-2.03h-.48v4.71h-1.23v-10.63ZM92.13,335.87h.51c1.19,0,1.97-.86,1.97-2.16s-.51-2.02-1.84-2.03c-.24,0-.48.02-.64.06v4.13Z"/>
    <path class="cls-4" d="M98.84,338.29l-.72,3.23h-1.19l2.46-10.79h1.36l2.4,10.79h-1.22l-.72-3.23h-2.38ZM101.06,337.29l-.56-2.74c-.16-.77-.3-1.66-.43-2.46h-.06c-.13.82-.29,1.75-.43,2.46l-.56,2.74h2.05Z"/>
  </g>
  <rect class="cls-2" x="73.07" y="323.46" width="35.71" height="25.34" rx="7.06" ry="7.06"/>
  <path class="cls-2" d="M27.1,322.96v-8.24c0-4.93,4-8.93,8.93-8.93h242.13c4.93,0,8.93,4,8.93,8.93v8.24"/>
  <path class="cls-2" d="M27.1,349.3v8.24c0,4.93,4,8.93,8.93,8.93h242.13c4.93,0,8.93-4,8.93-8.93v-8.24"/>
</svg>