<?xml version="1.0" encoding="UTF-8"?>
<svg id="trazado" xmlns="http://www.w3.org/2000/svg" viewBox="0 0 350.72 325.69">
  <defs>
    <style>
      .cls-1 {
        stroke-width: 1.5px;
      }

      .cls-1, .cls-2, .cls-3 {
        fill: none;
      }

      .cls-1, .cls-3 {
        stroke: #000;
        stroke-miterlimit: 10;
      }

      .cls-4 {
        fill: #1d1d1b;
        stroke-width: 0px;
      }

      .cls-2 {
        stroke: #fff;
        stroke-width: 4px;
      }

      .cls-3 {
        stroke-width: 3px;
      }
    </style>
  </defs>
  <g>
    <path class="cls-4" d="M220.25,317.47c-.34.18-.86.29-1.54.29-2.11,0-3.62-1.7-3.62-5.36,0-4.26,2.11-5.62,3.81-5.62.66,0,1.12.13,1.34.27l-.27,1.04c-.26-.11-.53-.22-1.09-.22-1.15,0-2.5,1.12-2.5,4.42s1.22,4.39,2.53,4.39c.46,0,.88-.11,1.14-.24l.19,1.04Z"/>
    <path class="cls-4" d="M226.9,312.19c0,4.05-1.39,5.6-3.12,5.6s-2.99-1.91-2.99-5.54,1.28-5.51,3.17-5.51,2.95,2,2.95,5.44ZM222.07,312.27c0,2.22.43,4.43,1.79,4.43s1.76-2.35,1.76-4.47-.37-4.4-1.78-4.4-1.78,2.24-1.78,4.43Z"/>
    <path class="cls-4" d="M228.37,317.66v-10.79h1.17l1.98,5.06c.45,1.15,1.01,2.59,1.38,3.76h.03c-.1-1.7-.14-3.09-.14-4.96v-3.86h1.1v10.79h-1.17l-2.05-5.19c-.43-1.09-.9-2.32-1.28-3.67h-.03c.1,1.44.13,2.82.13,5.12v3.73h-1.12Z"/>
    <path class="cls-4" d="M235.57,316.24c.37.24,1.01.43,1.55.43,1.12,0,1.79-.74,1.79-1.83,0-.99-.58-1.6-1.42-2.24-.85-.59-2.03-1.6-2.03-2.99,0-1.63,1.14-2.83,2.85-2.83.67,0,1.26.21,1.52.4l-.3,1.06c-.27-.19-.72-.37-1.28-.37-1.06,0-1.55.8-1.55,1.54,0,1.07.56,1.49,1.58,2.22,1.3.91,1.87,1.91,1.87,3.11,0,1.86-1.31,3.03-3.03,3.03-.74,0-1.52-.24-1.82-.46l.27-1.06Z"/>
    <path class="cls-4" d="M245.53,312.54h-2.71v4.05h3.07v1.07h-4.31v-10.79h4.11v1.07h-2.88v3.55h2.71v1.04Z"/>
    <path class="cls-4" d="M251.96,317.47c-.34.18-.86.29-1.54.29-2.11,0-3.62-1.7-3.62-5.36,0-4.26,2.11-5.62,3.81-5.62.66,0,1.12.13,1.34.27l-.27,1.04c-.26-.11-.53-.22-1.09-.22-1.15,0-2.5,1.12-2.5,4.42s1.22,4.39,2.53,4.39c.46,0,.88-.11,1.14-.24l.19,1.04Z"/>
    <path class="cls-4" d="M254.44,306.87v7.24c0,1.94.64,2.59,1.47,2.59.91,0,1.49-.7,1.49-2.59v-7.24h1.23v7.04c0,2.8-1.15,3.87-2.75,3.87s-2.67-1.06-2.67-3.73v-7.19h1.23Z"/>
    <path class="cls-4" d="M264.47,312.54h-2.71v4.05h3.07v1.07h-4.31v-10.79h4.11v1.07h-2.88v3.55h2.71v1.04Z"/>
    <path class="cls-4" d="M266.2,317.66v-10.79h1.17l1.98,5.06c.45,1.15,1.01,2.59,1.38,3.76h.03c-.1-1.7-.14-3.09-.14-4.96v-3.86h1.1v10.79h-1.17l-2.05-5.19c-.43-1.09-.9-2.32-1.28-3.67h-.03c.1,1.44.13,2.82.13,5.12v3.73h-1.12Z"/>
    <path class="cls-4" d="M278.34,317.47c-.34.18-.86.29-1.54.29-2.11,0-3.62-1.7-3.62-5.36,0-4.26,2.11-5.62,3.81-5.62.66,0,1.12.13,1.34.27l-.27,1.04c-.26-.11-.53-.22-1.09-.22-1.15,0-2.5,1.12-2.5,4.42s1.22,4.39,2.53,4.39c.46,0,.88-.11,1.14-.24l.19,1.04Z"/>
    <path class="cls-4" d="M280.84,306.87v10.79h-1.23v-10.79h1.23Z"/>
    <path class="cls-4" d="M284.09,314.43l-.72,3.23h-1.18l2.46-10.79h1.36l2.4,10.79h-1.22l-.72-3.23h-2.38ZM286.31,313.44l-.56-2.74c-.16-.77-.3-1.67-.43-2.46h-.06c-.13.82-.29,1.74-.43,2.46l-.56,2.74h2.05Z"/>
    <path class="cls-4" d="M289.51,316.24c.37.24,1.01.43,1.55.43,1.12,0,1.79-.74,1.79-1.83,0-.99-.58-1.6-1.42-2.24-.85-.59-2.03-1.6-2.03-2.99,0-1.63,1.14-2.83,2.85-2.83.67,0,1.26.21,1.52.4l-.3,1.06c-.27-.19-.72-.37-1.28-.37-1.06,0-1.55.8-1.55,1.54,0,1.07.56,1.49,1.58,2.22,1.3.91,1.87,1.91,1.87,3.11,0,1.86-1.31,3.03-3.03,3.03-.74,0-1.52-.24-1.82-.46l.27-1.06Z"/>
    <path class="cls-4" d="M297.8,316.24c.37.24,1.01.43,1.55.43,1.12,0,1.79-.74,1.79-1.83,0-.99-.58-1.6-1.42-2.24-.85-.59-2.03-1.6-2.03-2.99,0-1.63,1.14-2.83,2.85-2.83.67,0,1.26.21,1.52.4l-.3,1.06c-.27-.19-.72-.37-1.28-.37-1.06,0-1.55.8-1.55,1.54,0,1.07.56,1.49,1.58,2.22,1.3.91,1.87,1.91,1.87,3.11,0,1.86-1.31,3.03-3.03,3.03-.74,0-1.52-.24-1.82-.46l.27-1.06Z"/>
    <path class="cls-4" d="M309.48,312.19c0,4.05-1.39,5.6-3.12,5.6s-2.99-1.91-2.99-5.54,1.28-5.51,3.17-5.51,2.95,2,2.95,5.44ZM304.65,312.27c0,2.22.43,4.43,1.79,4.43s1.76-2.35,1.76-4.47-.37-4.4-1.78-4.4-1.78,2.24-1.78,4.43Z"/>
    <path class="cls-4" d="M315.65,317.47c-.34.18-.86.29-1.54.29-2.11,0-3.62-1.7-3.62-5.36,0-4.26,2.11-5.62,3.81-5.62.66,0,1.12.13,1.34.27l-.27,1.04c-.26-.11-.53-.22-1.09-.22-1.15,0-2.5,1.12-2.5,4.42s1.22,4.39,2.53,4.39c.46,0,.88-.11,1.14-.24l.19,1.04Z"/>
    <path class="cls-4" d="M318.15,306.87v10.79h-1.23v-10.79h1.23Z"/>
    <path class="cls-4" d="M321.4,314.43l-.72,3.23h-1.18l2.46-10.79h1.36l2.4,10.79h-1.22l-.72-3.23h-2.38ZM323.62,313.44l-.56-2.74c-.16-.77-.3-1.67-.43-2.46h-.06c-.13.82-.29,1.74-.43,2.46l-.56,2.74h2.05Z"/>
    <path class="cls-4" d="M327.06,306.87h1.23v9.75h3.04v1.04h-4.27v-10.79Z"/>
    <path class="cls-4" d="M336.5,312.54h-2.71v4.05h3.07v1.07h-4.31v-10.79h4.11v1.07h-2.88v3.55h2.71v1.04Z"/>
    <path class="cls-4" d="M337.99,316.24c.37.24,1.01.43,1.55.43,1.12,0,1.79-.74,1.79-1.83,0-.99-.58-1.6-1.42-2.24-.85-.59-2.03-1.6-2.03-2.99,0-1.63,1.14-2.83,2.85-2.83.67,0,1.26.21,1.52.4l-.3,1.06c-.27-.19-.72-.37-1.28-.37-1.06,0-1.55.8-1.55,1.54,0,1.07.56,1.49,1.58,2.22,1.3.91,1.87,1.91,1.87,3.11,0,1.86-1.31,3.03-3.03,3.03-.74,0-1.52-.24-1.82-.46l.27-1.06Z"/>
  </g>
  <rect class="cls-1" x="207.66" y="299.6" width="142.31" height="25.34" rx="7.06" ry="7.06"/>
  <g>
    <path class="cls-4" d="M14.74,317.47c-.34.18-.86.29-1.54.29-2.11,0-3.62-1.7-3.62-5.36,0-4.26,2.11-5.62,3.81-5.62.66,0,1.12.13,1.34.27l-.27,1.04c-.26-.11-.53-.22-1.09-.22-1.15,0-2.5,1.12-2.5,4.42s1.22,4.39,2.53,4.39c.46,0,.88-.11,1.14-.24l.19,1.04Z"/>
    <path class="cls-4" d="M21.4,312.19c0,4.05-1.39,5.6-3.12,5.6s-2.99-1.91-2.99-5.54,1.28-5.51,3.17-5.51,2.95,2,2.95,5.44ZM16.56,312.27c0,2.22.43,4.43,1.79,4.43s1.76-2.35,1.76-4.47-.37-4.4-1.78-4.4-1.78,2.24-1.78,4.43Z"/>
    <path class="cls-4" d="M22.87,317.66v-10.79h1.17l1.98,5.06c.45,1.15,1.01,2.59,1.38,3.76h.03c-.1-1.7-.14-3.09-.14-4.96v-3.86h1.1v10.79h-1.17l-2.05-5.19c-.43-1.09-.9-2.32-1.28-3.67h-.03c.1,1.44.13,2.82.13,5.12v3.73h-1.12Z"/>
    <path class="cls-4" d="M30.07,316.24c.37.24,1.01.43,1.55.43,1.12,0,1.79-.74,1.79-1.83,0-.99-.58-1.6-1.42-2.24-.85-.59-2.03-1.6-2.03-2.99,0-1.63,1.14-2.83,2.85-2.83.67,0,1.26.21,1.52.4l-.3,1.06c-.27-.19-.72-.37-1.28-.37-1.06,0-1.55.8-1.55,1.54,0,1.07.56,1.49,1.58,2.22,1.3.91,1.87,1.91,1.87,3.11,0,1.86-1.31,3.03-3.03,3.03-.74,0-1.52-.24-1.82-.46l.27-1.06Z"/>
    <path class="cls-4" d="M40.02,312.54h-2.71v4.05h3.07v1.07h-4.31v-10.79h4.11v1.07h-2.88v3.55h2.71v1.04Z"/>
    <path class="cls-4" d="M46.45,317.47c-.34.18-.86.29-1.54.29-2.11,0-3.62-1.7-3.62-5.36,0-4.26,2.11-5.62,3.81-5.62.66,0,1.12.13,1.34.27l-.27,1.04c-.26-.11-.53-.22-1.09-.22-1.15,0-2.5,1.12-2.5,4.42s1.22,4.39,2.53,4.39c.46,0,.88-.11,1.14-.24l.19,1.04Z"/>
    <path class="cls-4" d="M48.93,306.87v7.24c0,1.94.64,2.59,1.47,2.59.91,0,1.49-.7,1.49-2.59v-7.24h1.23v7.04c0,2.8-1.15,3.87-2.75,3.87s-2.67-1.06-2.67-3.73v-7.19h1.23Z"/>
    <path class="cls-4" d="M58.96,312.54h-2.71v4.05h3.07v1.07h-4.31v-10.79h4.11v1.07h-2.88v3.55h2.71v1.04Z"/>
    <path class="cls-4" d="M60.69,317.66v-10.79h1.17l1.98,5.06c.45,1.15,1.01,2.59,1.38,3.76h.03c-.1-1.7-.14-3.09-.14-4.96v-3.86h1.1v10.79h-1.17l-2.05-5.19c-.43-1.09-.9-2.32-1.28-3.67h-.03c.1,1.44.13,2.82.13,5.12v3.73h-1.12Z"/>
    <path class="cls-4" d="M72.84,317.47c-.34.18-.86.29-1.54.29-2.11,0-3.62-1.7-3.62-5.36,0-4.26,2.11-5.62,3.81-5.62.66,0,1.12.13,1.34.27l-.27,1.04c-.26-.11-.53-.22-1.09-.22-1.15,0-2.5,1.12-2.5,4.42s1.22,4.39,2.53,4.39c.46,0,.88-.11,1.14-.24l.19,1.04Z"/>
    <path class="cls-4" d="M75.33,306.87v10.79h-1.23v-10.79h1.23Z"/>
    <path class="cls-4" d="M78.58,314.43l-.72,3.23h-1.18l2.46-10.79h1.36l2.4,10.79h-1.22l-.72-3.23h-2.38ZM80.8,313.44l-.56-2.74c-.16-.77-.3-1.67-.43-2.46h-.06c-.13.82-.29,1.74-.43,2.46l-.56,2.74h2.05Z"/>
    <path class="cls-4" d="M84,316.24c.37.24,1.01.43,1.55.43,1.12,0,1.79-.74,1.79-1.83,0-.99-.58-1.6-1.42-2.24-.85-.59-2.03-1.6-2.03-2.99,0-1.63,1.14-2.83,2.85-2.83.67,0,1.26.21,1.52.4l-.3,1.06c-.27-.19-.72-.37-1.28-.37-1.06,0-1.55.8-1.55,1.54,0,1.07.56,1.49,1.58,2.22,1.3.91,1.87,1.91,1.87,3.11,0,1.86-1.31,3.03-3.03,3.03-.74,0-1.52-.24-1.82-.46l.27-1.06Z"/>
    <path class="cls-4" d="M93.83,314.43l-.72,3.23h-1.18l2.46-10.79h1.36l2.4,10.79h-1.22l-.72-3.23h-2.38ZM96.05,313.44l-.56-2.74c-.16-.77-.3-1.67-.43-2.46h-.06c-.13.82-.29,1.74-.43,2.46l-.56,2.74h2.05Z"/>
    <path class="cls-4" d="M105.91,313.02c-.08-1.42-.16-3.01-.11-4.23h-.06c-.24,1.2-.53,2.48-.87,3.75l-1.33,5.06h-.78l-1.26-4.85c-.35-1.38-.67-2.71-.88-3.95h-.05c0,1.26-.06,2.77-.13,4.31l-.21,4.56h-1.1l.64-10.79h1.33l1.26,4.93c.37,1.42.64,2.48.86,3.71h.05c.21-1.23.45-2.26.8-3.71l1.22-4.93h1.38l.62,10.79h-1.15l-.22-4.64Z"/>
    <path class="cls-4" d="M108.96,307.03c.51-.13,1.12-.21,1.81-.21.98,0,1.81.21,2.38.75.46.43.7,1.07.7,1.84,0,1.1-.61,1.98-1.67,2.4v.03c1.25.34,2,1.34,2,2.75,0,.9-.29,1.62-.77,2.14-.61.69-1.62.98-2.85.98-.8,0-1.28-.05-1.62-.11v-10.58ZM110.19,311.45h.56c1.01,0,1.87-.77,1.87-1.9,0-.99-.46-1.76-1.78-1.76-.29,0-.51.03-.66.08v3.58ZM110.19,316.68c.14.03.35.06.62.06,1.28,0,2.11-.75,2.11-2.14,0-1.49-1.04-2.19-2.19-2.21h-.54v4.29Z"/>
    <path class="cls-4" d="M116.85,306.87v10.79h-1.23v-10.79h1.23Z"/>
    <path class="cls-4" d="M122.74,312.54h-2.71v4.05h3.07v1.07h-4.31v-10.79h4.11v1.07h-2.88v3.55h2.71v1.04Z"/>
    <path class="cls-4" d="M124.46,317.66v-10.79h1.17l1.98,5.06c.45,1.15,1.01,2.59,1.38,3.76h.03c-.1-1.7-.14-3.09-.14-4.96v-3.86h1.1v10.79h-1.17l-2.05-5.19c-.43-1.09-.9-2.32-1.28-3.67h-.03c.1,1.44.13,2.82.13,5.12v3.73h-1.12Z"/>
    <path class="cls-4" d="M133.17,307.98h-1.97v-1.1h5.17v1.1h-1.97v9.68h-1.23v-9.68Z"/>
    <path class="cls-4" d="M138.15,314.43l-.72,3.23h-1.18l2.46-10.79h1.36l2.4,10.79h-1.22l-.72-3.23h-2.38ZM140.37,313.44l-.56-2.74c-.16-.77-.3-1.67-.43-2.46h-.06c-.13.82-.29,1.74-.43,2.46l-.56,2.74h2.05Z"/>
    <path class="cls-4" d="M143.81,306.87h1.23v9.75h3.04v1.04h-4.27v-10.79Z"/>
    <path class="cls-4" d="M153.25,312.54h-2.71v4.05h3.07v1.07h-4.31v-10.79h4.11v1.07h-2.88v3.55h2.71v1.04Z"/>
    <path class="cls-4" d="M154.74,316.24c.37.24,1.01.43,1.55.43,1.12,0,1.79-.74,1.79-1.83,0-.99-.58-1.6-1.42-2.24-.85-.59-2.03-1.6-2.03-2.99,0-1.63,1.14-2.83,2.85-2.83.67,0,1.26.21,1.52.4l-.3,1.06c-.27-.19-.72-.37-1.28-.37-1.06,0-1.55.8-1.55,1.54,0,1.07.56,1.49,1.58,2.22,1.3.91,1.87,1.91,1.87,3.11,0,1.86-1.31,3.03-3.03,3.03-.74,0-1.52-.24-1.82-.46l.27-1.06Z"/>
  </g>
  <rect class="cls-1" x=".75" y="299.6" width="167.37" height="25.34" rx="7.06" ry="7.06"/>
  <line class="cls-1" x1="181.13" y1="230.03" x2="181.13" y2="271.93"/>
  <g>
    <g>
      <path class="cls-2" d="M167.33,251.33c0-.89-.04-1.4-.05-1.81h.83l.05.74h.02c.31-.62.77-.84,1.22-.84,1.01,0,1.68,1.08,1.68,2.99,0,2.15-.89,3.01-1.8,3.01-.54,0-.85-.35-1.01-.67h-.02v2.88h-.92v-6.3ZM168.25,253.19c0,.18,0,.35.04.48.18.83.6.98.85.98.77,0,1.01-1.06,1.01-2.23s-.29-2.21-1.02-2.21c-.42,0-.79.53-.85,1.06-.02.14-.02.29-.02.44v1.48Z"/>
      <path class="cls-2" d="M172.12,251.02c0-.49-.04-1.07-.05-1.5h.83l.05.91h.03c.19-.55.68-1.01,1.22-1.01.07,0,.13.01.19.01v.95c-.06-.01-.12-.01-.19-.01-.59,0-1.02.54-1.12,1.21-.02.16-.04.34-.04.53v3.21h-.92v-4.31Z"/>
      <path class="cls-2" d="M178.5,252.42c0,2.24-1.04,3-1.93,3-1.04,0-1.88-.95-1.88-2.99s.95-3.01,1.94-3.01,1.87.97,1.87,3ZM175.61,252.42c0,.96.17,2.27,1.01,2.27.79,0,.95-1.37.95-2.27s-.16-2.25-.97-2.25-.98,1.37-.98,2.25Z"/>
      <path class="cls-2" d="M179.92,249.52l.73,3.26c.08.4.18.91.25,1.42h.04c.06-.48.16-.97.24-1.42l.72-3.26h.91l-1.51,5.8h-.83l-1.51-5.8h.96Z"/>
      <path class="cls-2" d="M187.02,252.42c0,2.24-1.04,3-1.93,3-1.04,0-1.88-.95-1.88-2.99s.95-3.01,1.94-3.01,1.87.97,1.87,3ZM184.13,252.42c0,.96.17,2.27,1.01,2.27.79,0,.95-1.37.95-2.27s-.16-2.25-.97-2.25-.98,1.37-.98,2.25Z"/>
      <path class="cls-2" d="M190.88,255.18c-.2.12-.55.22-.96.22-1.27,0-2.12-1.02-2.12-2.94,0-1.67.84-3.02,2.29-3.02.31,0,.65.08.81.18l-.18.76c-.12-.06-.36-.16-.66-.16-.92,0-1.34,1.1-1.34,2.24,0,1.35.52,2.17,1.37,2.17.25,0,.46-.06.67-.16l.12.71Z"/>
      <path class="cls-2" d="M195.17,252.42c0,2.24-1.04,3-1.93,3-1.04,0-1.88-.95-1.88-2.99s.95-3.01,1.94-3.01,1.87.97,1.87,3ZM192.28,252.42c0,.96.17,2.27,1.01,2.27.79,0,.95-1.37.95-2.27s-.16-2.25-.97-2.25-.98,1.37-.98,2.25ZM194.67,247.15l-1.26,1.62h-.61l.92-1.62h.95Z"/>
    </g>
    <g>
      <path class="cls-4" d="M167.33,251.33c0-.89-.04-1.4-.05-1.81h.83l.05.74h.02c.31-.62.77-.84,1.22-.84,1.01,0,1.68,1.08,1.68,2.99,0,2.15-.89,3.01-1.8,3.01-.54,0-.85-.35-1.01-.67h-.02v2.88h-.92v-6.3ZM168.25,253.19c0,.18,0,.35.04.48.18.83.6.98.85.98.77,0,1.01-1.06,1.01-2.23s-.29-2.21-1.02-2.21c-.42,0-.79.53-.85,1.06-.02.14-.02.29-.02.44v1.48Z"/>
      <path class="cls-4" d="M172.12,251.02c0-.49-.04-1.07-.05-1.5h.83l.05.91h.03c.19-.55.68-1.01,1.22-1.01.07,0,.13.01.19.01v.95c-.06-.01-.12-.01-.19-.01-.59,0-1.02.54-1.12,1.21-.02.16-.04.34-.04.53v3.21h-.92v-4.31Z"/>
      <path class="cls-4" d="M178.5,252.42c0,2.24-1.04,3-1.93,3-1.04,0-1.88-.95-1.88-2.99s.95-3.01,1.94-3.01,1.87.97,1.87,3ZM175.61,252.42c0,.96.17,2.27,1.01,2.27.79,0,.95-1.37.95-2.27s-.16-2.25-.97-2.25-.98,1.37-.98,2.25Z"/>
      <path class="cls-4" d="M179.92,249.52l.73,3.26c.08.4.18.91.25,1.42h.04c.06-.48.16-.97.24-1.42l.72-3.26h.91l-1.51,5.8h-.83l-1.51-5.8h.96Z"/>
      <path class="cls-4" d="M187.02,252.42c0,2.24-1.04,3-1.93,3-1.04,0-1.88-.95-1.88-2.99s.95-3.01,1.94-3.01,1.87.97,1.87,3ZM184.13,252.42c0,.96.17,2.27,1.01,2.27.79,0,.95-1.37.95-2.27s-.16-2.25-.97-2.25-.98,1.37-.98,2.25Z"/>
      <path class="cls-4" d="M190.88,255.18c-.2.12-.55.22-.96.22-1.27,0-2.12-1.02-2.12-2.94,0-1.67.84-3.02,2.29-3.02.31,0,.65.08.81.18l-.18.76c-.12-.06-.36-.16-.66-.16-.92,0-1.34,1.1-1.34,2.24,0,1.35.52,2.17,1.37,2.17.25,0,.46-.06.67-.16l.12.71Z"/>
      <path class="cls-4" d="M195.17,252.42c0,2.24-1.04,3-1.93,3-1.04,0-1.88-.95-1.88-2.99s.95-3.01,1.94-3.01,1.87.97,1.87,3ZM192.28,252.42c0,.96.17,2.27,1.01,2.27.79,0,.95-1.37.95-2.27s-.16-2.25-.97-2.25-.98,1.37-.98,2.25ZM194.67,247.15l-1.26,1.62h-.61l.92-1.62h.95Z"/>
    </g>
    <g>
      <path class="cls-4" d="M167.33,251.33c0-.89-.04-1.4-.05-1.81h.83l.05.74h.02c.31-.62.77-.84,1.22-.84,1.01,0,1.68,1.08,1.68,2.99,0,2.15-.89,3.01-1.8,3.01-.54,0-.85-.35-1.01-.67h-.02v2.88h-.92v-6.3ZM168.25,253.19c0,.18,0,.35.04.48.18.83.6.98.85.98.77,0,1.01-1.06,1.01-2.23s-.29-2.21-1.02-2.21c-.42,0-.79.53-.85,1.06-.02.14-.02.29-.02.44v1.48Z"/>
      <path class="cls-4" d="M172.12,251.02c0-.49-.04-1.07-.05-1.5h.83l.05.91h.03c.19-.55.68-1.01,1.22-1.01.07,0,.13.01.19.01v.95c-.06-.01-.12-.01-.19-.01-.59,0-1.02.54-1.12,1.21-.02.16-.04.34-.04.53v3.21h-.92v-4.31Z"/>
      <path class="cls-4" d="M178.5,252.42c0,2.24-1.04,3-1.93,3-1.04,0-1.88-.95-1.88-2.99s.95-3.01,1.94-3.01,1.87.97,1.87,3ZM175.61,252.42c0,.96.17,2.27,1.01,2.27.79,0,.95-1.37.95-2.27s-.16-2.25-.97-2.25-.98,1.37-.98,2.25Z"/>
      <path class="cls-4" d="M179.92,249.52l.73,3.26c.08.4.18.91.25,1.42h.04c.06-.48.16-.97.24-1.42l.72-3.26h.91l-1.51,5.8h-.83l-1.51-5.8h.96Z"/>
      <path class="cls-4" d="M187.02,252.42c0,2.24-1.04,3-1.93,3-1.04,0-1.88-.95-1.88-2.99s.95-3.01,1.94-3.01,1.87.97,1.87,3ZM184.13,252.42c0,.96.17,2.27,1.01,2.27.79,0,.95-1.37.95-2.27s-.16-2.25-.97-2.25-.98,1.37-.98,2.25Z"/>
      <path class="cls-4" d="M190.88,255.18c-.2.12-.55.22-.96.22-1.27,0-2.12-1.02-2.12-2.94,0-1.67.84-3.02,2.29-3.02.31,0,.65.08.81.18l-.18.76c-.12-.06-.36-.16-.66-.16-.92,0-1.34,1.1-1.34,2.24,0,1.35.52,2.17,1.37,2.17.25,0,.46-.06.67-.16l.12.71Z"/>
      <path class="cls-4" d="M195.17,252.42c0,2.24-1.04,3-1.93,3-1.04,0-1.88-.95-1.88-2.99s.95-3.01,1.94-3.01,1.87.97,1.87,3ZM192.28,252.42c0,.96.17,2.27,1.01,2.27.79,0,.95-1.37.95-2.27s-.16-2.25-.97-2.25-.98,1.37-.98,2.25ZM194.67,247.15l-1.26,1.62h-.61l.92-1.62h.95Z"/>
    </g>
  </g>
  <g>
    <path class="cls-4" d="M134.49,221.33c.37.24,1.01.43,1.55.43,1.12,0,1.79-.74,1.79-1.83,0-.99-.58-1.6-1.42-2.24-.85-.59-2.03-1.6-2.03-2.99,0-1.63,1.14-2.83,2.85-2.83.67,0,1.26.21,1.52.4l-.3,1.06c-.27-.19-.72-.37-1.28-.37-1.06,0-1.55.8-1.55,1.54,0,1.07.56,1.49,1.59,2.22,1.29.91,1.87,1.9,1.87,3.11,0,1.86-1.31,3.03-3.03,3.03-.73,0-1.52-.24-1.82-.46l.27-1.06Z"/>
    <path class="cls-4" d="M146.17,217.28c0,4.05-1.39,5.6-3.12,5.6s-2.99-1.9-2.99-5.54,1.28-5.51,3.17-5.51,2.95,2,2.95,5.44ZM141.34,217.36c0,2.22.43,4.43,1.79,4.43s1.76-2.35,1.76-4.47-.37-4.4-1.78-4.4-1.78,2.24-1.78,4.43Z"/>
    <path class="cls-4" d="M148.7,211.96h1.23v7.75c0,2.42-.97,3.17-2.53,3.17-.3,0-.59-.03-.8-.11l.11-1.04c.16.05.37.06.59.06.88,0,1.39-.35,1.39-2.06v-7.76Z"/>
    <path class="cls-4" d="M153.05,219.52l-.72,3.23h-1.19l2.46-10.79h1.36l2.4,10.79h-1.22l-.72-3.23h-2.38ZM155.28,218.53l-.56-2.74c-.16-.77-.3-1.66-.43-2.46h-.06c-.13.82-.29,1.74-.43,2.46l-.56,2.74h2.05Z"/>
    <path class="cls-4" d="M161.93,213.07h-1.97v-1.1h5.17v1.1h-1.97v9.68h-1.23v-9.68Z"/>
    <path class="cls-4" d="M166.33,212.12c.53-.14,1.17-.21,1.78-.21,1.07,0,1.87.22,2.43.77.53.54.75,1.26.75,2.11,0,1.38-.64,2.27-1.73,2.77v.03c.8.24,1.22,1.01,1.46,2.42.24,1.49.46,2.4.61,2.74h-1.25c-.16-.32-.37-1.34-.58-2.67-.24-1.47-.71-2.03-1.76-2.03h-.48v4.71h-1.23v-10.63ZM167.57,217.1h.51c1.18,0,1.97-.86,1.97-2.16s-.51-2.02-1.84-2.03c-.24,0-.48.02-.64.06v4.13Z"/>
    <path class="cls-4" d="M174.27,219.52l-.72,3.23h-1.19l2.46-10.79h1.36l2.4,10.79h-1.22l-.72-3.23h-2.38ZM176.49,218.53l-.56-2.74c-.16-.77-.3-1.66-.43-2.46h-.06c-.13.82-.29,1.74-.43,2.46l-.56,2.74h2.05Z"/>
    <path class="cls-4" d="M179.93,222.75v-10.79h1.17l1.98,5.06c.45,1.15,1.01,2.59,1.38,3.76h.03c-.1-1.7-.14-3.09-.14-4.96v-3.86h1.11v10.79h-1.17l-2.05-5.19c-.43-1.09-.9-2.32-1.28-3.67h-.03c.1,1.44.13,2.82.13,5.12v3.73h-1.12Z"/>
    <path class="cls-4" d="M187.13,221.33c.37.24,1.01.43,1.55.43,1.12,0,1.79-.74,1.79-1.83,0-.99-.58-1.6-1.43-2.24-.85-.59-2.03-1.6-2.03-2.99,0-1.63,1.14-2.83,2.85-2.83.67,0,1.27.21,1.52.4l-.3,1.06c-.27-.19-.72-.37-1.28-.37-1.06,0-1.55.8-1.55,1.54,0,1.07.56,1.49,1.58,2.22,1.3.91,1.87,1.9,1.87,3.11,0,1.86-1.31,3.03-3.03,3.03-.74,0-1.52-.24-1.82-.46l.27-1.06Z"/>
    <path class="cls-4" d="M198.46,222.48c-.46.19-1.23.37-1.92.37-.95,0-1.82-.26-2.54-1.06-.79-.83-1.31-2.32-1.3-4.29.02-4.19,2.16-5.63,4.07-5.63.67,0,1.2.13,1.54.3l-.27,1.06c-.29-.14-.67-.26-1.25-.26-1.35,0-2.8,1.07-2.8,4.42s1.26,4.4,2.56,4.4c.42,0,.66-.08.75-.13v-3.52h-1.39v-1.02h2.56v5.36Z"/>
    <path class="cls-4" d="M204.06,217.63h-2.71v4.05h3.07v1.07h-4.31v-10.79h4.11v1.07h-2.88v3.55h2.71v1.04ZM204.56,209.66l-2,1.73h-.98l1.52-1.73h1.46Z"/>
    <path class="cls-4" d="M205.79,222.75v-10.79h1.17l1.98,5.06c.45,1.15,1.01,2.59,1.38,3.76h.03c-.1-1.7-.14-3.09-.14-4.96v-3.86h1.11v10.79h-1.17l-2.05-5.19c-.43-1.09-.9-2.32-1.28-3.67h-.03c.1,1.44.13,2.82.13,5.12v3.73h-1.12Z"/>
    <path class="cls-4" d="M214.46,211.96v10.79h-1.23v-10.79h1.23Z"/>
    <path class="cls-4" d="M221.12,222.56c-.34.18-.86.29-1.54.29-2.11,0-3.62-1.7-3.62-5.36,0-4.26,2.11-5.62,3.81-5.62.66,0,1.12.13,1.34.27l-.27,1.04c-.26-.11-.53-.22-1.09-.22-1.15,0-2.5,1.12-2.5,4.42s1.22,4.39,2.53,4.39c.46,0,.88-.11,1.14-.24l.19,1.04Z"/>
    <path class="cls-4" d="M223.77,219.52l-.72,3.23h-1.19l2.46-10.79h1.36l2.4,10.79h-1.22l-.72-3.23h-2.38ZM225.99,218.53l-.56-2.74c-.16-.77-.3-1.66-.43-2.46h-.06c-.13.82-.29,1.74-.43,2.46l-.56,2.74h2.05Z"/>
  </g>
  <rect class="cls-1" x="128.82" y="204.69" width="104.62" height="25.34" rx="7.06" ry="7.06"/>
  <line class="cls-1" x1="181.13" y1="162.3" x2="181.13" y2="204.2"/>
  <g>
    <g>
      <path class="cls-2" d="M180.69,179.3v6.91c0,.4.04,1.06.05,1.39h-.79l-.06-.73h-.04c-.19.42-.6.83-1.21.83-.98,0-1.69-1.07-1.69-2.97,0-2.06.85-3.02,1.75-3.02.42,0,.83.2,1.05.7h.03v-3.09h.91ZM179.78,184c0-.12,0-.25-.01-.38-.06-.6-.42-1.13-.86-1.13-.77,0-1.03,1.07-1.03,2.23,0,1.22.31,2.21.98,2.21.29,0,.68-.16.89-1,.02-.11.04-.24.04-.38v-1.55Z"/>
      <path class="cls-2" d="M182.63,184.78c.01,1.77.71,2.16,1.38,2.16.39,0,.73-.1.96-.23l.14.68c-.32.18-.82.28-1.27.28-1.39,0-2.11-1.14-2.11-2.91,0-1.88.79-3.06,1.96-3.06s1.65,1.25,1.65,2.57c0,.22,0,.37-.01.52h-2.7ZM184.46,184.09c.02-1.16-.42-1.68-.86-1.68-.6,0-.91.89-.95,1.68h1.81Z"/>
    </g>
    <g>
      <path class="cls-4" d="M180.69,179.3v6.91c0,.4.04,1.06.05,1.39h-.79l-.06-.73h-.04c-.19.42-.6.83-1.21.83-.98,0-1.69-1.07-1.69-2.97,0-2.06.85-3.02,1.75-3.02.42,0,.83.2,1.05.7h.03v-3.09h.91ZM179.78,184c0-.12,0-.25-.01-.38-.06-.6-.42-1.13-.86-1.13-.77,0-1.03,1.07-1.03,2.23,0,1.22.31,2.21.98,2.21.29,0,.68-.16.89-1,.02-.11.04-.24.04-.38v-1.55Z"/>
      <path class="cls-4" d="M182.63,184.78c.01,1.77.71,2.16,1.38,2.16.39,0,.73-.1.96-.23l.14.68c-.32.18-.82.28-1.27.28-1.39,0-2.11-1.14-2.11-2.91,0-1.88.79-3.06,1.96-3.06s1.65,1.25,1.65,2.57c0,.22,0,.37-.01.52h-2.7ZM184.46,184.09c.02-1.16-.42-1.68-.86-1.68-.6,0-.91.89-.95,1.68h1.81Z"/>
    </g>
    <g>
      <path class="cls-4" d="M180.69,179.3v6.91c0,.4.04,1.06.05,1.39h-.79l-.06-.73h-.04c-.19.42-.6.83-1.21.83-.98,0-1.69-1.07-1.69-2.97,0-2.06.85-3.02,1.75-3.02.42,0,.83.2,1.05.7h.03v-3.09h.91ZM179.78,184c0-.12,0-.25-.01-.38-.06-.6-.42-1.13-.86-1.13-.77,0-1.03,1.07-1.03,2.23,0,1.22.31,2.21.98,2.21.29,0,.68-.16.89-1,.02-.11.04-.24.04-.38v-1.55Z"/>
      <path class="cls-4" d="M182.63,184.78c.01,1.77.71,2.16,1.38,2.16.39,0,.73-.1.96-.23l.14.68c-.32.18-.82.28-1.27.28-1.39,0-2.11-1.14-2.11-2.91,0-1.88.79-3.06,1.96-3.06s1.65,1.25,1.65,2.57c0,.22,0,.37-.01.52h-2.7ZM184.46,184.09c.02-1.16-.42-1.68-.86-1.68-.6,0-.91.89-.95,1.68h1.81Z"/>
    </g>
  </g>
  <g>
    <path class="cls-4" d="M152.81,150.38c-.08-1.42-.16-3.01-.11-4.23h-.06c-.24,1.2-.53,2.48-.87,3.75l-1.33,5.06h-.79l-1.26-4.85c-.35-1.38-.67-2.71-.88-3.95h-.05c0,1.26-.06,2.77-.13,4.31l-.21,4.56h-1.1l.64-10.79h1.33l1.26,4.93c.37,1.42.64,2.48.87,3.71h.05c.21-1.23.45-2.26.8-3.71l1.22-4.93h1.38l.62,10.79h-1.15l-.22-4.64Z"/>
    <path class="cls-4" d="M161.53,149.55c0,4.05-1.39,5.6-3.12,5.6s-2.99-1.9-2.99-5.54,1.28-5.51,3.17-5.51,2.95,2,2.95,5.44ZM156.69,149.63c0,2.22.43,4.43,1.79,4.43s1.76-2.35,1.76-4.47-.37-4.4-1.78-4.4-1.78,2.24-1.78,4.43Z"/>
    <path class="cls-4" d="M162.99,155.02v-10.79h1.17l1.98,5.06c.45,1.15,1.01,2.59,1.38,3.76h.03c-.1-1.7-.14-3.09-.14-4.96v-3.86h1.11v10.79h-1.17l-2.05-5.19c-.43-1.09-.9-2.32-1.28-3.67h-.03c.1,1.44.13,2.82.13,5.12v3.73h-1.12Z"/>
    <path class="cls-4" d="M176.1,149.55c0,4.05-1.39,5.6-3.12,5.6s-2.99-1.9-2.99-5.54,1.28-5.51,3.17-5.51,2.95,2,2.95,5.44ZM171.27,149.63c0,2.22.43,4.43,1.79,4.43s1.76-2.35,1.76-4.47-.37-4.4-1.78-4.4-1.78,2.24-1.78,4.43Z"/>
    <path class="cls-4" d="M182.28,154.83c-.34.18-.87.29-1.54.29-2.11,0-3.62-1.7-3.62-5.36,0-4.26,2.11-5.62,3.81-5.62.66,0,1.12.13,1.35.27l-.27,1.04c-.26-.11-.53-.22-1.09-.22-1.15,0-2.5,1.12-2.5,4.42s1.22,4.39,2.53,4.39c.46,0,.88-.11,1.14-.24l.19,1.04Z"/>
    <path class="cls-4" d="M184.76,144.23v7.24c0,1.94.64,2.59,1.47,2.59.91,0,1.49-.7,1.49-2.59v-7.24h1.23v7.04c0,2.8-1.15,3.87-2.75,3.87s-2.67-1.06-2.67-3.73v-7.19h1.23Z"/>
    <path class="cls-4" d="M190.85,144.23h1.23v9.75h3.04v1.04h-4.28v-10.79Z"/>
    <path class="cls-4" d="M196.55,145.34h-1.97v-1.1h5.17v1.1h-1.97v9.68h-1.23v-9.68Z"/>
    <path class="cls-4" d="M202.18,144.23v10.79h-1.23v-10.79h1.23Z"/>
    <path class="cls-4" d="M205.89,155.02l-2.46-10.79h1.31l1.06,5.06c.26,1.22.58,2.77.77,4.15h.05c.16-1.39.46-2.9.72-4.18l1.03-5.03h1.31l-2.51,10.79h-1.27Z"/>
    <path class="cls-4" d="M216.42,149.55c0,4.05-1.39,5.6-3.12,5.6s-2.99-1.9-2.99-5.54,1.28-5.51,3.17-5.51,2.95,2,2.95,5.44ZM211.59,149.63c0,2.22.43,4.43,1.79,4.43s1.76-2.35,1.76-4.47-.37-4.4-1.78-4.4-1.78,2.24-1.78,4.43Z"/>
  </g>
  <rect class="cls-1" x="140.87" y="136.96" width="80.51" height="25.34" rx="7.06" ry="7.06"/>
  <line class="cls-1" x1="181.13" y1="94.57" x2="181.13" y2="136.47"/>
  <g>
    <g>
      <path class="cls-2" d="M179.09,117.05c.01,1.77.71,2.16,1.38,2.16.4,0,.73-.1.96-.23l.14.68c-.32.18-.82.28-1.27.28-1.39,0-2.11-1.14-2.11-2.91,0-1.88.79-3.06,1.96-3.06s1.66,1.25,1.66,2.57c0,.22,0,.37-.01.52h-2.7ZM180.92,116.36c.03-1.16-.42-1.68-.86-1.68-.6,0-.91.89-.95,1.68h1.81Z"/>
      <path class="cls-2" d="M182.8,111.57h.92v8.3h-.92v-8.3Z"/>
    </g>
    <g>
      <path class="cls-4" d="M179.09,117.05c.01,1.77.71,2.16,1.38,2.16.4,0,.73-.1.96-.23l.14.68c-.32.18-.82.28-1.27.28-1.39,0-2.11-1.14-2.11-2.91,0-1.88.79-3.06,1.96-3.06s1.66,1.25,1.66,2.57c0,.22,0,.37-.01.52h-2.7ZM180.92,116.36c.03-1.16-.42-1.68-.86-1.68-.6,0-.91.89-.95,1.68h1.81Z"/>
      <path class="cls-4" d="M182.8,111.57h.92v8.3h-.92v-8.3Z"/>
    </g>
    <g>
      <path class="cls-4" d="M179.09,117.05c.01,1.77.71,2.16,1.38,2.16.4,0,.73-.1.96-.23l.14.68c-.32.18-.82.28-1.27.28-1.39,0-2.11-1.14-2.11-2.91,0-1.88.79-3.06,1.96-3.06s1.66,1.25,1.66,2.57c0,.22,0,.37-.01.52h-2.7ZM180.92,116.36c.03-1.16-.42-1.68-.86-1.68-.6,0-.91.89-.95,1.68h1.81Z"/>
      <path class="cls-4" d="M182.8,111.57h.92v8.3h-.92v-8.3Z"/>
    </g>
  </g>
  <g>
    <path class="cls-4" d="M125.28,76.66c.53-.14,1.17-.21,1.78-.21,1.07,0,1.87.22,2.43.77.53.54.75,1.26.75,2.11,0,1.38-.64,2.27-1.73,2.77v.03c.8.24,1.22,1.01,1.46,2.42.24,1.49.46,2.4.61,2.74h-1.25c-.16-.32-.37-1.34-.58-2.67-.24-1.47-.71-2.03-1.76-2.03h-.48v4.71h-1.23v-10.63ZM126.51,81.64h.51c1.18,0,1.97-.86,1.97-2.16s-.51-2.02-1.84-2.03c-.24,0-.48.02-.64.06v4.13Z"/>
    <path class="cls-4" d="M135.76,82.17h-2.71v4.05h3.07v1.07h-4.31v-10.79h4.11v1.07h-2.88v3.55h2.71v1.04Z"/>
    <path class="cls-4" d="M137.48,76.66c.5-.13,1.09-.21,1.79-.21.99,0,1.82.24,2.38.8.53.51.8,1.3.8,2.23,0,.99-.24,1.66-.66,2.21-.59.8-1.59,1.2-2.54,1.2-.21,0-.37,0-.54-.02v4.42h-1.23v-10.63ZM138.72,81.83c.14.03.27.05.48.05,1.22,0,2.03-.8,2.03-2.32,0-1.1-.46-2.1-1.83-2.1-.29,0-.53.03-.69.08v4.29Z"/>
    <path class="cls-4" d="M145.08,76.5v7.24c0,1.94.64,2.59,1.47,2.59.91,0,1.49-.7,1.49-2.59v-7.24h1.23v7.04c0,2.8-1.15,3.87-2.75,3.87s-2.67-1.06-2.67-3.73v-7.19h1.23ZM148.8,74.2l-1.99,1.73h-.98l1.51-1.73h1.46Z"/>
    <path class="cls-4" d="M151.18,76.66c.51-.13,1.12-.21,1.81-.21.98,0,1.81.21,2.38.75.46.43.71,1.07.71,1.84,0,1.1-.61,1.98-1.67,2.4v.03c1.25.34,2,1.34,2,2.75,0,.9-.29,1.62-.77,2.14-.61.69-1.62.98-2.85.98-.8,0-1.28-.05-1.62-.11v-10.58ZM152.41,81.08h.56c1.01,0,1.87-.77,1.87-1.9,0-.99-.46-1.76-1.78-1.76-.29,0-.51.03-.66.08v3.59ZM152.41,86.32c.14.03.35.06.62.06,1.28,0,2.11-.75,2.11-2.14,0-1.49-1.04-2.19-2.19-2.21h-.54v4.29Z"/>
    <path class="cls-4" d="M157.83,76.5h1.23v9.75h3.04v1.04h-4.28v-10.79Z"/>
    <path class="cls-4" d="M164.57,76.5v10.79h-1.23v-10.79h1.23Z"/>
    <path class="cls-4" d="M171.23,87.1c-.34.18-.86.29-1.54.29-2.11,0-3.62-1.7-3.62-5.36,0-4.26,2.11-5.62,3.81-5.62.66,0,1.12.13,1.34.27l-.27,1.04c-.26-.11-.53-.22-1.09-.22-1.15,0-2.5,1.12-2.5,4.42s1.22,4.39,2.53,4.39c.46,0,.88-.11,1.14-.24l.19,1.04Z"/>
    <path class="cls-4" d="M173.88,84.06l-.72,3.23h-1.19l2.46-10.79h1.36l2.4,10.79h-1.22l-.72-3.23h-2.38ZM176.11,83.07l-.56-2.74c-.16-.77-.3-1.66-.43-2.46h-.06c-.13.82-.29,1.74-.43,2.46l-.56,2.74h2.05Z"/>
    <path class="cls-4" d="M183.36,84.06l-.72,3.23h-1.18l2.46-10.79h1.36l2.4,10.79h-1.22l-.72-3.23h-2.38ZM185.58,83.07l-.56-2.74c-.16-.77-.3-1.66-.43-2.46h-.06c-.13.82-.29,1.74-.43,2.46l-.56,2.74h2.05Z"/>
    <path class="cls-4" d="M189.02,76.66c.53-.14,1.17-.21,1.78-.21,1.07,0,1.87.22,2.43.77.53.54.75,1.26.75,2.11,0,1.38-.64,2.27-1.73,2.77v.03c.8.24,1.22,1.01,1.46,2.42.24,1.49.46,2.4.61,2.74h-1.25c-.16-.32-.37-1.34-.58-2.67-.24-1.47-.71-2.03-1.76-2.03h-.48v4.71h-1.23v-10.63ZM190.25,81.64h.51c1.18,0,1.97-.86,1.97-2.16s-.51-2.02-1.84-2.03c-.24,0-.48.02-.64.06v4.13Z"/>
    <path class="cls-4" d="M200.88,87.02c-.46.19-1.23.37-1.92.37-.94,0-1.82-.26-2.54-1.06-.78-.83-1.31-2.32-1.29-4.29.02-4.19,2.16-5.63,4.06-5.63.67,0,1.2.13,1.54.3l-.27,1.06c-.29-.14-.67-.26-1.25-.26-1.34,0-2.8,1.07-2.8,4.42s1.27,4.4,2.56,4.4c.42,0,.66-.08.75-.13v-3.52h-1.39v-1.02h2.56v5.36Z"/>
    <path class="cls-4" d="M206.48,82.17h-2.71v4.05h3.07v1.07h-4.31v-10.79h4.12v1.07h-2.88v3.55h2.71v1.04Z"/>
    <path class="cls-4" d="M208.2,87.29v-10.79h1.17l1.98,5.06c.45,1.15,1.01,2.59,1.38,3.76h.03c-.1-1.7-.14-3.09-.14-4.96v-3.86h1.11v10.79h-1.17l-2.05-5.19c-.43-1.09-.9-2.32-1.28-3.67h-.03c.1,1.44.13,2.82.13,5.12v3.73h-1.12Z"/>
    <path class="cls-4" d="M216.91,77.61h-1.97v-1.1h5.17v1.1h-1.97v9.68h-1.23v-9.68Z"/>
    <path class="cls-4" d="M222.54,76.5v10.79h-1.23v-10.79h1.23Z"/>
    <path class="cls-4" d="M224.49,87.29v-10.79h1.17l1.98,5.06c.45,1.15,1.01,2.59,1.38,3.76h.03c-.1-1.7-.14-3.09-.14-4.96v-3.86h1.1v10.79h-1.17l-2.05-5.19c-.43-1.09-.9-2.32-1.28-3.67h-.03c.1,1.44.13,2.82.13,5.12v3.73h-1.12Z"/>
    <path class="cls-4" d="M233.23,84.06l-.72,3.23h-1.18l2.46-10.79h1.36l2.4,10.79h-1.22l-.72-3.23h-2.38ZM235.45,83.07l-.56-2.74c-.16-.77-.3-1.66-.43-2.46h-.06c-.13.82-.29,1.74-.43,2.46l-.56,2.74h2.05Z"/>
  </g>
  <rect class="cls-1" x="119.85" y="69.23" width="122.54" height="25.34" rx="7.06" ry="7.06"/>
  <line class="cls-1" x1="181.13" y1="26.84" x2="181.13" y2="68.73"/>
  <g>
    <g>
      <path class="cls-2" d="M176.42,43.84v6.91c0,.4.04,1.06.05,1.39h-.79l-.06-.73h-.04c-.19.42-.6.83-1.21.83-.98,0-1.69-1.07-1.69-2.97,0-2.06.85-3.02,1.75-3.02.42,0,.83.2,1.05.7h.03v-3.09h.91ZM175.51,48.54c0-.12,0-.25-.01-.38-.06-.6-.42-1.13-.86-1.13-.77,0-1.03,1.07-1.03,2.23,0,1.22.31,2.21.98,2.21.29,0,.68-.16.89-1,.02-.11.04-.24.04-.38v-1.55Z"/>
      <path class="cls-2" d="M178.36,49.32c.01,1.77.71,2.16,1.38,2.16.39,0,.73-.1.96-.23l.14.68c-.32.18-.82.28-1.27.28-1.39,0-2.11-1.14-2.11-2.91,0-1.88.79-3.06,1.96-3.06s1.65,1.25,1.65,2.57c0,.22,0,.37-.01.52h-2.7ZM180.19,48.63c.02-1.16-.42-1.68-.86-1.68-.6,0-.91.89-.95,1.68h1.81Z"/>
      <path class="cls-2" d="M183.95,43.84h.92v8.3h-.92v-8.3Z"/>
      <path class="cls-2" d="M188.54,52.13l-.06-.61h-.04c-.25.44-.66.71-1.15.71-.78,0-1.38-.66-1.38-1.65,0-1.45,1.16-2.1,2.47-2.11v-.18c0-.78-.19-1.32-.92-1.32-.36,0-.68.12-.96.3l-.21-.65c.24-.18.78-.38,1.36-.38,1.16,0,1.67.77,1.67,2.08v2.51c0,.44,0,.95.06,1.32h-.84ZM188.4,49.14c-.48,0-1.6.08-1.6,1.34,0,.76.38,1.03.71,1.03.41,0,.76-.3.86-.88.02-.11.02-.23.02-.32v-1.18Z"/>
    </g>
    <g>
      <path class="cls-4" d="M176.42,43.84v6.91c0,.4.04,1.06.05,1.39h-.79l-.06-.73h-.04c-.19.42-.6.83-1.21.83-.98,0-1.69-1.07-1.69-2.97,0-2.06.85-3.02,1.75-3.02.42,0,.83.2,1.05.7h.03v-3.09h.91ZM175.51,48.54c0-.12,0-.25-.01-.38-.06-.6-.42-1.13-.86-1.13-.77,0-1.03,1.07-1.03,2.23,0,1.22.31,2.21.98,2.21.29,0,.68-.16.89-1,.02-.11.04-.24.04-.38v-1.55Z"/>
      <path class="cls-4" d="M178.36,49.32c.01,1.77.71,2.16,1.38,2.16.39,0,.73-.1.96-.23l.14.68c-.32.18-.82.28-1.27.28-1.39,0-2.11-1.14-2.11-2.91,0-1.88.79-3.06,1.96-3.06s1.65,1.25,1.65,2.57c0,.22,0,.37-.01.52h-2.7ZM180.19,48.63c.02-1.16-.42-1.68-.86-1.68-.6,0-.91.89-.95,1.68h1.81Z"/>
      <path class="cls-4" d="M183.95,43.84h.92v8.3h-.92v-8.3Z"/>
      <path class="cls-4" d="M188.54,52.13l-.06-.61h-.04c-.25.44-.66.71-1.15.71-.78,0-1.38-.66-1.38-1.65,0-1.45,1.16-2.1,2.47-2.11v-.18c0-.78-.19-1.32-.92-1.32-.36,0-.68.12-.96.3l-.21-.65c.24-.18.78-.38,1.36-.38,1.16,0,1.67.77,1.67,2.08v2.51c0,.44,0,.95.06,1.32h-.84ZM188.4,49.14c-.48,0-1.6.08-1.6,1.34,0,.76.38,1.03.71,1.03.41,0,.76-.3.86-.88.02-.11.02-.23.02-.32v-1.18Z"/>
    </g>
    <g>
      <path class="cls-4" d="M176.42,43.84v6.91c0,.4.04,1.06.05,1.39h-.79l-.06-.73h-.04c-.19.42-.6.83-1.21.83-.98,0-1.69-1.07-1.69-2.97,0-2.06.85-3.02,1.75-3.02.42,0,.83.2,1.05.7h.03v-3.09h.91ZM175.51,48.54c0-.12,0-.25-.01-.38-.06-.6-.42-1.13-.86-1.13-.77,0-1.03,1.07-1.03,2.23,0,1.22.31,2.21.98,2.21.29,0,.68-.16.89-1,.02-.11.04-.24.04-.38v-1.55Z"/>
      <path class="cls-4" d="M178.36,49.32c.01,1.77.71,2.16,1.38,2.16.39,0,.73-.1.96-.23l.14.68c-.32.18-.82.28-1.27.28-1.39,0-2.11-1.14-2.11-2.91,0-1.88.79-3.06,1.96-3.06s1.65,1.25,1.65,2.57c0,.22,0,.37-.01.52h-2.7ZM180.19,48.63c.02-1.16-.42-1.68-.86-1.68-.6,0-.91.89-.95,1.68h1.81Z"/>
      <path class="cls-4" d="M183.95,43.84h.92v8.3h-.92v-8.3Z"/>
      <path class="cls-4" d="M188.54,52.13l-.06-.61h-.04c-.25.44-.66.71-1.15.71-.78,0-1.38-.66-1.38-1.65,0-1.45,1.16-2.1,2.47-2.11v-.18c0-.78-.19-1.32-.92-1.32-.36,0-.68.12-.96.3l-.21-.65c.24-.18.78-.38,1.36-.38,1.16,0,1.67.77,1.67,2.08v2.51c0,.44,0,.95.06,1.32h-.84ZM188.4,49.14c-.48,0-1.6.08-1.6,1.34,0,.76.38,1.03.71,1.03.41,0,.76-.3.86-.88.02-.11.02-.23.02-.32v-1.18Z"/>
    </g>
  </g>
  <g>
    <path class="cls-4" d="M117.15,14.82h-2.46v2.91h2.79v1.82h-4.88v-10.79h4.69v1.82h-2.59v2.48h2.46v1.74Z"/>
    <path class="cls-4" d="M118.89,19.56v-10.79h1.92l1.66,4.23c.32.83.85,2.22,1.15,3.15h.03c-.06-1.14-.21-3.01-.21-4.99v-2.39h1.84v10.79h-1.92l-1.65-4.1c-.35-.91-.85-2.27-1.09-3.25h-.03c.05,1.09.13,2.75.13,4.91v2.43h-1.84Z"/>
    <path class="cls-4" d="M129.69,8.93c.53-.13,1.3-.21,2.13-.21,1.36,0,2.3.32,2.99.96.93.83,1.41,2.26,1.41,4.35s-.56,3.73-1.5,4.56c-.72.7-1.79,1.04-3.3,1.04-.66,0-1.31-.06-1.73-.11v-10.6ZM131.79,17.9c.1.03.26.03.37.03,1.01,0,1.89-.99,1.89-3.97,0-2.21-.58-3.55-1.84-3.55-.14,0-.29,0-.42.05v7.44Z"/>
    <path class="cls-4" d="M139.65,8.77v10.79h-2.1v-10.79h2.1Z"/>
    <path class="cls-4" d="M141.52,8.77h4.69v1.82h-2.59v2.77h2.43v1.74h-2.43v4.45h-2.1v-10.79Z"/>
    <path class="cls-4" d="M152.35,14.82h-2.46v2.91h2.79v1.82h-4.88v-10.79h4.69v1.82h-2.59v2.48h2.46v1.74Z"/>
    <path class="cls-4" d="M154.09,8.93c.66-.13,1.49-.21,2.29-.21,1.15,0,2.18.16,2.88.8.66.59.85,1.31.85,2.24,0,1.15-.56,2.19-1.67,2.71v.03c.74.29,1.1.98,1.31,2.13.21,1.2.5,2.53.69,2.93h-2.19c-.13-.3-.37-1.39-.53-2.58-.19-1.34-.53-1.73-1.23-1.73h-.3v4.31h-2.1v-10.63ZM156.19,13.64h.37c.91,0,1.44-.74,1.44-1.68s-.37-1.57-1.31-1.6c-.18,0-.38.02-.5.06v3.22Z"/>
    <path class="cls-4" d="M166.17,14.82h-2.46v2.91h2.79v1.82h-4.88v-10.79h4.69v1.82h-2.59v2.48h2.46v1.74Z"/>
    <path class="cls-4" d="M167.92,19.56v-10.79h1.92l1.66,4.23c.32.83.85,2.22,1.15,3.15h.03c-.06-1.14-.21-3.01-.21-4.99v-2.39h1.84v10.79h-1.92l-1.65-4.1c-.35-.91-.85-2.27-1.09-3.25h-.03c.05,1.09.13,2.75.13,4.91v2.43h-1.84Z"/>
    <path class="cls-4" d="M177.34,10.71h-1.9v-1.94h5.92v1.94h-1.92v8.85h-2.1v-8.85Z"/>
    <path class="cls-4" d="M187.02,14.82h-2.46v2.91h2.79v1.82h-4.88v-10.79h4.69v1.82h-2.59v2.48h2.46v1.74Z"/>
    <path class="cls-4" d="M188.52,17.42c.43.24,1.17.42,1.78.42.99,0,1.47-.51,1.47-1.22,0-.78-.48-1.17-1.39-1.76-1.47-.9-2.03-2.03-2.03-3.01,0-1.73,1.15-3.17,3.41-3.17.7,0,1.38.19,1.7.38l-.34,1.81c-.3-.19-.77-.37-1.38-.37-.9,0-1.33.54-1.33,1.12,0,.64.32.98,1.49,1.68,1.42.86,1.95,1.95,1.95,3.09,0,1.97-1.46,3.27-3.57,3.27-.86,0-1.71-.22-2.07-.43l.3-1.81Z"/>
    <path class="cls-4" d="M197.61,8.93c.66-.13,1.49-.21,2.29-.21,1.15,0,2.18.16,2.88.8.66.59.85,1.31.85,2.24,0,1.15-.56,2.19-1.67,2.71v.03c.74.29,1.1.98,1.31,2.13.21,1.2.5,2.53.69,2.93h-2.19c-.13-.3-.37-1.39-.53-2.58-.19-1.34-.53-1.73-1.23-1.73h-.3v4.31h-2.1v-10.63ZM199.71,13.64h.37c.91,0,1.44-.74,1.44-1.68s-.37-1.57-1.31-1.6c-.18,0-.38.02-.5.06v3.22Z"/>
    <path class="cls-4" d="M209.69,14.82h-2.46v2.91h2.79v1.82h-4.88v-10.79h4.69v1.82h-2.59v2.48h2.46v1.74Z"/>
    <path class="cls-4" d="M217.42,19.27c-.46.19-1.46.38-2.24.38-1.23,0-2.16-.35-2.88-1.07-.93-.9-1.42-2.5-1.39-4.35.05-3.92,2.29-5.55,4.58-5.55.82,0,1.42.16,1.76.32l-.37,1.81c-.3-.16-.7-.24-1.23-.24-1.42,0-2.56.98-2.56,3.79,0,2.59,1.01,3.52,1.98,3.52.19,0,.34-.02.42-.05v-2.61h-.96v-1.71h2.9v5.76Z"/>
    <path class="cls-4" d="M221.08,8.77v10.79h-2.1v-10.79h2.1Z"/>
    <path class="cls-4" d="M229.33,13.98c0,4.07-1.44,5.71-3.49,5.71-2.45,0-3.41-2.59-3.41-5.55s1.17-5.49,3.55-5.49c2.61,0,3.35,2.87,3.35,5.33ZM224.6,14.17c0,2.45.46,3.7,1.31,3.7s1.22-1.6,1.22-3.79c0-1.89-.29-3.6-1.23-3.6-.83,0-1.3,1.38-1.3,3.7Z"/>
    <path class="cls-4" d="M230.65,19.56v-10.79h1.92l1.66,4.23c.32.83.85,2.22,1.15,3.15h.03c-.06-1.14-.21-3.01-.21-4.99v-2.39h1.84v10.79h-1.92l-1.65-4.1c-.35-.91-.85-2.27-1.09-3.25h-.03c.05,1.09.13,2.75.13,4.91v2.43h-1.84Z"/>
    <path class="cls-4" d="M243.47,14.82h-2.46v2.91h2.79v1.82h-4.88v-10.79h4.69v1.82h-2.59v2.48h2.46v1.74Z"/>
    <path class="cls-4" d="M244.97,17.42c.43.24,1.17.42,1.78.42.99,0,1.47-.51,1.47-1.22,0-.78-.48-1.17-1.39-1.76-1.47-.9-2.03-2.03-2.03-3.01,0-1.73,1.15-3.17,3.41-3.17.7,0,1.38.19,1.7.38l-.34,1.81c-.3-.19-.77-.37-1.38-.37-.9,0-1.33.54-1.33,1.12,0,.64.32.98,1.49,1.68,1.42.86,1.95,1.95,1.95,3.09,0,1.97-1.46,3.27-3.57,3.27-.86,0-1.71-.22-2.07-.43l.3-1.81Z"/>
  </g>
  <rect class="cls-3" x="104.44" y="1.5" width="153.37" height="25.34" rx="7.06" ry="7.06"/>
  <path class="cls-1" d="M84.43,299.1v-18.24c0-4.93,4-8.93,8.93-8.93h176.51c4.93,0,8.93,4,8.93,8.93v18.24"/>
</svg>