<?xml version="1.0" encoding="UTF-8"?>
<svg id="trazado" xmlns="http://www.w3.org/2000/svg" viewBox="0 0 212.76 350.54">
  <defs>
    <style>
      .cls-1 {
        fill: #000;
      }

      .cls-1, .cls-2 {
        stroke-width: 0px;
      }

      .cls-3 {
        stroke-width: 1.5px;
      }

      .cls-3, .cls-4, .cls-5 {
        fill: none;
      }

      .cls-3, .cls-5 {
        stroke: #000;
        stroke-miterlimit: 10;
      }

      .cls-2 {
        fill: #1d1d1b;
      }

      .cls-4 {
        stroke: #fff;
        stroke-width: 4px;
      }

      .cls-5 {
        stroke-width: 3px;
      }
    </style>
  </defs>
  <g>
    <path class="cls-1" d="M127.83,161.41h4.11v1.07h-2.88v3.78h2.69v1.04h-2.69v4.9h-1.23v-10.79Z"/>
    <path class="cls-1" d="M133.35,161.57c.53-.14,1.17-.21,1.78-.21,1.07,0,1.87.22,2.43.77.53.54.75,1.26.75,2.11,0,1.38-.64,2.27-1.73,2.77v.03c.8.24,1.22,1.01,1.46,2.42.24,1.49.46,2.4.61,2.74h-1.25c-.16-.32-.37-1.34-.58-2.67-.24-1.47-.7-2.03-1.76-2.03h-.48v4.71h-1.23v-10.63ZM134.59,166.55h.51c1.18,0,1.97-.86,1.97-2.16s-.51-2.02-1.84-2.03c-.24,0-.48.02-.64.06v4.13Z"/>
    <path class="cls-1" d="M141.13,161.41v10.79h-1.23v-10.79h1.23Z"/>
    <path class="cls-1" d="M148.4,171.93c-.46.19-1.23.37-1.92.37-.94,0-1.82-.26-2.54-1.06-.78-.83-1.31-2.32-1.3-4.29.02-4.19,2.16-5.63,4.07-5.63.67,0,1.2.13,1.54.3l-.27,1.06c-.29-.14-.67-.26-1.25-.26-1.34,0-2.8,1.07-2.8,4.42s1.26,4.4,2.56,4.4c.42,0,.66-.08.75-.13v-3.52h-1.39v-1.02h2.56v5.36Z"/>
    <path class="cls-1" d="M155.72,166.73c0,4.05-1.39,5.6-3.12,5.6s-2.99-1.9-2.99-5.54,1.28-5.51,3.17-5.51,2.95,2,2.95,5.44ZM150.89,166.81c0,2.22.43,4.43,1.79,4.43s1.76-2.35,1.76-4.47-.37-4.4-1.78-4.4-1.78,2.24-1.78,4.43Z"/>
    <path class="cls-1" d="M157.19,161.57c.53-.14,1.17-.21,1.78-.21,1.07,0,1.87.22,2.43.77.53.54.75,1.26.75,2.11,0,1.38-.64,2.27-1.73,2.77v.03c.8.24,1.22,1.01,1.46,2.42.24,1.49.46,2.4.61,2.74h-1.25c-.16-.32-.37-1.34-.58-2.67-.24-1.47-.7-2.03-1.76-2.03h-.48v4.71h-1.23v-10.63ZM158.43,166.55h.51c1.18,0,1.97-.86,1.97-2.16s-.51-2.02-1.84-2.03c-.24,0-.48.02-.64.06v4.13Z"/>
    <path class="cls-1" d="M166.49,159.11l-1.99,1.73h-.98l1.52-1.73h1.44ZM164.97,161.41v10.79h-1.23v-10.79h1.23Z"/>
    <path class="cls-1" d="M166.92,161.41h4.11v1.07h-2.88v3.78h2.69v1.04h-2.69v4.9h-1.23v-10.79Z"/>
    <path class="cls-1" d="M173.67,161.41v10.79h-1.23v-10.79h1.23Z"/>
    <path class="cls-1" d="M180.33,172.01c-.34.18-.86.29-1.54.29-2.11,0-3.62-1.7-3.62-5.36,0-4.26,2.11-5.62,3.81-5.62.66,0,1.12.13,1.34.27l-.27,1.04c-.26-.11-.53-.22-1.09-.22-1.15,0-2.5,1.12-2.5,4.42s1.22,4.39,2.53,4.39c.46,0,.88-.11,1.14-.24l.19,1.04Z"/>
    <path class="cls-1" d="M186.99,166.73c0,4.05-1.39,5.6-3.12,5.6s-2.99-1.9-2.99-5.54,1.28-5.51,3.17-5.51,2.95,2,2.95,5.44ZM182.15,166.81c0,2.22.43,4.43,1.79,4.43s1.76-2.35,1.76-4.47-.37-4.4-1.78-4.4-1.78,2.24-1.78,4.43Z"/>
    <path class="cls-1" d="M188.22,170.78c.37.24,1.01.43,1.55.43,1.12,0,1.79-.74,1.79-1.83,0-.99-.58-1.6-1.42-2.24-.85-.59-2.03-1.6-2.03-2.99,0-1.63,1.14-2.83,2.85-2.83.67,0,1.26.21,1.52.4l-.3,1.06c-.27-.19-.72-.37-1.28-.37-1.06,0-1.55.8-1.55,1.54,0,1.07.56,1.49,1.58,2.22,1.3.91,1.87,1.9,1.87,3.11,0,1.86-1.31,3.03-3.03,3.03-.74,0-1.52-.24-1.82-.46l.27-1.06Z"/>
  </g>
  <rect class="cls-3" x="120.3" y="154.14" width="79.53" height="25.34" rx="7.06" ry="7.06"/>
  <g>
    <path class="cls-1" d="M36.2,161.41h4.11v1.07h-2.88v3.78h2.69v1.04h-2.69v4.9h-1.23v-10.79Z"/>
    <path class="cls-1" d="M42.26,168.97l-.72,3.23h-1.18l2.46-10.79h1.36l2.4,10.79h-1.22l-.72-3.23h-2.38ZM44.49,167.97l-.56-2.74c-.16-.77-.3-1.66-.43-2.46h-.06c-.13.82-.29,1.74-.43,2.46l-.56,2.74h2.05ZM45.65,159.11l-1.98,1.73h-.98l1.5-1.73h1.46Z"/>
    <path class="cls-1" d="M47.92,161.57c.51-.13,1.12-.21,1.81-.21.97,0,1.81.21,2.38.75.46.43.7,1.07.7,1.84,0,1.1-.61,1.98-1.66,2.4v.03c1.25.34,2,1.34,2,2.75,0,.9-.29,1.62-.77,2.14-.61.69-1.62.98-2.85.98-.8,0-1.28-.05-1.62-.11v-10.58ZM49.16,165.99h.56c1.01,0,1.87-.77,1.87-1.9,0-.99-.46-1.76-1.78-1.76-.29,0-.51.03-.66.08v3.59ZM49.16,171.22c.14.03.35.06.62.06,1.28,0,2.11-.75,2.11-2.14,0-1.49-1.04-2.19-2.19-2.21h-.54v4.29Z"/>
    <path class="cls-1" d="M54.58,161.57c.53-.14,1.17-.21,1.78-.21,1.07,0,1.87.22,2.43.77.53.54.75,1.26.75,2.11,0,1.38-.64,2.27-1.73,2.77v.03c.8.24,1.22,1.01,1.46,2.42.24,1.49.46,2.4.61,2.74h-1.25c-.16-.32-.37-1.34-.58-2.67-.24-1.47-.71-2.03-1.76-2.03h-.48v4.71h-1.23v-10.63ZM55.81,166.55h.51c1.18,0,1.97-.86,1.97-2.16s-.51-2.02-1.84-2.03c-.24,0-.48.02-.64.06v4.13Z"/>
    <path class="cls-1" d="M62.36,161.41v10.79h-1.23v-10.79h1.23Z"/>
    <path class="cls-1" d="M69.01,172.01c-.34.18-.86.29-1.54.29-2.11,0-3.62-1.7-3.62-5.36,0-4.26,2.11-5.62,3.81-5.62.66,0,1.12.13,1.34.27l-.27,1.04c-.26-.11-.53-.22-1.09-.22-1.15,0-2.5,1.12-2.5,4.42s1.22,4.39,2.53,4.39c.46,0,.88-.11,1.14-.24l.19,1.04Z"/>
    <path class="cls-1" d="M71.67,168.97l-.72,3.23h-1.18l2.46-10.79h1.36l2.4,10.79h-1.22l-.72-3.23h-2.38ZM73.89,167.97l-.56-2.74c-.16-.77-.3-1.66-.43-2.46h-.06c-.13.82-.29,1.74-.43,2.46l-.56,2.74h2.05Z"/>
    <path class="cls-1" d="M77.09,170.78c.37.24,1.01.43,1.55.43,1.12,0,1.79-.74,1.79-1.83,0-.99-.58-1.6-1.43-2.24-.85-.59-2.03-1.6-2.03-2.99,0-1.63,1.14-2.83,2.85-2.83.67,0,1.27.21,1.52.4l-.3,1.06c-.27-.19-.72-.37-1.28-.37-1.06,0-1.55.8-1.55,1.54,0,1.07.56,1.49,1.58,2.22,1.3.91,1.87,1.9,1.87,3.11,0,1.86-1.31,3.03-3.03,3.03-.74,0-1.52-.24-1.82-.46l.27-1.06Z"/>
  </g>
  <rect class="cls-3" x="28.41" y="154.14" width="60.55" height="25.34" rx="7.06" ry="7.06"/>
  <line class="cls-3" x1="106.38" y1="197.15" x2="106.38" y2="239.05"/>
  <g>
    <g>
      <path class="cls-4" d="M101.61,221.49c.2.13.56.3.93.3.53,0,.85-.32.85-.84,0-.44-.16-.74-.74-1.14-.76-.49-1.16-.98-1.16-1.65,0-.94.7-1.61,1.59-1.61.46,0,.8.16,1.04.3l-.25.7c-.22-.14-.47-.25-.77-.25-.5,0-.76.36-.76.73,0,.4.14.61.72,1.01.67.43,1.2.96,1.2,1.76,0,1.16-.79,1.73-1.74,1.73-.43,0-.9-.13-1.15-.34l.23-.7Z"/>
      <path class="cls-4" d="M106.23,215.14c.01.36-.22.6-.56.6-.3,0-.53-.24-.53-.6s.24-.6.54-.6c.33,0,.55.24.55.6ZM105.23,222.45v-5.8h.92v5.8h-.92Z"/>
      <path class="cls-4" d="M107.44,218.14c0-.68-.04-1.03-.05-1.5h.8l.05.7h.02c.25-.47.72-.79,1.33-.79.8,0,1.4.6,1.4,2v3.9h-.92v-3.74c0-.68-.13-1.38-.8-1.38-.38,0-.76.32-.88.95-.02.14-.04.32-.04.52v3.66h-.92v-4.31Z"/>
    </g>
    <g>
      <path class="cls-2" d="M101.61,221.49c.2.13.56.3.93.3.53,0,.85-.32.85-.84,0-.44-.16-.74-.74-1.14-.76-.49-1.16-.98-1.16-1.65,0-.94.7-1.61,1.59-1.61.46,0,.8.16,1.04.3l-.25.7c-.22-.14-.47-.25-.77-.25-.5,0-.76.36-.76.73,0,.4.14.61.72,1.01.67.43,1.2.96,1.2,1.76,0,1.16-.79,1.73-1.74,1.73-.43,0-.9-.13-1.15-.34l.23-.7Z"/>
      <path class="cls-2" d="M106.23,215.14c.01.36-.22.6-.56.6-.3,0-.53-.24-.53-.6s.24-.6.54-.6c.33,0,.55.24.55.6ZM105.23,222.45v-5.8h.92v5.8h-.92Z"/>
      <path class="cls-2" d="M107.44,218.14c0-.68-.04-1.03-.05-1.5h.8l.05.7h.02c.25-.47.72-.79,1.33-.79.8,0,1.4.6,1.4,2v3.9h-.92v-3.74c0-.68-.13-1.38-.8-1.38-.38,0-.76.32-.88.95-.02.14-.04.32-.04.52v3.66h-.92v-4.31Z"/>
    </g>
    <g>
      <path class="cls-1" d="M101.61,221.49c.2.13.56.3.93.3.53,0,.85-.32.85-.84,0-.44-.16-.74-.74-1.14-.76-.49-1.16-.98-1.16-1.65,0-.94.7-1.61,1.59-1.61.46,0,.8.16,1.04.3l-.25.7c-.22-.14-.47-.25-.77-.25-.5,0-.76.36-.76.73,0,.4.14.61.72,1.01.67.43,1.2.96,1.2,1.76,0,1.16-.79,1.73-1.74,1.73-.43,0-.9-.13-1.15-.34l.23-.7Z"/>
      <path class="cls-1" d="M106.23,215.14c.01.36-.22.6-.56.6-.3,0-.53-.24-.53-.6s.24-.6.54-.6c.33,0,.55.24.55.6ZM105.23,222.45v-5.8h.92v5.8h-.92Z"/>
      <path class="cls-1" d="M107.44,218.14c0-.68-.04-1.03-.05-1.5h.8l.05.7h.02c.25-.47.72-.79,1.33-.79.8,0,1.4.6,1.4,2v3.9h-.92v-3.74c0-.68-.13-1.38-.8-1.38-.38,0-.76.32-.88.95-.02.14-.04.32-.04.52v3.66h-.92v-4.31Z"/>
    </g>
  </g>
  <g>
    <path class="cls-1" d="M92.79,246.32h1.23v9.75h3.04v1.04h-4.27v-10.79Z"/>
    <path class="cls-1" d="M102.23,251.99h-2.71v4.05h3.07v1.07h-4.31v-10.79h4.11v1.07h-2.88v3.55h2.71v1.04Z"/>
    <path class="cls-1" d="M105.72,257.11v-4.56l-2.37-6.23h1.3l.96,2.71c.27.75.56,1.6.8,2.43h.03c.22-.83.5-1.65.78-2.48l.91-2.66h1.3l-2.48,6.18v4.61h-1.23Z"/>
    <path class="cls-1" d="M114.39,251.99h-2.71v4.05h3.07v1.07h-4.31v-10.79h4.11v1.07h-2.88v3.55h2.71v1.04Z"/>
    <path class="cls-1" d="M115.88,255.68c.37.24,1.01.43,1.55.43,1.12,0,1.79-.74,1.79-1.83,0-.99-.58-1.6-1.42-2.24-.85-.59-2.03-1.6-2.03-2.99,0-1.63,1.14-2.83,2.85-2.83.67,0,1.26.21,1.52.4l-.3,1.06c-.27-.19-.72-.37-1.28-.37-1.06,0-1.55.8-1.55,1.54,0,1.07.56,1.49,1.58,2.22,1.3.91,1.87,1.91,1.87,3.11,0,1.86-1.31,3.03-3.03,3.03-.74,0-1.52-.24-1.82-.46l.27-1.06Z"/>
  </g>
  <rect class="cls-3" x="84.41" y="239.05" width="43.93" height="25.34" rx="7.06" ry="7.06"/>
  <line class="cls-3" x1="106.38" y1="26.84" x2="106.38" y2="68.73"/>
  <g>
    <g>
      <path class="cls-4" d="M58.66,44.83c.01.36-.22.6-.56.6-.3,0-.53-.24-.53-.6s.24-.6.54-.6c.33,0,.55.24.55.6ZM57.67,52.13v-5.8h.92v5.8h-.92Z"/>
      <path class="cls-4" d="M59.88,47.83c0-.68-.04-1.03-.05-1.5h.8l.05.7h.02c.25-.47.72-.79,1.33-.79.8,0,1.4.6,1.4,2v3.9h-.92v-3.74c0-.68-.13-1.38-.8-1.38-.38,0-.75.32-.88.95-.02.14-.04.32-.04.52v3.66h-.92v-4.31Z"/>
      <path class="cls-4" d="M67.57,51.99c-.2.12-.55.22-.96.22-1.27,0-2.12-1.02-2.12-2.94,0-1.67.84-3.02,2.29-3.02.31,0,.65.08.82.18l-.18.76c-.12-.06-.36-.16-.66-.16-.92,0-1.34,1.1-1.34,2.24,0,1.35.52,2.17,1.37,2.17.25,0,.46-.06.67-.16l.12.71Z"/>
      <path class="cls-4" d="M71.85,49.23c0,2.24-1.04,3-1.93,3-1.04,0-1.88-.95-1.88-2.99s.95-3.01,1.94-3.01,1.87.97,1.87,3ZM68.96,49.23c0,.96.17,2.27,1.01,2.27.79,0,.95-1.37.95-2.27s-.16-2.25-.97-2.25-.98,1.37-.98,2.25Z"/>
      <path class="cls-4" d="M72.87,47.83c0-.49-.04-1.07-.05-1.5h.83l.05.91h.02c.19-.55.68-1.01,1.22-1.01.07,0,.13.01.19.01v.95c-.06-.01-.12-.01-.19-.01-.59,0-1.02.54-1.12,1.21-.02.16-.04.34-.04.53v3.21h-.92v-4.31Z"/>
      <path class="cls-4" d="M75.85,48.14c0-.89-.04-1.4-.05-1.81h.83l.05.74h.02c.31-.62.77-.84,1.22-.84,1.01,0,1.68,1.08,1.68,2.99,0,2.15-.89,3.01-1.8,3.01-.54,0-.85-.35-1.01-.67h-.02v2.88h-.92v-6.3ZM76.77,50c0,.18,0,.35.04.48.18.83.6.98.85.98.77,0,1.01-1.06,1.01-2.23s-.29-2.21-1.02-2.21c-.42,0-.79.53-.85,1.06-.02.14-.02.29-.02.44v1.48Z"/>
      <path class="cls-4" d="M84.21,49.23c0,2.24-1.04,3-1.93,3-1.04,0-1.88-.95-1.88-2.99s.95-3.01,1.94-3.01,1.87.97,1.87,3ZM81.32,49.23c0,.96.17,2.27,1.01,2.27.79,0,.95-1.37.95-2.27s-.16-2.25-.97-2.25-.98,1.37-.98,2.25Z"/>
      <path class="cls-4" d="M85.23,47.83c0-.49-.04-1.07-.05-1.5h.83l.05.91h.02c.19-.55.68-1.01,1.22-1.01.07,0,.13.01.19.01v.95c-.06-.01-.12-.01-.19-.01-.59,0-1.02.54-1.12,1.21-.02.16-.04.34-.04.53v3.21h-.92v-4.31Z"/>
      <path class="cls-4" d="M91.61,49.23c0,2.24-1.04,3-1.93,3-1.04,0-1.88-.95-1.88-2.99s.95-3.01,1.94-3.01,1.87.97,1.87,3ZM88.72,49.23c0,.96.17,2.27,1.01,2.27.79,0,.95-1.37.95-2.27s-.16-2.25-.97-2.25-.98,1.37-.98,2.25ZM91.12,43.95l-1.26,1.62h-.61l.92-1.62h.95Z"/>
      <path class="cls-4" d="M98.08,46.33c-.01.41-.05.92-.05,1.81v3.25c0,1.52-.19,2.1-.58,2.52-.35.4-.9.62-1.55.62-.49,0-.97-.12-1.27-.29l.22-.72c.23.12.61.25,1.08.25.73,0,1.19-.46,1.19-1.77v-.59h-.02c-.2.46-.62.71-1.12.71-1.03,0-1.7-1.16-1.7-2.87,0-2.13.97-3.02,1.82-3.02.62,0,.91.41,1.08.76h.02l.05-.66h.83ZM97.12,48.33c0-.14-.01-.3-.05-.42-.11-.4-.31-.89-.84-.89-.67,0-1.03.9-1.03,2.18,0,1.49.47,2.16,1.03,2.16.28,0,.64-.13.83-.83.05-.18.06-.36.06-.53v-1.68Z"/>
      <path class="cls-4" d="M99.31,47.83c0-.49-.04-1.07-.05-1.5h.83l.05.91h.02c.19-.55.68-1.01,1.22-1.01.07,0,.13.01.19.01v.95c-.06-.01-.12-.01-.19-.01-.59,0-1.02.54-1.12,1.21-.02.16-.04.34-.04.53v3.21h-.92v-4.31Z"/>
      <path class="cls-4" d="M104.51,52.13l-.06-.61h-.04c-.25.44-.66.71-1.15.71-.78,0-1.38-.66-1.38-1.65,0-1.45,1.16-2.1,2.47-2.11v-.18c0-.78-.19-1.32-.92-1.32-.36,0-.68.12-.96.3l-.2-.65c.24-.18.78-.38,1.36-.38,1.16,0,1.67.77,1.67,2.08v2.51c0,.44,0,.95.06,1.32h-.84ZM104.38,49.14c-.48,0-1.6.08-1.6,1.34,0,.76.38,1.03.71,1.03.41,0,.76-.3.86-.88.02-.11.02-.23.02-.32v-1.18Z"/>
      <path class="cls-4" d="M106.59,47.83c0-.68-.04-1.03-.05-1.5h.8l.05.7h.02c.25-.47.72-.79,1.33-.79.8,0,1.4.6,1.4,2v3.9h-.92v-3.74c0-.68-.13-1.38-.8-1.38-.38,0-.75.32-.88.95-.02.14-.04.32-.04.52v3.66h-.92v-4.31Z"/>
      <path class="cls-4" d="M116.17,51.99c-.2.12-.55.22-.96.22-1.27,0-2.12-1.02-2.12-2.94,0-1.67.84-3.02,2.29-3.02.31,0,.65.08.82.18l-.18.76c-.12-.06-.36-.16-.66-.16-.92,0-1.34,1.1-1.34,2.24,0,1.35.52,2.17,1.37,2.17.25,0,.46-.06.67-.16l.12.71Z"/>
      <path class="cls-4" d="M119.29,52.13l-.06-.61h-.04c-.25.44-.66.71-1.15.71-.78,0-1.38-.66-1.38-1.65,0-1.45,1.16-2.1,2.47-2.11v-.18c0-.78-.19-1.32-.92-1.32-.36,0-.68.12-.96.3l-.2-.65c.24-.18.78-.38,1.36-.38,1.16,0,1.67.77,1.67,2.08v2.51c0,.44,0,.95.06,1.32h-.84ZM119.15,49.14c-.48,0-1.6.08-1.6,1.34,0,.76.38,1.03.71,1.03.41,0,.76-.3.86-.88.02-.11.02-.23.02-.32v-1.18Z"/>
      <path class="cls-4" d="M121.36,47.83c0-.68-.04-1.03-.05-1.5h.8l.05.7h.02c.25-.47.72-.79,1.33-.79.8,0,1.4.6,1.4,2v3.9h-.92v-3.74c0-.68-.13-1.38-.8-1.38-.38,0-.75.32-.88.95-.02.14-.04.32-.04.52v3.66h-.92v-4.31Z"/>
      <path class="cls-4" d="M127.28,44.79v1.54h1.12v.71h-1.12v3.44c0,.76.28.96.61.96.14,0,.26-.01.37-.04l.04.71c-.17.06-.38.1-.68.1-.36,0-.68-.1-.91-.35-.23-.26-.35-.66-.35-1.46v-3.36h-.71v-.71h.71v-1.27l.92-.26Z"/>
      <path class="cls-4" d="M130.21,44.83c.01.36-.22.6-.56.6-.3,0-.53-.24-.53-.6s.24-.6.54-.6c.33,0,.55.24.55.6ZM129.21,52.13v-5.8h.92v5.8h-.92Z"/>
      <path class="cls-4" d="M134.91,43.83v6.91c0,.4.04,1.06.05,1.39h-.79l-.06-.73h-.04c-.19.42-.6.83-1.21.83-.98,0-1.69-1.07-1.69-2.97,0-2.06.85-3.02,1.75-3.02.42,0,.83.2,1.06.7h.02v-3.09h.91ZM134,48.54c0-.12,0-.25-.01-.38-.06-.6-.42-1.13-.86-1.13-.77,0-1.03,1.07-1.03,2.23,0,1.22.31,2.21.98,2.21.29,0,.68-.16.89-1,.02-.11.04-.24.04-.38v-1.55Z"/>
      <path class="cls-4" d="M138.5,52.13l-.06-.61h-.04c-.25.44-.66.71-1.15.71-.78,0-1.38-.66-1.38-1.65,0-1.45,1.16-2.1,2.47-2.11v-.18c0-.78-.19-1.32-.92-1.32-.36,0-.68.12-.96.3l-.2-.65c.24-.18.78-.38,1.36-.38,1.16,0,1.67.77,1.67,2.08v2.51c0,.44,0,.95.06,1.32h-.84ZM138.37,49.14c-.48,0-1.6.08-1.6,1.34,0,.76.38,1.03.71,1.03.41,0,.76-.3.86-.88.02-.11.02-.23.02-.32v-1.18Z"/>
      <path class="cls-4" d="M144.06,43.83v6.91c0,.4.04,1.06.05,1.39h-.79l-.06-.73h-.04c-.19.42-.6.83-1.21.83-.98,0-1.69-1.07-1.69-2.97,0-2.06.85-3.02,1.75-3.02.42,0,.83.2,1.06.7h.02v-3.09h.91ZM143.15,48.54c0-.12,0-.25-.01-.38-.06-.6-.42-1.13-.86-1.13-.77,0-1.03,1.07-1.03,2.23,0,1.22.31,2.21.98,2.21.29,0,.68-.16.89-1,.02-.11.04-.24.04-.38v-1.55Z"/>
      <path class="cls-4" d="M150.74,43.83v6.91c0,.4.04,1.06.05,1.39h-.79l-.06-.73h-.04c-.19.42-.6.83-1.21.83-.98,0-1.69-1.07-1.69-2.97,0-2.06.85-3.02,1.75-3.02.42,0,.83.2,1.06.7h.02v-3.09h.91ZM149.83,48.54c0-.12,0-.25-.01-.38-.06-.6-.42-1.13-.86-1.13-.77,0-1.03,1.07-1.03,2.23,0,1.22.31,2.21.98,2.21.29,0,.68-.16.89-1,.02-.11.04-.24.04-.38v-1.55Z"/>
      <path class="cls-4" d="M152.68,49.32c.01,1.77.71,2.16,1.38,2.16.4,0,.73-.1.96-.23l.14.68c-.32.18-.82.28-1.27.28-1.39,0-2.11-1.14-2.11-2.91,0-1.88.79-3.06,1.96-3.06s1.66,1.25,1.66,2.57c0,.22,0,.37-.01.52h-2.7ZM154.5,48.63c.02-1.16-.42-1.68-.86-1.68-.6,0-.91.89-.95,1.68h1.81Z"/>
    </g>
    <g>
      <path class="cls-2" d="M58.66,44.83c.01.36-.22.6-.56.6-.3,0-.53-.24-.53-.6s.24-.6.54-.6c.33,0,.55.24.55.6ZM57.67,52.13v-5.8h.92v5.8h-.92Z"/>
      <path class="cls-2" d="M59.88,47.83c0-.68-.04-1.03-.05-1.5h.8l.05.7h.02c.25-.47.72-.79,1.33-.79.8,0,1.4.6,1.4,2v3.9h-.92v-3.74c0-.68-.13-1.38-.8-1.38-.38,0-.75.32-.88.95-.02.14-.04.32-.04.52v3.66h-.92v-4.31Z"/>
      <path class="cls-2" d="M67.57,51.99c-.2.12-.55.22-.96.22-1.27,0-2.12-1.02-2.12-2.94,0-1.67.84-3.02,2.29-3.02.31,0,.65.08.82.18l-.18.76c-.12-.06-.36-.16-.66-.16-.92,0-1.34,1.1-1.34,2.24,0,1.35.52,2.17,1.37,2.17.25,0,.46-.06.67-.16l.12.71Z"/>
      <path class="cls-2" d="M71.85,49.23c0,2.24-1.04,3-1.93,3-1.04,0-1.88-.95-1.88-2.99s.95-3.01,1.94-3.01,1.87.97,1.87,3ZM68.96,49.23c0,.96.17,2.27,1.01,2.27.79,0,.95-1.37.95-2.27s-.16-2.25-.97-2.25-.98,1.37-.98,2.25Z"/>
      <path class="cls-2" d="M72.87,47.83c0-.49-.04-1.07-.05-1.5h.83l.05.91h.02c.19-.55.68-1.01,1.22-1.01.07,0,.13.01.19.01v.95c-.06-.01-.12-.01-.19-.01-.59,0-1.02.54-1.12,1.21-.02.16-.04.34-.04.53v3.21h-.92v-4.31Z"/>
      <path class="cls-2" d="M75.85,48.14c0-.89-.04-1.4-.05-1.81h.83l.05.74h.02c.31-.62.77-.84,1.22-.84,1.01,0,1.68,1.08,1.68,2.99,0,2.15-.89,3.01-1.8,3.01-.54,0-.85-.35-1.01-.67h-.02v2.88h-.92v-6.3ZM76.77,50c0,.18,0,.35.04.48.18.83.6.98.85.98.77,0,1.01-1.06,1.01-2.23s-.29-2.21-1.02-2.21c-.42,0-.79.53-.85,1.06-.02.14-.02.29-.02.44v1.48Z"/>
      <path class="cls-2" d="M84.21,49.23c0,2.24-1.04,3-1.93,3-1.04,0-1.88-.95-1.88-2.99s.95-3.01,1.94-3.01,1.87.97,1.87,3ZM81.32,49.23c0,.96.17,2.27,1.01,2.27.79,0,.95-1.37.95-2.27s-.16-2.25-.97-2.25-.98,1.37-.98,2.25Z"/>
      <path class="cls-2" d="M85.23,47.83c0-.49-.04-1.07-.05-1.5h.83l.05.91h.02c.19-.55.68-1.01,1.22-1.01.07,0,.13.01.19.01v.95c-.06-.01-.12-.01-.19-.01-.59,0-1.02.54-1.12,1.21-.02.16-.04.34-.04.53v3.21h-.92v-4.31Z"/>
      <path class="cls-2" d="M91.61,49.23c0,2.24-1.04,3-1.93,3-1.04,0-1.88-.95-1.88-2.99s.95-3.01,1.94-3.01,1.87.97,1.87,3ZM88.72,49.23c0,.96.17,2.27,1.01,2.27.79,0,.95-1.37.95-2.27s-.16-2.25-.97-2.25-.98,1.37-.98,2.25ZM91.12,43.95l-1.26,1.62h-.61l.92-1.62h.95Z"/>
      <path class="cls-2" d="M98.08,46.33c-.01.41-.05.92-.05,1.81v3.25c0,1.52-.19,2.1-.58,2.52-.35.4-.9.62-1.55.62-.49,0-.97-.12-1.27-.29l.22-.72c.23.12.61.25,1.08.25.73,0,1.19-.46,1.19-1.77v-.59h-.02c-.2.46-.62.71-1.12.71-1.03,0-1.7-1.16-1.7-2.87,0-2.13.97-3.02,1.82-3.02.62,0,.91.41,1.08.76h.02l.05-.66h.83ZM97.12,48.33c0-.14-.01-.3-.05-.42-.11-.4-.31-.89-.84-.89-.67,0-1.03.9-1.03,2.18,0,1.49.47,2.16,1.03,2.16.28,0,.64-.13.83-.83.05-.18.06-.36.06-.53v-1.68Z"/>
      <path class="cls-2" d="M99.31,47.83c0-.49-.04-1.07-.05-1.5h.83l.05.91h.02c.19-.55.68-1.01,1.22-1.01.07,0,.13.01.19.01v.95c-.06-.01-.12-.01-.19-.01-.59,0-1.02.54-1.12,1.21-.02.16-.04.34-.04.53v3.21h-.92v-4.31Z"/>
      <path class="cls-2" d="M104.51,52.13l-.06-.61h-.04c-.25.44-.66.71-1.15.71-.78,0-1.38-.66-1.38-1.65,0-1.45,1.16-2.1,2.47-2.11v-.18c0-.78-.19-1.32-.92-1.32-.36,0-.68.12-.96.3l-.2-.65c.24-.18.78-.38,1.36-.38,1.16,0,1.67.77,1.67,2.08v2.51c0,.44,0,.95.06,1.32h-.84ZM104.38,49.14c-.48,0-1.6.08-1.6,1.34,0,.76.38,1.03.71,1.03.41,0,.76-.3.86-.88.02-.11.02-.23.02-.32v-1.18Z"/>
      <path class="cls-2" d="M106.59,47.83c0-.68-.04-1.03-.05-1.5h.8l.05.7h.02c.25-.47.72-.79,1.33-.79.8,0,1.4.6,1.4,2v3.9h-.92v-3.74c0-.68-.13-1.38-.8-1.38-.38,0-.75.32-.88.95-.02.14-.04.32-.04.52v3.66h-.92v-4.31Z"/>
      <path class="cls-2" d="M116.17,51.99c-.2.12-.55.22-.96.22-1.27,0-2.12-1.02-2.12-2.94,0-1.67.84-3.02,2.29-3.02.31,0,.65.08.82.18l-.18.76c-.12-.06-.36-.16-.66-.16-.92,0-1.34,1.1-1.34,2.24,0,1.35.52,2.17,1.37,2.17.25,0,.46-.06.67-.16l.12.71Z"/>
      <path class="cls-2" d="M119.29,52.13l-.06-.61h-.04c-.25.44-.66.71-1.15.71-.78,0-1.38-.66-1.38-1.65,0-1.45,1.16-2.1,2.47-2.11v-.18c0-.78-.19-1.32-.92-1.32-.36,0-.68.12-.96.3l-.2-.65c.24-.18.78-.38,1.36-.38,1.16,0,1.67.77,1.67,2.08v2.51c0,.44,0,.95.06,1.32h-.84ZM119.15,49.14c-.48,0-1.6.08-1.6,1.34,0,.76.38,1.03.71,1.03.41,0,.76-.3.86-.88.02-.11.02-.23.02-.32v-1.18Z"/>
      <path class="cls-2" d="M121.36,47.83c0-.68-.04-1.03-.05-1.5h.8l.05.7h.02c.25-.47.72-.79,1.33-.79.8,0,1.4.6,1.4,2v3.9h-.92v-3.74c0-.68-.13-1.38-.8-1.38-.38,0-.75.32-.88.95-.02.14-.04.32-.04.52v3.66h-.92v-4.31Z"/>
      <path class="cls-2" d="M127.28,44.79v1.54h1.12v.71h-1.12v3.44c0,.76.28.96.61.96.14,0,.26-.01.37-.04l.04.71c-.17.06-.38.1-.68.1-.36,0-.68-.1-.91-.35-.23-.26-.35-.66-.35-1.46v-3.36h-.71v-.71h.71v-1.27l.92-.26Z"/>
      <path class="cls-2" d="M130.21,44.83c.01.36-.22.6-.56.6-.3,0-.53-.24-.53-.6s.24-.6.54-.6c.33,0,.55.24.55.6ZM129.21,52.13v-5.8h.92v5.8h-.92Z"/>
      <path class="cls-2" d="M134.91,43.83v6.91c0,.4.04,1.06.05,1.39h-.79l-.06-.73h-.04c-.19.42-.6.83-1.21.83-.98,0-1.69-1.07-1.69-2.97,0-2.06.85-3.02,1.75-3.02.42,0,.83.2,1.06.7h.02v-3.09h.91ZM134,48.54c0-.12,0-.25-.01-.38-.06-.6-.42-1.13-.86-1.13-.77,0-1.03,1.07-1.03,2.23,0,1.22.31,2.21.98,2.21.29,0,.68-.16.89-1,.02-.11.04-.24.04-.38v-1.55Z"/>
      <path class="cls-2" d="M138.5,52.13l-.06-.61h-.04c-.25.44-.66.71-1.15.71-.78,0-1.38-.66-1.38-1.65,0-1.45,1.16-2.1,2.47-2.11v-.18c0-.78-.19-1.32-.92-1.32-.36,0-.68.12-.96.3l-.2-.65c.24-.18.78-.38,1.36-.38,1.16,0,1.67.77,1.67,2.08v2.51c0,.44,0,.95.06,1.32h-.84ZM138.37,49.14c-.48,0-1.6.08-1.6,1.34,0,.76.38,1.03.71,1.03.41,0,.76-.3.86-.88.02-.11.02-.23.02-.32v-1.18Z"/>
      <path class="cls-2" d="M144.06,43.83v6.91c0,.4.04,1.06.05,1.39h-.79l-.06-.73h-.04c-.19.42-.6.83-1.21.83-.98,0-1.69-1.07-1.69-2.97,0-2.06.85-3.02,1.75-3.02.42,0,.83.2,1.06.7h.02v-3.09h.91ZM143.15,48.54c0-.12,0-.25-.01-.38-.06-.6-.42-1.13-.86-1.13-.77,0-1.03,1.07-1.03,2.23,0,1.22.31,2.21.98,2.21.29,0,.68-.16.89-1,.02-.11.04-.24.04-.38v-1.55Z"/>
      <path class="cls-2" d="M150.74,43.83v6.91c0,.4.04,1.06.05,1.39h-.79l-.06-.73h-.04c-.19.42-.6.83-1.21.83-.98,0-1.69-1.07-1.69-2.97,0-2.06.85-3.02,1.75-3.02.42,0,.83.2,1.06.7h.02v-3.09h.91ZM149.83,48.54c0-.12,0-.25-.01-.38-.06-.6-.42-1.13-.86-1.13-.77,0-1.03,1.07-1.03,2.23,0,1.22.31,2.21.98,2.21.29,0,.68-.16.89-1,.02-.11.04-.24.04-.38v-1.55Z"/>
      <path class="cls-2" d="M152.68,49.32c.01,1.77.71,2.16,1.38,2.16.4,0,.73-.1.96-.23l.14.68c-.32.18-.82.28-1.27.28-1.39,0-2.11-1.14-2.11-2.91,0-1.88.79-3.06,1.96-3.06s1.66,1.25,1.66,2.57c0,.22,0,.37-.01.52h-2.7ZM154.5,48.63c.02-1.16-.42-1.68-.86-1.68-.6,0-.91.89-.95,1.68h1.81Z"/>
    </g>
    <g>
      <path class="cls-1" d="M58.66,44.83c.01.36-.22.6-.56.6-.3,0-.53-.24-.53-.6s.24-.6.54-.6c.33,0,.55.24.55.6ZM57.67,52.13v-5.8h.92v5.8h-.92Z"/>
      <path class="cls-1" d="M59.88,47.83c0-.68-.04-1.03-.05-1.5h.8l.05.7h.02c.25-.47.72-.79,1.33-.79.8,0,1.4.6,1.4,2v3.9h-.92v-3.74c0-.68-.13-1.38-.8-1.38-.38,0-.75.32-.88.95-.02.14-.04.32-.04.52v3.66h-.92v-4.31Z"/>
      <path class="cls-1" d="M67.57,51.99c-.2.12-.55.22-.96.22-1.27,0-2.12-1.02-2.12-2.94,0-1.67.84-3.02,2.29-3.02.31,0,.65.08.82.18l-.18.76c-.12-.06-.36-.16-.66-.16-.92,0-1.34,1.1-1.34,2.24,0,1.35.52,2.17,1.37,2.17.25,0,.46-.06.67-.16l.12.71Z"/>
      <path class="cls-1" d="M71.85,49.23c0,2.24-1.04,3-1.93,3-1.04,0-1.88-.95-1.88-2.99s.95-3.01,1.94-3.01,1.87.97,1.87,3ZM68.96,49.23c0,.96.17,2.27,1.01,2.27.79,0,.95-1.37.95-2.27s-.16-2.25-.97-2.25-.98,1.37-.98,2.25Z"/>
      <path class="cls-1" d="M72.87,47.83c0-.49-.04-1.07-.05-1.5h.83l.05.91h.02c.19-.55.68-1.01,1.22-1.01.07,0,.13.01.19.01v.95c-.06-.01-.12-.01-.19-.01-.59,0-1.02.54-1.12,1.21-.02.16-.04.34-.04.53v3.21h-.92v-4.31Z"/>
      <path class="cls-1" d="M75.85,48.14c0-.89-.04-1.4-.05-1.81h.83l.05.74h.02c.31-.62.77-.84,1.22-.84,1.01,0,1.68,1.08,1.68,2.99,0,2.15-.89,3.01-1.8,3.01-.54,0-.85-.35-1.01-.67h-.02v2.88h-.92v-6.3ZM76.77,50c0,.18,0,.35.04.48.18.83.6.98.85.98.77,0,1.01-1.06,1.01-2.23s-.29-2.21-1.02-2.21c-.42,0-.79.53-.85,1.06-.02.14-.02.29-.02.44v1.48Z"/>
      <path class="cls-1" d="M84.21,49.23c0,2.24-1.04,3-1.93,3-1.04,0-1.88-.95-1.88-2.99s.95-3.01,1.94-3.01,1.87.97,1.87,3ZM81.32,49.23c0,.96.17,2.27,1.01,2.27.79,0,.95-1.37.95-2.27s-.16-2.25-.97-2.25-.98,1.37-.98,2.25Z"/>
      <path class="cls-1" d="M85.23,47.83c0-.49-.04-1.07-.05-1.5h.83l.05.91h.02c.19-.55.68-1.01,1.22-1.01.07,0,.13.01.19.01v.95c-.06-.01-.12-.01-.19-.01-.59,0-1.02.54-1.12,1.21-.02.16-.04.34-.04.53v3.21h-.92v-4.31Z"/>
      <path class="cls-1" d="M91.61,49.23c0,2.24-1.04,3-1.93,3-1.04,0-1.88-.95-1.88-2.99s.95-3.01,1.94-3.01,1.87.97,1.87,3ZM88.72,49.23c0,.96.17,2.27,1.01,2.27.79,0,.95-1.37.95-2.27s-.16-2.25-.97-2.25-.98,1.37-.98,2.25ZM91.12,43.95l-1.26,1.62h-.61l.92-1.62h.95Z"/>
      <path class="cls-1" d="M98.08,46.33c-.01.41-.05.92-.05,1.81v3.25c0,1.52-.19,2.1-.58,2.52-.35.4-.9.62-1.55.62-.49,0-.97-.12-1.27-.29l.22-.72c.23.12.61.25,1.08.25.73,0,1.19-.46,1.19-1.77v-.59h-.02c-.2.46-.62.71-1.12.71-1.03,0-1.7-1.16-1.7-2.87,0-2.13.97-3.02,1.82-3.02.62,0,.91.41,1.08.76h.02l.05-.66h.83ZM97.12,48.33c0-.14-.01-.3-.05-.42-.11-.4-.31-.89-.84-.89-.67,0-1.03.9-1.03,2.18,0,1.49.47,2.16,1.03,2.16.28,0,.64-.13.83-.83.05-.18.06-.36.06-.53v-1.68Z"/>
      <path class="cls-1" d="M99.31,47.83c0-.49-.04-1.07-.05-1.5h.83l.05.91h.02c.19-.55.68-1.01,1.22-1.01.07,0,.13.01.19.01v.95c-.06-.01-.12-.01-.19-.01-.59,0-1.02.54-1.12,1.21-.02.16-.04.34-.04.53v3.21h-.92v-4.31Z"/>
      <path class="cls-1" d="M104.51,52.13l-.06-.61h-.04c-.25.44-.66.71-1.15.71-.78,0-1.38-.66-1.38-1.65,0-1.45,1.16-2.1,2.47-2.11v-.18c0-.78-.19-1.32-.92-1.32-.36,0-.68.12-.96.3l-.2-.65c.24-.18.78-.38,1.36-.38,1.16,0,1.67.77,1.67,2.08v2.51c0,.44,0,.95.06,1.32h-.84ZM104.38,49.14c-.48,0-1.6.08-1.6,1.34,0,.76.38,1.03.71,1.03.41,0,.76-.3.86-.88.02-.11.02-.23.02-.32v-1.18Z"/>
      <path class="cls-1" d="M106.59,47.83c0-.68-.04-1.03-.05-1.5h.8l.05.7h.02c.25-.47.72-.79,1.33-.79.8,0,1.4.6,1.4,2v3.9h-.92v-3.74c0-.68-.13-1.38-.8-1.38-.38,0-.75.32-.88.95-.02.14-.04.32-.04.52v3.66h-.92v-4.31Z"/>
      <path class="cls-1" d="M116.17,51.99c-.2.12-.55.22-.96.22-1.27,0-2.12-1.02-2.12-2.94,0-1.67.84-3.02,2.29-3.02.31,0,.65.08.82.18l-.18.76c-.12-.06-.36-.16-.66-.16-.92,0-1.34,1.1-1.34,2.24,0,1.35.52,2.17,1.37,2.17.25,0,.46-.06.67-.16l.12.71Z"/>
      <path class="cls-1" d="M119.29,52.13l-.06-.61h-.04c-.25.44-.66.71-1.15.71-.78,0-1.38-.66-1.38-1.65,0-1.45,1.16-2.1,2.47-2.11v-.18c0-.78-.19-1.32-.92-1.32-.36,0-.68.12-.96.3l-.2-.65c.24-.18.78-.38,1.36-.38,1.16,0,1.67.77,1.67,2.08v2.51c0,.44,0,.95.06,1.32h-.84ZM119.15,49.14c-.48,0-1.6.08-1.6,1.34,0,.76.38,1.03.71,1.03.41,0,.76-.3.86-.88.02-.11.02-.23.02-.32v-1.18Z"/>
      <path class="cls-1" d="M121.36,47.83c0-.68-.04-1.03-.05-1.5h.8l.05.7h.02c.25-.47.72-.79,1.33-.79.8,0,1.4.6,1.4,2v3.9h-.92v-3.74c0-.68-.13-1.38-.8-1.38-.38,0-.75.32-.88.95-.02.14-.04.32-.04.52v3.66h-.92v-4.31Z"/>
      <path class="cls-1" d="M127.28,44.79v1.54h1.12v.71h-1.12v3.44c0,.76.28.96.61.96.14,0,.26-.01.37-.04l.04.71c-.17.06-.38.1-.68.1-.36,0-.68-.1-.91-.35-.23-.26-.35-.66-.35-1.46v-3.36h-.71v-.71h.71v-1.27l.92-.26Z"/>
      <path class="cls-1" d="M130.21,44.83c.01.36-.22.6-.56.6-.3,0-.53-.24-.53-.6s.24-.6.54-.6c.33,0,.55.24.55.6ZM129.21,52.13v-5.8h.92v5.8h-.92Z"/>
      <path class="cls-1" d="M134.91,43.83v6.91c0,.4.04,1.06.05,1.39h-.79l-.06-.73h-.04c-.19.42-.6.83-1.21.83-.98,0-1.69-1.07-1.69-2.97,0-2.06.85-3.02,1.75-3.02.42,0,.83.2,1.06.7h.02v-3.09h.91ZM134,48.54c0-.12,0-.25-.01-.38-.06-.6-.42-1.13-.86-1.13-.77,0-1.03,1.07-1.03,2.23,0,1.22.31,2.21.98,2.21.29,0,.68-.16.89-1,.02-.11.04-.24.04-.38v-1.55Z"/>
      <path class="cls-1" d="M138.5,52.13l-.06-.61h-.04c-.25.44-.66.71-1.15.71-.78,0-1.38-.66-1.38-1.65,0-1.45,1.16-2.1,2.47-2.11v-.18c0-.78-.19-1.32-.92-1.32-.36,0-.68.12-.96.3l-.2-.65c.24-.18.78-.38,1.36-.38,1.16,0,1.67.77,1.67,2.08v2.51c0,.44,0,.95.06,1.32h-.84ZM138.37,49.14c-.48,0-1.6.08-1.6,1.34,0,.76.38,1.03.71,1.03.41,0,.76-.3.86-.88.02-.11.02-.23.02-.32v-1.18Z"/>
      <path class="cls-1" d="M144.06,43.83v6.91c0,.4.04,1.06.05,1.39h-.79l-.06-.73h-.04c-.19.42-.6.83-1.21.83-.98,0-1.69-1.07-1.69-2.97,0-2.06.85-3.02,1.75-3.02.42,0,.83.2,1.06.7h.02v-3.09h.91ZM143.15,48.54c0-.12,0-.25-.01-.38-.06-.6-.42-1.13-.86-1.13-.77,0-1.03,1.07-1.03,2.23,0,1.22.31,2.21.98,2.21.29,0,.68-.16.89-1,.02-.11.04-.24.04-.38v-1.55Z"/>
      <path class="cls-1" d="M150.74,43.83v6.91c0,.4.04,1.06.05,1.39h-.79l-.06-.73h-.04c-.19.42-.6.83-1.21.83-.98,0-1.69-1.07-1.69-2.97,0-2.06.85-3.02,1.75-3.02.42,0,.83.2,1.06.7h.02v-3.09h.91ZM149.83,48.54c0-.12,0-.25-.01-.38-.06-.6-.42-1.13-.86-1.13-.77,0-1.03,1.07-1.03,2.23,0,1.22.31,2.21.98,2.21.29,0,.68-.16.89-1,.02-.11.04-.24.04-.38v-1.55Z"/>
      <path class="cls-1" d="M152.68,49.32c.01,1.77.71,2.16,1.38,2.16.4,0,.73-.1.96-.23l.14.68c-.32.18-.82.28-1.27.28-1.39,0-2.11-1.14-2.11-2.91,0-1.88.79-3.06,1.96-3.06s1.66,1.25,1.66,2.57c0,.22,0,.37-.01.52h-2.7ZM154.5,48.63c.02-1.16-.42-1.68-.86-1.68-.6,0-.91.89-.95,1.68h1.81Z"/>
    </g>
  </g>
  <g>
    <path class="cls-1" d="M70.33,77.11h-1.97v-1.1h5.17v1.1h-1.97v9.68h-1.23v-9.68Z"/>
    <path class="cls-1" d="M74.73,76.17c.53-.14,1.17-.21,1.78-.21,1.07,0,1.87.22,2.43.77.53.54.75,1.26.75,2.11,0,1.38-.64,2.27-1.73,2.77v.03c.8.24,1.22,1.01,1.46,2.42.24,1.49.46,2.4.61,2.74h-1.25c-.16-.32-.37-1.34-.58-2.67-.24-1.47-.7-2.03-1.76-2.03h-.48v4.71h-1.23v-10.63ZM75.96,81.15h.51c1.18,0,1.97-.86,1.97-2.16s-.51-2.02-1.84-2.03c-.24,0-.48.02-.64.06v4.13Z"/>
    <path class="cls-1" d="M82.66,83.56l-.72,3.23h-1.18l2.46-10.79h1.36l2.4,10.79h-1.22l-.72-3.23h-2.38ZM84.89,82.57l-.56-2.74c-.16-.77-.3-1.66-.43-2.46h-.06c-.13.82-.29,1.74-.43,2.46l-.56,2.74h2.05Z"/>
    <path class="cls-1" d="M88.33,76.17c.51-.13,1.12-.21,1.81-.21.98,0,1.81.21,2.38.75.46.43.7,1.07.7,1.84,0,1.1-.61,1.98-1.67,2.4v.03c1.25.34,2,1.34,2,2.75,0,.9-.29,1.62-.77,2.14-.61.69-1.62.98-2.85.98-.8,0-1.28-.05-1.62-.11v-10.58ZM89.56,80.59h.56c1.01,0,1.87-.77,1.87-1.9,0-.99-.46-1.76-1.78-1.76-.29,0-.51.03-.66.08v3.59ZM89.56,85.82c.14.03.35.06.62.06,1.28,0,2.11-.75,2.11-2.14,0-1.49-1.04-2.19-2.19-2.21h-.54v4.29Z"/>
    <path class="cls-1" d="M96.28,83.56l-.72,3.23h-1.18l2.46-10.79h1.36l2.4,10.79h-1.22l-.72-3.23h-2.38ZM98.5,82.57l-.56-2.74c-.16-.77-.3-1.66-.43-2.46h-.06c-.13.82-.29,1.74-.43,2.46l-.56,2.74h2.05Z"/>
    <path class="cls-1" d="M103.37,76.01h1.23v7.75c0,2.42-.98,3.17-2.53,3.17-.3,0-.59-.03-.8-.11l.11-1.04c.16.05.37.06.59.06.88,0,1.39-.35,1.39-2.06v-7.76Z"/>
    <path class="cls-1" d="M107.72,83.56l-.72,3.23h-1.18l2.46-10.79h1.36l2.4,10.79h-1.22l-.72-3.23h-2.38ZM109.94,82.57l-.56-2.74c-.16-.77-.3-1.66-.43-2.46h-.06c-.13.82-.29,1.74-.43,2.46l-.56,2.74h2.05Z"/>
    <path class="cls-1" d="M113.38,76.17c.48-.14,1.04-.21,1.67-.21,1.14,0,1.94.29,2.53.82.83.72,1.46,2.11,1.46,4.37,0,2.47-.61,3.81-1.3,4.55-.7.8-1.73,1.17-2.98,1.17-.5,0-1.01-.03-1.38-.11v-10.58ZM114.62,85.79c.18.03.35.03.46.03,1.36,0,2.67-.98,2.67-4.64,0-2.72-.83-4.21-2.56-4.21-.19,0-.42.02-.58.06v8.76Z"/>
    <path class="cls-1" d="M126.17,81.32c0,4.05-1.39,5.6-3.12,5.6s-2.99-1.9-2.99-5.54,1.28-5.51,3.17-5.51,2.95,2,2.95,5.44ZM121.33,81.4c0,2.22.43,4.43,1.79,4.43s1.76-2.35,1.76-4.47-.37-4.4-1.78-4.4-1.78,2.24-1.78,4.43Z"/>
    <path class="cls-1" d="M127.64,76.17c.53-.14,1.17-.21,1.78-.21,1.07,0,1.87.22,2.43.77.53.54.75,1.26.75,2.11,0,1.38-.64,2.27-1.73,2.77v.03c.8.24,1.22,1.01,1.46,2.42.24,1.49.46,2.4.61,2.74h-1.25c-.16-.32-.37-1.34-.58-2.67-.24-1.47-.7-2.03-1.76-2.03h-.48v4.71h-1.23v-10.63ZM128.87,81.15h.51c1.18,0,1.97-.86,1.97-2.16s-.51-2.02-1.84-2.03c-.24,0-.48.02-.64.06v4.13Z"/>
    <path class="cls-1" d="M138.12,81.67h-2.71v4.05h3.07v1.07h-4.31v-10.79h4.11v1.07h-2.88v3.55h2.71v1.04Z"/>
    <path class="cls-1" d="M139.61,85.37c.37.24,1.01.43,1.55.43,1.12,0,1.79-.74,1.79-1.83,0-.99-.58-1.6-1.42-2.24-.85-.59-2.03-1.6-2.03-2.99,0-1.63,1.14-2.83,2.85-2.83.67,0,1.26.21,1.52.4l-.3,1.06c-.27-.19-.72-.37-1.28-.37-1.06,0-1.55.8-1.55,1.54,0,1.07.56,1.49,1.58,2.22,1.3.91,1.87,1.9,1.87,3.11,0,1.86-1.31,3.03-3.03,3.03-.74,0-1.52-.24-1.82-.46l.27-1.06Z"/>
  </g>
  <rect class="cls-3" x="61.86" y="68.73" width="89.03" height="25.34" rx="7.06" ry="7.06"/>
  <line class="cls-3" x1="106.38" y1="94.07" x2="106.38" y2="135.97"/>
  <g>
    <path class="cls-1" d="M9.62,8.77h2.1v9.01h2.77v1.78h-4.87v-10.79Z"/>
    <path class="cls-1" d="M17.54,17.1l-.48,2.46h-2.03l2.34-10.79h2.51l2.1,10.79h-2.03l-.46-2.46h-1.94ZM19.29,15.46l-.35-2.26c-.11-.66-.26-1.73-.35-2.45h-.05c-.11.72-.27,1.84-.38,2.47l-.4,2.24h1.54Z"/>
    <path class="cls-1" d="M30.27,14.82h-2.46v2.91h2.79v1.82h-4.88v-10.79h4.69v1.82h-2.59v2.48h2.46v1.74Z"/>
    <path class="cls-1" d="M35.5,19.56l-.69-1.98c-.21-.62-.38-1.23-.58-1.92h-.03c-.18.69-.35,1.34-.51,1.95l-.58,1.95h-2.08l2.02-5.52-1.94-5.27h2.19l.62,2c.18.56.32,1.12.5,1.73h.03c.18-.66.3-1.17.45-1.76l.54-1.97h2.1l-2.02,5.36,2.13,5.43h-2.16Z"/>
    <path class="cls-1" d="M38.52,8.93c.59-.13,1.39-.21,2.19-.21,1.25,0,2.22.18,2.93.83.64.56.93,1.46.93,2.37,0,1.17-.35,1.98-.91,2.59-.67.7-1.76,1.02-2.62,1.02h-.42v4.02h-2.1v-10.63ZM40.62,13.83c.1.03.21.03.34.03,1.06,0,1.54-.75,1.54-1.76,0-.94-.38-1.68-1.36-1.68-.19,0-.38.03-.51.08v3.33Z"/>
    <path class="cls-1" d="M46.87,17.1l-.48,2.46h-2.03l2.34-10.79h2.51l2.1,10.79h-2.03l-.46-2.46h-1.94ZM48.62,15.46l-.35-2.26c-.11-.66-.26-1.73-.35-2.45h-.05c-.11.72-.27,1.84-.38,2.47l-.4,2.24h1.54Z"/>
    <path class="cls-1" d="M52.49,19.56v-10.79h1.92l1.66,4.23c.32.83.85,2.22,1.15,3.15h.03c-.06-1.14-.21-3.01-.21-4.99v-2.39h1.84v10.79h-1.92l-1.65-4.1c-.35-.91-.85-2.27-1.09-3.25h-.03c.05,1.09.13,2.75.13,4.91v2.43h-1.84Z"/>
    <path class="cls-1" d="M60.5,17.42c.43.24,1.17.42,1.78.42.99,0,1.47-.51,1.47-1.22,0-.78-.48-1.17-1.39-1.76-1.47-.9-2.03-2.03-2.03-3.01,0-1.73,1.15-3.17,3.41-3.17.7,0,1.38.19,1.7.38l-.34,1.81c-.3-.19-.77-.37-1.38-.37-.9,0-1.33.54-1.33,1.12,0,.64.32.98,1.49,1.68,1.42.86,1.95,1.95,1.95,3.09,0,1.97-1.46,3.27-3.57,3.27-.86,0-1.71-.22-2.07-.43l.3-1.81Z"/>
    <path class="cls-1" d="M69.14,8.77v10.79h-2.1v-10.79h2.1Z"/>
    <path class="cls-1" d="M77.39,13.98c0,4.07-1.44,5.71-3.49,5.71-2.45,0-3.41-2.59-3.41-5.55s1.17-5.49,3.55-5.49c2.61,0,3.35,2.87,3.35,5.33ZM72.66,14.17c0,2.45.46,3.7,1.31,3.7s1.22-1.6,1.22-3.79c0-1.89-.29-3.6-1.23-3.6-.83,0-1.3,1.38-1.3,3.7ZM76.49,6.39l-1.95,1.81h-1.49l1.31-1.81h2.13Z"/>
    <path class="cls-1" d="M78.71,19.56v-10.79h1.92l1.66,4.23c.32.83.85,2.22,1.15,3.15h.03c-.06-1.14-.21-3.01-.21-4.99v-2.39h1.84v10.79h-1.92l-1.65-4.1c-.35-.91-.85-2.27-1.09-3.25h-.03c.05,1.09.13,2.75.13,4.91v2.43h-1.84Z"/>
    <path class="cls-1" d="M91.22,17.1l-.48,2.46h-2.03l2.34-10.79h2.51l2.1,10.79h-2.03l-.46-2.46h-1.94ZM92.97,15.46l-.35-2.26c-.11-.66-.26-1.73-.35-2.45h-.05c-.11.72-.27,1.84-.38,2.47l-.4,2.24h1.54Z"/>
    <path class="cls-1" d="M102.57,19.27c-.46.19-1.46.38-2.24.38-1.23,0-2.16-.35-2.88-1.07-.93-.9-1.42-2.5-1.39-4.35.05-3.92,2.29-5.55,4.58-5.55.82,0,1.42.16,1.76.32l-.37,1.81c-.3-.16-.7-.24-1.23-.24-1.42,0-2.56.98-2.56,3.79,0,2.59,1.01,3.52,1.98,3.52.19,0,.34-.02.42-.05v-2.61h-.96v-1.71h2.9v5.76Z"/>
    <path class="cls-1" d="M104.13,8.93c.66-.13,1.49-.21,2.29-.21,1.15,0,2.18.16,2.88.8.66.59.85,1.31.85,2.24,0,1.15-.56,2.19-1.67,2.71v.03c.74.29,1.1.98,1.31,2.13.21,1.2.5,2.53.69,2.93h-2.19c-.13-.3-.37-1.39-.53-2.58-.19-1.34-.53-1.73-1.23-1.73h-.3v4.31h-2.1v-10.63ZM106.23,13.64h.37c.91,0,1.44-.74,1.44-1.68s-.37-1.57-1.31-1.6c-.18,0-.38.02-.5.06v3.22Z"/>
    <path class="cls-1" d="M113.75,8.77v10.79h-2.1v-10.79h2.1ZM115.13,6.39l-1.95,1.81h-1.49l1.33-1.81h2.11Z"/>
    <path class="cls-1" d="M120.79,19.4c-.3.14-.9.26-1.63.26-2.75,0-4.07-2.27-4.07-5.33,0-4.07,2.26-5.65,4.35-5.65.74,0,1.25.14,1.46.29l-.35,1.76c-.24-.11-.51-.21-.98-.21-1.18,0-2.26,1.02-2.26,3.7s.98,3.59,2.26,3.59c.35,0,.75-.08,1.01-.16l.21,1.76Z"/>
    <path class="cls-1" d="M128.12,13.98c0,4.07-1.44,5.71-3.49,5.71-2.45,0-3.41-2.59-3.41-5.55s1.17-5.49,3.55-5.49c2.61,0,3.35,2.87,3.35,5.33ZM123.4,14.17c0,2.45.46,3.7,1.31,3.7s1.22-1.6,1.22-3.79c0-1.89-.29-3.6-1.23-3.6-.83,0-1.3,1.38-1.3,3.7Z"/>
    <path class="cls-1" d="M129.45,8.77h2.1v9.01h2.77v1.78h-4.87v-10.79Z"/>
    <path class="cls-1" d="M137.37,17.1l-.48,2.46h-2.03l2.34-10.79h2.51l2.1,10.79h-2.03l-.46-2.46h-1.94ZM139.11,15.46l-.35-2.26c-.11-.66-.26-1.73-.35-2.45h-.05c-.11.72-.27,1.84-.38,2.47l-.4,2.24h1.54Z"/>
    <path class="cls-1" d="M151.51,19.27c-.46.19-1.46.38-2.24.38-1.23,0-2.16-.35-2.88-1.07-.93-.9-1.42-2.5-1.39-4.35.05-3.92,2.29-5.55,4.58-5.55.82,0,1.42.16,1.76.32l-.37,1.81c-.3-.16-.7-.24-1.23-.24-1.42,0-2.56.98-2.56,3.79,0,2.59,1.01,3.52,1.98,3.52.19,0,.34-.02.42-.05v-2.61h-.96v-1.71h2.9v5.76Z"/>
    <path class="cls-1" d="M154.79,17.1l-.48,2.46h-2.03l2.34-10.79h2.51l2.1,10.79h-2.03l-.46-2.46h-1.94ZM156.54,15.46l-.35-2.26c-.11-.66-.26-1.73-.35-2.45h-.05c-.11.72-.27,1.84-.38,2.47l-.4,2.24h1.54Z"/>
    <path class="cls-1" d="M160.41,19.56v-10.79h1.92l1.66,4.23c.32.83.85,2.22,1.15,3.15h.03c-.06-1.14-.21-3.01-.21-4.99v-2.39h1.84v10.79h-1.92l-1.65-4.1c-.35-.91-.85-2.27-1.09-3.25h-.03c.05,1.09.13,2.75.13,4.91v2.43h-1.84Z"/>
    <path class="cls-1" d="M170.37,17.1l-.48,2.46h-2.03l2.34-10.79h2.51l2.1,10.79h-2.03l-.46-2.46h-1.94ZM172.12,15.46l-.35-2.26c-.11-.66-.26-1.73-.35-2.45h-.05c-.11.72-.27,1.84-.38,2.47l-.4,2.24h1.54Z"/>
    <path class="cls-1" d="M175.99,8.93c.53-.13,1.3-.21,2.13-.21,1.36,0,2.3.32,2.99.96.93.83,1.41,2.26,1.41,4.35s-.56,3.73-1.5,4.56c-.72.7-1.79,1.04-3.3,1.04-.66,0-1.31-.06-1.73-.11v-10.6ZM178.09,17.9c.1.03.26.03.37.03,1.01,0,1.89-.99,1.89-3.97,0-2.21-.58-3.55-1.84-3.55-.14,0-.29,0-.42.05v7.44Z"/>
    <path class="cls-1" d="M188.41,14.82h-2.46v2.91h2.79v1.82h-4.88v-10.79h4.69v1.82h-2.59v2.48h2.46v1.74Z"/>
    <path class="cls-1" d="M190.15,8.93c.66-.13,1.49-.21,2.29-.21,1.15,0,2.18.16,2.88.8.66.59.85,1.31.85,2.24,0,1.15-.56,2.19-1.67,2.71v.03c.74.29,1.1.98,1.31,2.13.21,1.2.5,2.53.69,2.93h-2.19c-.13-.3-.37-1.39-.53-2.58-.19-1.34-.53-1.73-1.23-1.73h-.3v4.31h-2.1v-10.63ZM192.25,13.64h.37c.91,0,1.44-.74,1.44-1.68s-.37-1.57-1.31-1.6c-.18,0-.38.02-.5.06v3.22Z"/>
    <path class="cls-1" d="M199.38,17.1l-.48,2.46h-2.03l2.34-10.79h2.51l2.1,10.79h-2.03l-.46-2.46h-1.94ZM201.13,15.46l-.35-2.26c-.11-.66-.26-1.73-.35-2.45h-.05c-.11.72-.27,1.84-.38,2.47l-.4,2.24h1.54Z"/>
  </g>
  <rect class="cls-5" x="1.5" y="1.5" width="209.76" height="25.34" rx="7.06" ry="7.06"/>
  <path class="cls-3" d="M58.69,153.64v-8.24c0-4.93,4-8.93,8.93-8.93h83.51c4.93,0,8.93,4,8.93,8.93v8.24"/>
  <path class="cls-3" d="M58.69,179.97v8.24c0,4.93,4,8.93,8.93,8.93h83.51c4.93,0,8.93-4,8.93-8.93v-8.24"/>
  <g>
    <path class="cls-4" d="M107.14,118.19l-.06-.61h-.04c-.25.44-.66.71-1.15.71-.78,0-1.38-.66-1.38-1.65,0-1.45,1.16-2.1,2.47-2.11v-.18c0-.78-.19-1.32-.92-1.32-.36,0-.68.12-.96.3l-.2-.65c.24-.18.78-.38,1.36-.38,1.16,0,1.67.77,1.67,2.08v2.51c0,.44,0,.95.06,1.32h-.84ZM107,115.19c-.48,0-1.6.08-1.6,1.34,0,.76.38,1.03.71,1.03.41,0,.76-.3.86-.88.02-.11.02-.23.02-.32v-1.18Z"/>
    <path class="cls-2" d="M107.14,118.19l-.06-.61h-.04c-.25.44-.66.71-1.15.71-.78,0-1.38-.66-1.38-1.65,0-1.45,1.16-2.1,2.47-2.11v-.18c0-.78-.19-1.32-.92-1.32-.36,0-.68.12-.96.3l-.2-.65c.24-.18.78-.38,1.36-.38,1.16,0,1.67.77,1.67,2.08v2.51c0,.44,0,.95.06,1.32h-.84ZM107,115.19c-.48,0-1.6.08-1.6,1.34,0,.76.38,1.03.71,1.03.41,0,.76-.3.86-.88.02-.11.02-.23.02-.32v-1.18Z"/>
    <path class="cls-1" d="M107.14,118.19l-.06-.61h-.04c-.25.44-.66.71-1.15.71-.78,0-1.38-.66-1.38-1.65,0-1.45,1.16-2.1,2.47-2.11v-.18c0-.78-.19-1.32-.92-1.32-.36,0-.68.12-.96.3l-.2-.65c.24-.18.78-.38,1.36-.38,1.16,0,1.67.77,1.67,2.08v2.51c0,.44,0,.95.06,1.32h-.84ZM107,115.19c-.48,0-1.6.08-1.6,1.34,0,.76.38,1.03.71,1.03.41,0,.76-.3.86-.88.02-.11.02-.23.02-.32v-1.18Z"/>
  </g>
  <g>
    <path class="cls-1" d="M131.54,342.51v-10.79h1.17l1.98,5.06c.45,1.15,1.01,2.59,1.38,3.76h.03c-.1-1.7-.14-3.09-.14-4.96v-3.86h1.1v10.79h-1.17l-2.05-5.19c-.43-1.09-.9-2.32-1.28-3.67h-.03c.1,1.44.13,2.82.13,5.12v3.73h-1.12Z"/>
    <path class="cls-1" d="M140.22,331.72v10.79h-1.23v-10.79h1.23Z"/>
    <path class="cls-1" d="M142.17,342.51v-10.79h1.17l1.98,5.06c.45,1.15,1.01,2.59,1.38,3.76h.03c-.1-1.7-.14-3.09-.14-4.96v-3.86h1.1v10.79h-1.17l-2.05-5.19c-.43-1.09-.9-2.32-1.28-3.67h-.03c.1,1.44.13,2.82.13,5.12v3.73h-1.12ZM143.27,331.02c-.02-.9.35-1.5.94-1.5.32,0,.54.14.77.27.22.14.42.29.62.29.26,0,.38-.14.43-.58h.64c.02.9-.29,1.44-.99,1.44-.32,0-.58-.14-.78-.27-.22-.14-.4-.27-.59-.27-.24,0-.34.21-.38.62h-.66Z"/>
    <path class="cls-1" d="M155.27,337.04c0,4.05-1.39,5.6-3.12,5.6s-2.99-1.9-2.99-5.54,1.28-5.51,3.17-5.51,2.95,2,2.95,5.44ZM150.44,337.12c0,2.22.43,4.43,1.79,4.43s1.76-2.35,1.76-4.47-.37-4.4-1.78-4.4-1.78,2.24-1.78,4.43Z"/>
    <path class="cls-1" d="M156.5,341.09c.37.24,1.01.43,1.55.43,1.12,0,1.79-.74,1.79-1.83,0-.99-.58-1.6-1.42-2.24-.85-.59-2.03-1.6-2.03-2.99,0-1.63,1.14-2.83,2.85-2.83.67,0,1.26.21,1.52.4l-.3,1.06c-.27-.19-.72-.37-1.28-.37-1.06,0-1.55.8-1.55,1.54,0,1.07.56,1.49,1.58,2.22,1.3.91,1.87,1.9,1.87,3.11,0,1.86-1.31,3.03-3.03,3.03-.74,0-1.52-.24-1.82-.46l.27-1.06Z"/>
  </g>
  <rect class="cls-3" x="124.5" y="324.45" width="43.13" height="25.34" rx="7.06" ry="7.06"/>
  <g>
    <path class="cls-1" d="M50.79,337.87c-.08-1.42-.16-3.01-.11-4.23h-.06c-.24,1.2-.53,2.48-.87,3.75l-1.33,5.06h-.78l-1.27-4.85c-.35-1.38-.67-2.71-.88-3.95h-.05c0,1.26-.06,2.77-.13,4.31l-.21,4.56h-1.11l.64-10.79h1.33l1.27,4.93c.37,1.42.64,2.48.86,3.71h.05c.21-1.23.45-2.26.8-3.71l1.22-4.93h1.38l.62,10.79h-1.15l-.22-4.64Z"/>
    <path class="cls-1" d="M55.06,331.72v7.24c0,1.94.64,2.59,1.47,2.59.91,0,1.49-.7,1.49-2.59v-7.24h1.23v7.04c0,2.8-1.15,3.87-2.75,3.87s-2.67-1.06-2.67-3.73v-7.19h1.23Z"/>
    <path class="cls-1" d="M62.34,331.72h1.23v7.75c0,2.42-.97,3.17-2.53,3.17-.3,0-.59-.03-.8-.11l.11-1.04c.16.05.37.06.59.06.88,0,1.39-.35,1.39-2.07v-7.76Z"/>
    <path class="cls-1" d="M69.33,337.39h-2.71v4.05h3.07v1.07h-4.31v-10.79h4.11v1.07h-2.88v3.55h2.71v1.04Z"/>
    <path class="cls-1" d="M71.06,331.88c.53-.14,1.17-.21,1.78-.21,1.07,0,1.87.22,2.43.77.53.54.75,1.26.75,2.11,0,1.38-.64,2.27-1.73,2.77v.03c.8.24,1.22,1.01,1.46,2.42.24,1.49.46,2.4.61,2.74h-1.25c-.16-.32-.37-1.34-.58-2.67-.24-1.47-.7-2.03-1.76-2.03h-.48v4.71h-1.23v-10.63ZM72.29,336.86h.51c1.19,0,1.97-.86,1.97-2.16s-.51-2.02-1.84-2.03c-.24,0-.48.02-.64.06v4.13Z"/>
    <path class="cls-1" d="M81.54,337.39h-2.71v4.05h3.07v1.07h-4.31v-10.79h4.12v1.07h-2.88v3.55h2.71v1.04Z"/>
    <path class="cls-1" d="M83.03,341.09c.37.24,1.01.43,1.55.43,1.12,0,1.79-.74,1.79-1.83,0-.99-.58-1.6-1.43-2.24-.85-.59-2.03-1.6-2.03-2.99,0-1.63,1.14-2.83,2.85-2.83.67,0,1.27.21,1.52.4l-.3,1.06c-.27-.19-.72-.37-1.28-.37-1.06,0-1.55.8-1.55,1.54,0,1.07.56,1.49,1.58,2.22,1.3.91,1.87,1.9,1.87,3.11,0,1.86-1.31,3.03-3.03,3.03-.74,0-1.52-.24-1.82-.46l.27-1.06Z"/>
  </g>
  <rect class="cls-3" x="38.18" y="324.45" width="55.01" height="25.34" rx="7.06" ry="7.06"/>
  <line class="cls-3" x1="106.38" y1="264.39" x2="106.38" y2="306.28"/>
  <path class="cls-3" d="M65.69,323.96v-8.24c0-4.93,4-8.93,8.93-8.93h62.51c4.93,0,8.93,4,8.93,8.93v8.24"/>
  <g>
    <g>
      <path class="cls-4" d="M52.6,287.9h-.04c-.19.4-.59.7-1.12.7-.94,0-1.68-1.02-1.68-2.93,0-2.05.86-3.07,1.82-3.07.37,0,.8.17,1.08.77h.02s.05-.67.05-.67h.83c-.02.41-.05.92-.05,1.81v6.3h-.92v-2.9ZM52.6,284.87c0-.12,0-.28-.02-.38-.07-.61-.43-1.09-.84-1.09-.75,0-1.04,1.01-1.04,2.23s.31,2.21,1.02,2.21c.29,0,.65-.17.84-.97.05-.14.05-.34.05-.49v-1.5Z"/>
      <path class="cls-4" d="M58.29,286.92c0,.65.04,1.15.05,1.58h-.8l-.06-.61h-.02c-.18.29-.62.71-1.25.71-1.02,0-1.42-.79-1.42-2.23v-3.67h.92v3.54c0,.91.14,1.58.78,1.58.54,0,.78-.5.83-.77.04-.16.05-.34.05-.53v-3.83h.92v4.22Z"/>
      <path class="cls-4" d="M60.24,285.68c.01,1.77.71,2.16,1.38,2.16.4,0,.73-.1.96-.23l.14.68c-.32.18-.82.28-1.27.28-1.39,0-2.11-1.14-2.11-2.91,0-1.88.79-3.06,1.96-3.06s1.66,1.25,1.66,2.57c0,.22,0,.37-.01.52h-2.7ZM62.06,285c.02-1.16-.42-1.68-.86-1.68-.6,0-.91.89-.95,1.68h1.81Z"/>
      <path class="cls-4" d="M65.82,284.51c0-.89-.04-1.4-.05-1.81h.83l.05.74h.02c.31-.62.77-.84,1.22-.84,1.01,0,1.68,1.08,1.68,2.99,0,2.15-.89,3.01-1.8,3.01-.54,0-.85-.35-1.01-.67h-.02v2.88h-.92v-6.3ZM66.74,286.37c0,.18,0,.35.04.48.18.83.6.98.85.98.77,0,1.01-1.06,1.01-2.23s-.29-2.21-1.02-2.21c-.42,0-.79.53-.85,1.06-.02.14-.02.29-.02.44v1.48Z"/>
      <path class="cls-4" d="M70.6,284.2c0-.49-.04-1.07-.05-1.5h.83l.05.91h.02c.19-.55.68-1.01,1.22-1.01.07,0,.13.01.19.01v.95c-.06-.01-.12-.01-.19-.01-.59,0-1.02.54-1.12,1.21-.02.16-.04.34-.04.53v3.21h-.92v-4.31Z"/>
      <path class="cls-4" d="M76.99,285.6c0,2.24-1.04,3-1.93,3-1.04,0-1.88-.95-1.88-2.99s.95-3.01,1.94-3.01,1.87.97,1.87,3ZM74.1,285.6c0,.96.17,2.27,1.01,2.27.79,0,.95-1.37.95-2.27s-.16-2.25-.97-2.25-.98,1.37-.98,2.25Z"/>
      <path class="cls-4" d="M79.15,281.16v1.54h1.12v.71h-1.12v3.44c0,.76.28.96.61.96.14,0,.26-.01.37-.04l.04.71c-.17.06-.38.1-.68.1-.36,0-.68-.1-.91-.35-.23-.26-.35-.66-.35-1.46v-3.36h-.71v-.71h.71v-1.27l.92-.26Z"/>
      <path class="cls-4" d="M81.63,285.68c.01,1.77.71,2.16,1.38,2.16.4,0,.73-.1.96-.23l.14.68c-.32.18-.82.28-1.27.28-1.39,0-2.11-1.14-2.11-2.91,0-1.88.79-3.06,1.96-3.06s1.66,1.25,1.66,2.57c0,.22,0,.37-.01.52h-2.7ZM83.45,285c.02-1.16-.42-1.68-.86-1.68-.6,0-.91.89-.95,1.68h1.81Z"/>
      <path class="cls-4" d="M88.89,282.7c-.01.41-.05.92-.05,1.81v3.25c0,1.52-.19,2.1-.58,2.52-.35.4-.9.62-1.55.62-.49,0-.97-.12-1.27-.29l.22-.72c.23.12.61.25,1.08.25.73,0,1.19-.46,1.19-1.77v-.59h-.02c-.2.46-.62.71-1.12.71-1.03,0-1.7-1.16-1.7-2.87,0-2.13.97-3.02,1.82-3.02.62,0,.91.41,1.08.76h.02l.05-.66h.83ZM87.93,284.7c0-.14-.01-.3-.05-.42-.11-.4-.31-.89-.84-.89-.67,0-1.03.9-1.03,2.18,0,1.49.47,2.16,1.03,2.16.28,0,.64-.13.83-.83.05-.18.06-.36.06-.53v-1.68Z"/>
      <path class="cls-4" d="M91.12,281.2c.01.36-.22.6-.56.6-.3,0-.53-.24-.53-.6s.24-.6.54-.6c.33,0,.55.24.55.6ZM90.13,288.5v-5.8h.92v5.8h-.92Z"/>
      <path class="cls-4" d="M92.98,285.68c.01,1.77.71,2.16,1.38,2.16.4,0,.73-.1.96-.23l.14.68c-.32.18-.82.28-1.27.28-1.39,0-2.11-1.14-2.11-2.91,0-1.88.79-3.06,1.96-3.06s1.66,1.25,1.66,2.57c0,.22,0,.37-.01.52h-2.7ZM94.81,285c.02-1.16-.42-1.68-.86-1.68-.6,0-.91.89-.95,1.68h1.81Z"/>
      <path class="cls-4" d="M96.68,284.2c0-.49-.04-1.07-.05-1.5h.83l.05.91h.02c.19-.55.68-1.01,1.22-1.01.07,0,.13.01.19.01v.95c-.06-.01-.12-.01-.19-.01-.59,0-1.02.54-1.12,1.21-.02.16-.04.34-.04.53v3.21h-.92v-4.31Z"/>
      <path class="cls-4" d="M101.89,288.5l-.06-.61h-.04c-.25.44-.66.71-1.15.71-.78,0-1.38-.66-1.38-1.66,0-1.45,1.16-2.1,2.47-2.11v-.18c0-.78-.19-1.32-.92-1.32-.36,0-.68.12-.96.3l-.2-.65c.24-.18.78-.38,1.36-.38,1.16,0,1.67.77,1.67,2.08v2.51c0,.44,0,.95.06,1.32h-.84ZM101.75,285.5c-.48,0-1.6.08-1.6,1.34,0,.76.38,1.03.71,1.03.41,0,.76-.3.86-.88.02-.11.02-.23.02-.32v-1.18Z"/>
      <path class="cls-4" d="M103.96,284.2c0-.68-.04-1.03-.05-1.5h.8l.05.7h.02c.25-.47.72-.79,1.33-.79.8,0,1.4.6,1.4,2v3.9h-.92v-3.74c0-.68-.13-1.38-.8-1.38-.38,0-.76.32-.88.95-.02.14-.04.32-.04.52v3.66h-.92v-4.31Z"/>
      <path class="cls-4" d="M110.71,280.2h.92v8.3h-.92v-8.3Z"/>
      <path class="cls-4" d="M115.29,288.5l-.06-.61h-.04c-.25.44-.66.71-1.15.71-.78,0-1.38-.66-1.38-1.66,0-1.45,1.16-2.1,2.47-2.11v-.18c0-.78-.19-1.32-.92-1.32-.36,0-.68.12-.96.3l-.2-.65c.24-.18.78-.38,1.36-.38,1.16,0,1.67.77,1.67,2.08v2.51c0,.44,0,.95.06,1.32h-.84ZM115.16,285.5c-.48,0-1.6.08-1.6,1.34,0,.76.38,1.03.71,1.03.41,0,.76-.3.86-.88.02-.11.02-.23.02-.32v-1.18Z"/>
      <path class="cls-4" d="M121.54,288.5l-.06-.61h-.04c-.25.44-.66.71-1.15.71-.78,0-1.38-.66-1.38-1.66,0-1.45,1.16-2.1,2.47-2.11v-.18c0-.78-.19-1.32-.92-1.32-.36,0-.68.12-.96.3l-.2-.65c.24-.18.78-.38,1.36-.38,1.16,0,1.67.77,1.67,2.08v2.51c0,.44,0,.95.06,1.32h-.84ZM121.41,285.5c-.48,0-1.6.08-1.6,1.34,0,.76.38,1.03.71,1.03.41,0,.76-.3.86-.88.02-.11.02-.23.02-.32v-1.18Z"/>
      <path class="cls-4" d="M126.45,288.36c-.2.12-.55.22-.96.22-1.27,0-2.12-1.02-2.12-2.94,0-1.67.84-3.02,2.29-3.02.31,0,.65.08.82.18l-.18.76c-.12-.06-.36-.16-.66-.16-.92,0-1.34,1.1-1.34,2.24,0,1.35.52,2.17,1.37,2.17.25,0,.46-.06.67-.16l.12.71Z"/>
      <path class="cls-4" d="M128.55,281.16v1.54h1.12v.71h-1.12v3.44c0,.76.28.96.61.96.14,0,.26-.01.37-.04l.04.71c-.17.06-.38.1-.68.1-.36,0-.68-.1-.91-.35-.23-.26-.35-.66-.35-1.46v-3.36h-.71v-.71h.71v-1.27l.92-.26Z"/>
      <path class="cls-4" d="M131.48,281.2c.01.36-.22.6-.56.6-.3,0-.53-.24-.53-.6s.24-.6.54-.6c.33,0,.55.24.55.6ZM130.48,288.5v-5.8h.92v5.8h-.92Z"/>
      <path class="cls-4" d="M133.16,282.7l.73,3.26c.08.4.18.91.25,1.42h.04c.06-.48.16-.97.24-1.42l.72-3.26h.91l-1.51,5.8h-.83l-1.51-5.8h.96Z"/>
      <path class="cls-4" d="M137.85,281.2c.01.36-.22.6-.56.6-.3,0-.53-.24-.53-.6s.24-.6.54-.6c.33,0,.55.24.55.6ZM136.85,288.5v-5.8h.92v5.8h-.92Z"/>
      <path class="cls-4" d="M142.55,280.2v6.91c0,.4.04,1.06.05,1.39h-.79l-.06-.73h-.04c-.19.42-.6.83-1.21.83-.98,0-1.69-1.07-1.69-2.97,0-2.06.85-3.02,1.75-3.02.42,0,.83.2,1.06.7h.02v-3.09h.91ZM141.64,284.9c0-.12,0-.25-.01-.38-.06-.6-.42-1.13-.86-1.13-.77,0-1.03,1.07-1.03,2.23,0,1.22.31,2.21.98,2.21.29,0,.68-.16.89-1,.02-.11.04-.24.04-.38v-1.55Z"/>
      <path class="cls-4" d="M146.14,288.5l-.06-.61h-.04c-.25.44-.66.71-1.15.71-.78,0-1.38-.66-1.38-1.66,0-1.45,1.16-2.1,2.47-2.11v-.18c0-.78-.19-1.32-.92-1.32-.36,0-.68.12-.96.3l-.2-.65c.24-.18.78-.38,1.36-.38,1.16,0,1.67.77,1.67,2.08v2.51c0,.44,0,.95.06,1.32h-.84ZM146.01,285.5c-.48,0-1.6.08-1.6,1.34,0,.76.38,1.03.71,1.03.41,0,.76-.3.86-.88.02-.11.02-.23.02-.32v-1.18Z"/>
      <path class="cls-4" d="M151.71,280.2v6.91c0,.4.04,1.06.05,1.39h-.79l-.06-.73h-.04c-.19.42-.6.83-1.21.83-.98,0-1.69-1.07-1.69-2.97,0-2.06.85-3.02,1.75-3.02.42,0,.83.2,1.06.7h.02v-3.09h.91ZM150.8,284.9c0-.12,0-.25-.01-.38-.06-.6-.42-1.13-.86-1.13-.77,0-1.03,1.07-1.03,2.23,0,1.22.31,2.21.98,2.21.29,0,.68-.16.89-1,.02-.11.04-.24.04-.38v-1.55Z"/>
      <path class="cls-4" d="M158.38,280.2v6.91c0,.4.04,1.06.05,1.39h-.79l-.06-.73h-.04c-.19.42-.6.83-1.21.83-.98,0-1.69-1.07-1.69-2.97,0-2.06.85-3.02,1.75-3.02.42,0,.83.2,1.06.7h.02v-3.09h.91ZM157.47,284.9c0-.12,0-.25-.01-.38-.06-.6-.42-1.13-.86-1.13-.77,0-1.03,1.07-1.03,2.23,0,1.22.31,2.21.98,2.21.29,0,.68-.16.89-1,.02-.11.04-.24.04-.38v-1.55Z"/>
      <path class="cls-4" d="M160.33,285.68c.01,1.77.71,2.16,1.38,2.16.4,0,.73-.1.96-.23l.14.68c-.32.18-.82.28-1.27.28-1.39,0-2.11-1.14-2.11-2.91,0-1.88.79-3.06,1.96-3.06s1.66,1.25,1.66,2.57c0,.22,0,.37-.01.52h-2.7ZM162.15,285c.02-1.16-.42-1.68-.86-1.68-.6,0-.91.89-.95,1.68h1.81Z"/>
    </g>
    <g>
      <path class="cls-2" d="M52.6,287.9h-.04c-.19.4-.59.7-1.12.7-.94,0-1.68-1.02-1.68-2.93,0-2.05.86-3.07,1.82-3.07.37,0,.8.17,1.08.77h.02s.05-.67.05-.67h.83c-.02.41-.05.92-.05,1.81v6.3h-.92v-2.9ZM52.6,284.87c0-.12,0-.28-.02-.38-.07-.61-.43-1.09-.84-1.09-.75,0-1.04,1.01-1.04,2.23s.31,2.21,1.02,2.21c.29,0,.65-.17.84-.97.05-.14.05-.34.05-.49v-1.5Z"/>
      <path class="cls-2" d="M58.29,286.92c0,.65.04,1.15.05,1.58h-.8l-.06-.61h-.02c-.18.29-.62.71-1.25.71-1.02,0-1.42-.79-1.42-2.23v-3.67h.92v3.54c0,.91.14,1.58.78,1.58.54,0,.78-.5.83-.77.04-.16.05-.34.05-.53v-3.83h.92v4.22Z"/>
      <path class="cls-2" d="M60.24,285.68c.01,1.77.71,2.16,1.38,2.16.4,0,.73-.1.96-.23l.14.68c-.32.18-.82.28-1.27.28-1.39,0-2.11-1.14-2.11-2.91,0-1.88.79-3.06,1.96-3.06s1.66,1.25,1.66,2.57c0,.22,0,.37-.01.52h-2.7ZM62.06,285c.02-1.16-.42-1.68-.86-1.68-.6,0-.91.89-.95,1.68h1.81Z"/>
      <path class="cls-2" d="M65.82,284.51c0-.89-.04-1.4-.05-1.81h.83l.05.74h.02c.31-.62.77-.84,1.22-.84,1.01,0,1.68,1.08,1.68,2.99,0,2.15-.89,3.01-1.8,3.01-.54,0-.85-.35-1.01-.67h-.02v2.88h-.92v-6.3ZM66.74,286.37c0,.18,0,.35.04.48.18.83.6.98.85.98.77,0,1.01-1.06,1.01-2.23s-.29-2.21-1.02-2.21c-.42,0-.79.53-.85,1.06-.02.14-.02.29-.02.44v1.48Z"/>
      <path class="cls-2" d="M70.6,284.2c0-.49-.04-1.07-.05-1.5h.83l.05.91h.02c.19-.55.68-1.01,1.22-1.01.07,0,.13.01.19.01v.95c-.06-.01-.12-.01-.19-.01-.59,0-1.02.54-1.12,1.21-.02.16-.04.34-.04.53v3.21h-.92v-4.31Z"/>
      <path class="cls-2" d="M76.99,285.6c0,2.24-1.04,3-1.93,3-1.04,0-1.88-.95-1.88-2.99s.95-3.01,1.94-3.01,1.87.97,1.87,3ZM74.1,285.6c0,.96.17,2.27,1.01,2.27.79,0,.95-1.37.95-2.27s-.16-2.25-.97-2.25-.98,1.37-.98,2.25Z"/>
      <path class="cls-2" d="M79.15,281.16v1.54h1.12v.71h-1.12v3.44c0,.76.28.96.61.96.14,0,.26-.01.37-.04l.04.71c-.17.06-.38.1-.68.1-.36,0-.68-.1-.91-.35-.23-.26-.35-.66-.35-1.46v-3.36h-.71v-.71h.71v-1.27l.92-.26Z"/>
      <path class="cls-2" d="M81.63,285.68c.01,1.77.71,2.16,1.38,2.16.4,0,.73-.1.96-.23l.14.68c-.32.18-.82.28-1.27.28-1.39,0-2.11-1.14-2.11-2.91,0-1.88.79-3.06,1.96-3.06s1.66,1.25,1.66,2.57c0,.22,0,.37-.01.52h-2.7ZM83.45,285c.02-1.16-.42-1.68-.86-1.68-.6,0-.91.89-.95,1.68h1.81Z"/>
      <path class="cls-2" d="M88.89,282.7c-.01.41-.05.92-.05,1.81v3.25c0,1.52-.19,2.1-.58,2.52-.35.4-.9.62-1.55.62-.49,0-.97-.12-1.27-.29l.22-.72c.23.12.61.25,1.08.25.73,0,1.19-.46,1.19-1.77v-.59h-.02c-.2.46-.62.71-1.12.71-1.03,0-1.7-1.16-1.7-2.87,0-2.13.97-3.02,1.82-3.02.62,0,.91.41,1.08.76h.02l.05-.66h.83ZM87.93,284.7c0-.14-.01-.3-.05-.42-.11-.4-.31-.89-.84-.89-.67,0-1.03.9-1.03,2.18,0,1.49.47,2.16,1.03,2.16.28,0,.64-.13.83-.83.05-.18.06-.36.06-.53v-1.68Z"/>
      <path class="cls-2" d="M91.12,281.2c.01.36-.22.6-.56.6-.3,0-.53-.24-.53-.6s.24-.6.54-.6c.33,0,.55.24.55.6ZM90.13,288.5v-5.8h.92v5.8h-.92Z"/>
      <path class="cls-2" d="M92.98,285.68c.01,1.77.71,2.16,1.38,2.16.4,0,.73-.1.96-.23l.14.68c-.32.18-.82.28-1.27.28-1.39,0-2.11-1.14-2.11-2.91,0-1.88.79-3.06,1.96-3.06s1.66,1.25,1.66,2.57c0,.22,0,.37-.01.52h-2.7ZM94.81,285c.02-1.16-.42-1.68-.86-1.68-.6,0-.91.89-.95,1.68h1.81Z"/>
      <path class="cls-2" d="M96.68,284.2c0-.49-.04-1.07-.05-1.5h.83l.05.91h.02c.19-.55.68-1.01,1.22-1.01.07,0,.13.01.19.01v.95c-.06-.01-.12-.01-.19-.01-.59,0-1.02.54-1.12,1.21-.02.16-.04.34-.04.53v3.21h-.92v-4.31Z"/>
      <path class="cls-2" d="M101.89,288.5l-.06-.61h-.04c-.25.44-.66.71-1.15.71-.78,0-1.38-.66-1.38-1.66,0-1.45,1.16-2.1,2.47-2.11v-.18c0-.78-.19-1.32-.92-1.32-.36,0-.68.12-.96.3l-.2-.65c.24-.18.78-.38,1.36-.38,1.16,0,1.67.77,1.67,2.08v2.51c0,.44,0,.95.06,1.32h-.84ZM101.75,285.5c-.48,0-1.6.08-1.6,1.34,0,.76.38,1.03.71,1.03.41,0,.76-.3.86-.88.02-.11.02-.23.02-.32v-1.18Z"/>
      <path class="cls-2" d="M103.96,284.2c0-.68-.04-1.03-.05-1.5h.8l.05.7h.02c.25-.47.72-.79,1.33-.79.8,0,1.4.6,1.4,2v3.9h-.92v-3.74c0-.68-.13-1.38-.8-1.38-.38,0-.76.32-.88.95-.02.14-.04.32-.04.52v3.66h-.92v-4.31Z"/>
      <path class="cls-2" d="M110.71,280.2h.92v8.3h-.92v-8.3Z"/>
      <path class="cls-2" d="M115.29,288.5l-.06-.61h-.04c-.25.44-.66.71-1.15.71-.78,0-1.38-.66-1.38-1.66,0-1.45,1.16-2.1,2.47-2.11v-.18c0-.78-.19-1.32-.92-1.32-.36,0-.68.12-.96.3l-.2-.65c.24-.18.78-.38,1.36-.38,1.16,0,1.67.77,1.67,2.08v2.51c0,.44,0,.95.06,1.32h-.84ZM115.16,285.5c-.48,0-1.6.08-1.6,1.34,0,.76.38,1.03.71,1.03.41,0,.76-.3.86-.88.02-.11.02-.23.02-.32v-1.18Z"/>
      <path class="cls-2" d="M121.54,288.5l-.06-.61h-.04c-.25.44-.66.71-1.15.71-.78,0-1.38-.66-1.38-1.66,0-1.45,1.16-2.1,2.47-2.11v-.18c0-.78-.19-1.32-.92-1.32-.36,0-.68.12-.96.3l-.2-.65c.24-.18.78-.38,1.36-.38,1.16,0,1.67.77,1.67,2.08v2.51c0,.44,0,.95.06,1.32h-.84ZM121.41,285.5c-.48,0-1.6.08-1.6,1.34,0,.76.38,1.03.71,1.03.41,0,.76-.3.86-.88.02-.11.02-.23.02-.32v-1.18Z"/>
      <path class="cls-2" d="M126.45,288.36c-.2.12-.55.22-.96.22-1.27,0-2.12-1.02-2.12-2.94,0-1.67.84-3.02,2.29-3.02.31,0,.65.08.82.18l-.18.76c-.12-.06-.36-.16-.66-.16-.92,0-1.34,1.1-1.34,2.24,0,1.35.52,2.17,1.37,2.17.25,0,.46-.06.67-.16l.12.71Z"/>
      <path class="cls-2" d="M128.55,281.16v1.54h1.12v.71h-1.12v3.44c0,.76.28.96.61.96.14,0,.26-.01.37-.04l.04.71c-.17.06-.38.1-.68.1-.36,0-.68-.1-.91-.35-.23-.26-.35-.66-.35-1.46v-3.36h-.71v-.71h.71v-1.27l.92-.26Z"/>
      <path class="cls-2" d="M131.48,281.2c.01.36-.22.6-.56.6-.3,0-.53-.24-.53-.6s.24-.6.54-.6c.33,0,.55.24.55.6ZM130.48,288.5v-5.8h.92v5.8h-.92Z"/>
      <path class="cls-2" d="M133.16,282.7l.73,3.26c.08.4.18.91.25,1.42h.04c.06-.48.16-.97.24-1.42l.72-3.26h.91l-1.51,5.8h-.83l-1.51-5.8h.96Z"/>
      <path class="cls-2" d="M137.85,281.2c.01.36-.22.6-.56.6-.3,0-.53-.24-.53-.6s.24-.6.54-.6c.33,0,.55.24.55.6ZM136.85,288.5v-5.8h.92v5.8h-.92Z"/>
      <path class="cls-2" d="M142.55,280.2v6.91c0,.4.04,1.06.05,1.39h-.79l-.06-.73h-.04c-.19.42-.6.83-1.21.83-.98,0-1.69-1.07-1.69-2.97,0-2.06.85-3.02,1.75-3.02.42,0,.83.2,1.06.7h.02v-3.09h.91ZM141.64,284.9c0-.12,0-.25-.01-.38-.06-.6-.42-1.13-.86-1.13-.77,0-1.03,1.07-1.03,2.23,0,1.22.31,2.21.98,2.21.29,0,.68-.16.89-1,.02-.11.04-.24.04-.38v-1.55Z"/>
      <path class="cls-2" d="M146.14,288.5l-.06-.61h-.04c-.25.44-.66.71-1.15.71-.78,0-1.38-.66-1.38-1.66,0-1.45,1.16-2.1,2.47-2.11v-.18c0-.78-.19-1.32-.92-1.32-.36,0-.68.12-.96.3l-.2-.65c.24-.18.78-.38,1.36-.38,1.16,0,1.67.77,1.67,2.08v2.51c0,.44,0,.95.06,1.32h-.84ZM146.01,285.5c-.48,0-1.6.08-1.6,1.34,0,.76.38,1.03.71,1.03.41,0,.76-.3.86-.88.02-.11.02-.23.02-.32v-1.18Z"/>
      <path class="cls-2" d="M151.71,280.2v6.91c0,.4.04,1.06.05,1.39h-.79l-.06-.73h-.04c-.19.42-.6.83-1.21.83-.98,0-1.69-1.07-1.69-2.97,0-2.06.85-3.02,1.75-3.02.42,0,.83.2,1.06.7h.02v-3.09h.91ZM150.8,284.9c0-.12,0-.25-.01-.38-.06-.6-.42-1.13-.86-1.13-.77,0-1.03,1.07-1.03,2.23,0,1.22.31,2.21.98,2.21.29,0,.68-.16.89-1,.02-.11.04-.24.04-.38v-1.55Z"/>
      <path class="cls-2" d="M158.38,280.2v6.91c0,.4.04,1.06.05,1.39h-.79l-.06-.73h-.04c-.19.42-.6.83-1.21.83-.98,0-1.69-1.07-1.69-2.97,0-2.06.85-3.02,1.75-3.02.42,0,.83.2,1.06.7h.02v-3.09h.91ZM157.47,284.9c0-.12,0-.25-.01-.38-.06-.6-.42-1.13-.86-1.13-.77,0-1.03,1.07-1.03,2.23,0,1.22.31,2.21.98,2.21.29,0,.68-.16.89-1,.02-.11.04-.24.04-.38v-1.55Z"/>
      <path class="cls-2" d="M160.33,285.68c.01,1.77.71,2.16,1.38,2.16.4,0,.73-.1.96-.23l.14.68c-.32.18-.82.28-1.27.28-1.39,0-2.11-1.14-2.11-2.91,0-1.88.79-3.06,1.96-3.06s1.66,1.25,1.66,2.57c0,.22,0,.37-.01.52h-2.7ZM162.15,285c.02-1.16-.42-1.68-.86-1.68-.6,0-.91.89-.95,1.68h1.81Z"/>
    </g>
    <g>
      <path class="cls-1" d="M52.6,287.9h-.04c-.19.4-.59.7-1.12.7-.94,0-1.68-1.02-1.68-2.93,0-2.05.86-3.07,1.82-3.07.37,0,.8.17,1.08.77h.02s.05-.67.05-.67h.83c-.02.41-.05.92-.05,1.81v6.3h-.92v-2.9ZM52.6,284.87c0-.12,0-.28-.02-.38-.07-.61-.43-1.09-.84-1.09-.75,0-1.04,1.01-1.04,2.23s.31,2.21,1.02,2.21c.29,0,.65-.17.84-.97.05-.14.05-.34.05-.49v-1.5Z"/>
      <path class="cls-1" d="M58.29,286.92c0,.65.04,1.15.05,1.58h-.8l-.06-.61h-.02c-.18.29-.62.71-1.25.71-1.02,0-1.42-.79-1.42-2.23v-3.67h.92v3.54c0,.91.14,1.58.78,1.58.54,0,.78-.5.83-.77.04-.16.05-.34.05-.53v-3.83h.92v4.22Z"/>
      <path class="cls-1" d="M60.24,285.68c.01,1.77.71,2.16,1.38,2.16.4,0,.73-.1.96-.23l.14.68c-.32.18-.82.28-1.27.28-1.39,0-2.11-1.14-2.11-2.91,0-1.88.79-3.06,1.96-3.06s1.66,1.25,1.66,2.57c0,.22,0,.37-.01.52h-2.7ZM62.06,285c.02-1.16-.42-1.68-.86-1.68-.6,0-.91.89-.95,1.68h1.81Z"/>
      <path class="cls-1" d="M65.82,284.51c0-.89-.04-1.4-.05-1.81h.83l.05.74h.02c.31-.62.77-.84,1.22-.84,1.01,0,1.68,1.08,1.68,2.99,0,2.15-.89,3.01-1.8,3.01-.54,0-.85-.35-1.01-.67h-.02v2.88h-.92v-6.3ZM66.74,286.37c0,.18,0,.35.04.48.18.83.6.98.85.98.77,0,1.01-1.06,1.01-2.23s-.29-2.21-1.02-2.21c-.42,0-.79.53-.85,1.06-.02.14-.02.29-.02.44v1.48Z"/>
      <path class="cls-1" d="M70.6,284.2c0-.49-.04-1.07-.05-1.5h.83l.05.91h.02c.19-.55.68-1.01,1.22-1.01.07,0,.13.01.19.01v.95c-.06-.01-.12-.01-.19-.01-.59,0-1.02.54-1.12,1.21-.02.16-.04.34-.04.53v3.21h-.92v-4.31Z"/>
      <path class="cls-1" d="M76.99,285.6c0,2.24-1.04,3-1.93,3-1.04,0-1.88-.95-1.88-2.99s.95-3.01,1.94-3.01,1.87.97,1.87,3ZM74.1,285.6c0,.96.17,2.27,1.01,2.27.79,0,.95-1.37.95-2.27s-.16-2.25-.97-2.25-.98,1.37-.98,2.25Z"/>
      <path class="cls-1" d="M79.15,281.16v1.54h1.12v.71h-1.12v3.44c0,.76.28.96.61.96.14,0,.26-.01.37-.04l.04.71c-.17.06-.38.1-.68.1-.36,0-.68-.1-.91-.35-.23-.26-.35-.66-.35-1.46v-3.36h-.71v-.71h.71v-1.27l.92-.26Z"/>
      <path class="cls-1" d="M81.63,285.68c.01,1.77.71,2.16,1.38,2.16.4,0,.73-.1.96-.23l.14.68c-.32.18-.82.28-1.27.28-1.39,0-2.11-1.14-2.11-2.91,0-1.88.79-3.06,1.96-3.06s1.66,1.25,1.66,2.57c0,.22,0,.37-.01.52h-2.7ZM83.45,285c.02-1.16-.42-1.68-.86-1.68-.6,0-.91.89-.95,1.68h1.81Z"/>
      <path class="cls-1" d="M88.89,282.7c-.01.41-.05.92-.05,1.81v3.25c0,1.52-.19,2.1-.58,2.52-.35.4-.9.62-1.55.62-.49,0-.97-.12-1.27-.29l.22-.72c.23.12.61.25,1.08.25.73,0,1.19-.46,1.19-1.77v-.59h-.02c-.2.46-.62.71-1.12.71-1.03,0-1.7-1.16-1.7-2.87,0-2.13.97-3.02,1.82-3.02.62,0,.91.41,1.08.76h.02l.05-.66h.83ZM87.93,284.7c0-.14-.01-.3-.05-.42-.11-.4-.31-.89-.84-.89-.67,0-1.03.9-1.03,2.18,0,1.49.47,2.16,1.03,2.16.28,0,.64-.13.83-.83.05-.18.06-.36.06-.53v-1.68Z"/>
      <path class="cls-1" d="M91.12,281.2c.01.36-.22.6-.56.6-.3,0-.53-.24-.53-.6s.24-.6.54-.6c.33,0,.55.24.55.6ZM90.13,288.5v-5.8h.92v5.8h-.92Z"/>
      <path class="cls-1" d="M92.98,285.68c.01,1.77.71,2.16,1.38,2.16.4,0,.73-.1.96-.23l.14.68c-.32.18-.82.28-1.27.28-1.39,0-2.11-1.14-2.11-2.91,0-1.88.79-3.06,1.96-3.06s1.66,1.25,1.66,2.57c0,.22,0,.37-.01.52h-2.7ZM94.81,285c.02-1.16-.42-1.68-.86-1.68-.6,0-.91.89-.95,1.68h1.81Z"/>
      <path class="cls-1" d="M96.68,284.2c0-.49-.04-1.07-.05-1.5h.83l.05.91h.02c.19-.55.68-1.01,1.22-1.01.07,0,.13.01.19.01v.95c-.06-.01-.12-.01-.19-.01-.59,0-1.02.54-1.12,1.21-.02.16-.04.34-.04.53v3.21h-.92v-4.31Z"/>
      <path class="cls-1" d="M101.89,288.5l-.06-.61h-.04c-.25.44-.66.71-1.15.71-.78,0-1.38-.66-1.38-1.66,0-1.45,1.16-2.1,2.47-2.11v-.18c0-.78-.19-1.32-.92-1.32-.36,0-.68.12-.96.3l-.2-.65c.24-.18.78-.38,1.36-.38,1.16,0,1.67.77,1.67,2.08v2.51c0,.44,0,.95.06,1.32h-.84ZM101.75,285.5c-.48,0-1.6.08-1.6,1.34,0,.76.38,1.03.71,1.03.41,0,.76-.3.86-.88.02-.11.02-.23.02-.32v-1.18Z"/>
      <path class="cls-1" d="M103.96,284.2c0-.68-.04-1.03-.05-1.5h.8l.05.7h.02c.25-.47.72-.79,1.33-.79.8,0,1.4.6,1.4,2v3.9h-.92v-3.74c0-.68-.13-1.38-.8-1.38-.38,0-.76.32-.88.95-.02.14-.04.32-.04.52v3.66h-.92v-4.31Z"/>
      <path class="cls-1" d="M110.71,280.2h.92v8.3h-.92v-8.3Z"/>
      <path class="cls-1" d="M115.29,288.5l-.06-.61h-.04c-.25.44-.66.71-1.15.71-.78,0-1.38-.66-1.38-1.66,0-1.45,1.16-2.1,2.47-2.11v-.18c0-.78-.19-1.32-.92-1.32-.36,0-.68.12-.96.3l-.2-.65c.24-.18.78-.38,1.36-.38,1.16,0,1.67.77,1.67,2.08v2.51c0,.44,0,.95.06,1.32h-.84ZM115.16,285.5c-.48,0-1.6.08-1.6,1.34,0,.76.38,1.03.71,1.03.41,0,.76-.3.86-.88.02-.11.02-.23.02-.32v-1.18Z"/>
      <path class="cls-1" d="M121.54,288.5l-.06-.61h-.04c-.25.44-.66.71-1.15.71-.78,0-1.38-.66-1.38-1.66,0-1.45,1.16-2.1,2.47-2.11v-.18c0-.78-.19-1.32-.92-1.32-.36,0-.68.12-.96.3l-.2-.65c.24-.18.78-.38,1.36-.38,1.16,0,1.67.77,1.67,2.08v2.51c0,.44,0,.95.06,1.32h-.84ZM121.41,285.5c-.48,0-1.6.08-1.6,1.34,0,.76.38,1.03.71,1.03.41,0,.76-.3.86-.88.02-.11.02-.23.02-.32v-1.18Z"/>
      <path class="cls-1" d="M126.45,288.36c-.2.12-.55.22-.96.22-1.27,0-2.12-1.02-2.12-2.94,0-1.67.84-3.02,2.29-3.02.31,0,.65.08.82.18l-.18.76c-.12-.06-.36-.16-.66-.16-.92,0-1.34,1.1-1.34,2.24,0,1.35.52,2.17,1.37,2.17.25,0,.46-.06.67-.16l.12.71Z"/>
      <path class="cls-1" d="M128.55,281.16v1.54h1.12v.71h-1.12v3.44c0,.76.28.96.61.96.14,0,.26-.01.37-.04l.04.71c-.17.06-.38.1-.68.1-.36,0-.68-.1-.91-.35-.23-.26-.35-.66-.35-1.46v-3.36h-.71v-.71h.71v-1.27l.92-.26Z"/>
      <path class="cls-1" d="M131.48,281.2c.01.36-.22.6-.56.6-.3,0-.53-.24-.53-.6s.24-.6.54-.6c.33,0,.55.24.55.6ZM130.48,288.5v-5.8h.92v5.8h-.92Z"/>
      <path class="cls-1" d="M133.16,282.7l.73,3.26c.08.4.18.91.25,1.42h.04c.06-.48.16-.97.24-1.42l.72-3.26h.91l-1.51,5.8h-.83l-1.51-5.8h.96Z"/>
      <path class="cls-1" d="M137.85,281.2c.01.36-.22.6-.56.6-.3,0-.53-.24-.53-.6s.24-.6.54-.6c.33,0,.55.24.55.6ZM136.85,288.5v-5.8h.92v5.8h-.92Z"/>
      <path class="cls-1" d="M142.55,280.2v6.91c0,.4.04,1.06.05,1.39h-.79l-.06-.73h-.04c-.19.42-.6.83-1.21.83-.98,0-1.69-1.07-1.69-2.97,0-2.06.85-3.02,1.75-3.02.42,0,.83.2,1.06.7h.02v-3.09h.91ZM141.64,284.9c0-.12,0-.25-.01-.38-.06-.6-.42-1.13-.86-1.13-.77,0-1.03,1.07-1.03,2.23,0,1.22.31,2.21.98,2.21.29,0,.68-.16.89-1,.02-.11.04-.24.04-.38v-1.55Z"/>
      <path class="cls-1" d="M146.14,288.5l-.06-.61h-.04c-.25.44-.66.71-1.15.71-.78,0-1.38-.66-1.38-1.66,0-1.45,1.16-2.1,2.47-2.11v-.18c0-.78-.19-1.32-.92-1.32-.36,0-.68.12-.96.3l-.2-.65c.24-.18.78-.38,1.36-.38,1.16,0,1.67.77,1.67,2.08v2.51c0,.44,0,.95.06,1.32h-.84ZM146.01,285.5c-.48,0-1.6.08-1.6,1.34,0,.76.38,1.03.71,1.03.41,0,.76-.3.86-.88.02-.11.02-.23.02-.32v-1.18Z"/>
      <path class="cls-1" d="M151.71,280.2v6.91c0,.4.04,1.06.05,1.39h-.79l-.06-.73h-.04c-.19.42-.6.83-1.21.83-.98,0-1.69-1.07-1.69-2.97,0-2.06.85-3.02,1.75-3.02.42,0,.83.2,1.06.7h.02v-3.09h.91ZM150.8,284.9c0-.12,0-.25-.01-.38-.06-.6-.42-1.13-.86-1.13-.77,0-1.03,1.07-1.03,2.23,0,1.22.31,2.21.98,2.21.29,0,.68-.16.89-1,.02-.11.04-.24.04-.38v-1.55Z"/>
      <path class="cls-1" d="M158.38,280.2v6.91c0,.4.04,1.06.05,1.39h-.79l-.06-.73h-.04c-.19.42-.6.83-1.21.83-.98,0-1.69-1.07-1.69-2.97,0-2.06.85-3.02,1.75-3.02.42,0,.83.2,1.06.7h.02v-3.09h.91ZM157.47,284.9c0-.12,0-.25-.01-.38-.06-.6-.42-1.13-.86-1.13-.77,0-1.03,1.07-1.03,2.23,0,1.22.31,2.21.98,2.21.29,0,.68-.16.89-1,.02-.11.04-.24.04-.38v-1.55Z"/>
      <path class="cls-1" d="M160.33,285.68c.01,1.77.71,2.16,1.38,2.16.4,0,.73-.1.96-.23l.14.68c-.32.18-.82.28-1.27.28-1.39,0-2.11-1.14-2.11-2.91,0-1.88.79-3.06,1.96-3.06s1.66,1.25,1.66,2.57c0,.22,0,.37-.01.52h-2.7ZM162.15,285c.02-1.16-.42-1.68-.86-1.68-.6,0-.91.89-.95,1.68h1.81Z"/>
    </g>
  </g>
</svg>